%TF.GenerationSoftware,KiCad,Pcbnew,9.0.0*%
%TF.CreationDate,2025-03-24T06:03:53+01:00*%
%TF.ProjectId,PCB_Chessboard,5043425f-4368-4657-9373-626f6172642e,rev?*%
%TF.SameCoordinates,Original*%
%TF.FileFunction,Soldermask,Top*%
%TF.FilePolarity,Negative*%
%FSLAX46Y46*%
G04 Gerber Fmt 4.6, Leading zero omitted, Abs format (unit mm)*
G04 Created by KiCad (PCBNEW 9.0.0) date 2025-03-24 06:03:53*
%MOMM*%
%LPD*%
G01*
G04 APERTURE LIST*
G04 Aperture macros list*
%AMRoundRect*
0 Rectangle with rounded corners*
0 $1 Rounding radius*
0 $2 $3 $4 $5 $6 $7 $8 $9 X,Y pos of 4 corners*
0 Add a 4 corners polygon primitive as box body*
4,1,4,$2,$3,$4,$5,$6,$7,$8,$9,$2,$3,0*
0 Add four circle primitives for the rounded corners*
1,1,$1+$1,$2,$3*
1,1,$1+$1,$4,$5*
1,1,$1+$1,$6,$7*
1,1,$1+$1,$8,$9*
0 Add four rect primitives between the rounded corners*
20,1,$1+$1,$2,$3,$4,$5,0*
20,1,$1+$1,$4,$5,$6,$7,0*
20,1,$1+$1,$6,$7,$8,$9,0*
20,1,$1+$1,$8,$9,$2,$3,0*%
G04 Aperture macros list end*
%ADD10RoundRect,0.140000X0.140000X0.170000X-0.140000X0.170000X-0.140000X-0.170000X0.140000X-0.170000X0*%
%ADD11RoundRect,0.140000X0.170000X-0.140000X0.170000X0.140000X-0.170000X0.140000X-0.170000X-0.140000X0*%
%ADD12R,1.700000X1.700000*%
%ADD13O,1.700000X1.700000*%
%ADD14RoundRect,0.090000X-0.660000X-0.360000X0.660000X-0.360000X0.660000X0.360000X-0.660000X0.360000X0*%
%ADD15RoundRect,0.140000X-0.140000X-0.170000X0.140000X-0.170000X0.140000X0.170000X-0.140000X0.170000X0*%
%ADD16RoundRect,0.140000X-0.170000X0.140000X-0.170000X-0.140000X0.170000X-0.140000X0.170000X0.140000X0*%
%ADD17RoundRect,0.150000X-0.825000X-0.150000X0.825000X-0.150000X0.825000X0.150000X-0.825000X0.150000X0*%
%ADD18RoundRect,0.135000X0.135000X0.185000X-0.135000X0.185000X-0.135000X-0.185000X0.135000X-0.185000X0*%
%ADD19RoundRect,0.250001X1.099999X1.099999X-1.099999X1.099999X-1.099999X-1.099999X1.099999X-1.099999X0*%
%ADD20C,2.700000*%
%ADD21R,0.800000X0.900000*%
%ADD22RoundRect,0.062500X-0.375000X-0.062500X0.375000X-0.062500X0.375000X0.062500X-0.375000X0.062500X0*%
%ADD23RoundRect,0.062500X-0.062500X-0.375000X0.062500X-0.375000X0.062500X0.375000X-0.062500X0.375000X0*%
%ADD24R,3.100000X3.100000*%
%ADD25RoundRect,0.150000X-0.587500X-0.150000X0.587500X-0.150000X0.587500X0.150000X-0.587500X0.150000X0*%
%ADD26RoundRect,0.135000X-0.185000X0.135000X-0.185000X-0.135000X0.185000X-0.135000X0.185000X0.135000X0*%
%ADD27RoundRect,0.150000X0.875000X0.150000X-0.875000X0.150000X-0.875000X-0.150000X0.875000X-0.150000X0*%
G04 APERTURE END LIST*
D10*
%TO.C,C17*%
X104980000Y-100500000D03*
X104020000Y-100500000D03*
%TD*%
D11*
%TO.C,C2*%
X164000000Y-28520000D03*
X164000000Y-29480000D03*
%TD*%
D12*
%TO.C,J17*%
X175000000Y-173460000D03*
D13*
X175000000Y-176000000D03*
%TD*%
D12*
%TO.C,J4*%
X125000000Y-24000000D03*
D13*
X125000000Y-26540000D03*
%TD*%
D12*
%TO.C,J18*%
X168000000Y-33460000D03*
D13*
X168000000Y-36000000D03*
%TD*%
D14*
%TO.C,D18*%
X72550000Y-30350000D03*
X72550000Y-33650000D03*
X77450000Y-33650000D03*
X77450000Y-30350000D03*
%TD*%
D15*
%TO.C,C20*%
X178000000Y-28000000D03*
X178960000Y-28000000D03*
%TD*%
D12*
%TO.C,J5*%
X175000000Y-24000000D03*
D13*
X175000000Y-26540000D03*
%TD*%
D15*
%TO.C,C24*%
X178040000Y-77000000D03*
X179000000Y-77000000D03*
%TD*%
%TO.C,C27*%
X128040000Y-127000000D03*
X129000000Y-127000000D03*
%TD*%
%TO.C,C22*%
X78040000Y-78000000D03*
X79000000Y-78000000D03*
%TD*%
D12*
%TO.C,J2*%
X25000000Y-24000000D03*
D13*
X25000000Y-26540000D03*
%TD*%
D15*
%TO.C,C32*%
X178040000Y-177000000D03*
X179000000Y-177000000D03*
%TD*%
D16*
%TO.C,C9*%
X146000000Y-18520000D03*
X146000000Y-19480000D03*
%TD*%
D17*
%TO.C,U5*%
X87525000Y-85555000D03*
X87525000Y-86825000D03*
X87525000Y-88095000D03*
X87525000Y-89365000D03*
X87525000Y-90635000D03*
X87525000Y-91905000D03*
X87525000Y-93175000D03*
X87525000Y-94445000D03*
X92475000Y-94445000D03*
X92475000Y-93175000D03*
X92475000Y-91905000D03*
X92475000Y-90635000D03*
X92475000Y-89365000D03*
X92475000Y-88095000D03*
X92475000Y-86825000D03*
X92475000Y-85555000D03*
%TD*%
D12*
%TO.C,J9*%
X175000000Y-73460000D03*
D13*
X175000000Y-76000000D03*
%TD*%
D14*
%TO.C,D19*%
X122550000Y-30350000D03*
X122550000Y-33650000D03*
X127450000Y-33650000D03*
X127450000Y-30350000D03*
%TD*%
D15*
%TO.C,C7*%
X89040000Y-106000000D03*
X90000000Y-106000000D03*
%TD*%
%TO.C,C6*%
X128040000Y-28000000D03*
X129000000Y-28000000D03*
%TD*%
D12*
%TO.C,J7*%
X75000000Y-74000000D03*
D13*
X75000000Y-76540000D03*
%TD*%
D14*
%TO.C,D17*%
X22550000Y-30350000D03*
X22550000Y-33650000D03*
X27450000Y-33650000D03*
X27450000Y-30350000D03*
%TD*%
%TO.C,D30*%
X72550000Y-180350000D03*
X72550000Y-183650000D03*
X77450000Y-183650000D03*
X77450000Y-180350000D03*
%TD*%
D12*
%TO.C,J19*%
X168000000Y-19000000D03*
D13*
X168000000Y-21540000D03*
X168000000Y-24080000D03*
%TD*%
D10*
%TO.C,C10*%
X115480000Y-105000000D03*
X114520000Y-105000000D03*
%TD*%
D18*
%TO.C,R2*%
X142020000Y-19000000D03*
X141000000Y-19000000D03*
%TD*%
D14*
%TO.C,D20*%
X172550000Y-30350000D03*
X172550000Y-33650000D03*
X177450000Y-33650000D03*
X177450000Y-30350000D03*
%TD*%
%TO.C,D27*%
X122550000Y-130350000D03*
X122550000Y-133650000D03*
X127450000Y-133650000D03*
X127450000Y-130350000D03*
%TD*%
D12*
%TO.C,J11*%
X75000000Y-123460000D03*
D13*
X75000000Y-126000000D03*
%TD*%
D12*
%TO.C,J12*%
X125000000Y-123460000D03*
D13*
X125000000Y-126000000D03*
%TD*%
D14*
%TO.C,D29*%
X22550000Y-180350000D03*
X22550000Y-183650000D03*
X27450000Y-183650000D03*
X27450000Y-180350000D03*
%TD*%
D12*
%TO.C,J10*%
X25000000Y-123460000D03*
D13*
X25000000Y-126000000D03*
%TD*%
D12*
%TO.C,J15*%
X75000000Y-173460000D03*
D13*
X75000000Y-176000000D03*
%TD*%
D11*
%TO.C,C13*%
X100000000Y-105480000D03*
X100000000Y-104520000D03*
%TD*%
D15*
%TO.C,C5*%
X78000000Y-28000000D03*
X78960000Y-28000000D03*
%TD*%
D19*
%TO.C,JQ1*%
X162880000Y-15775000D03*
D20*
X158920000Y-15775000D03*
X154960000Y-15775000D03*
X151000000Y-15775000D03*
X147040000Y-15775000D03*
X143080000Y-15775000D03*
X139120000Y-15775000D03*
%TD*%
D14*
%TO.C,D23*%
X122550000Y-80350000D03*
X122550000Y-83650000D03*
X127450000Y-83650000D03*
X127450000Y-80350000D03*
%TD*%
D12*
%TO.C,J20*%
X147000000Y-23475000D03*
D13*
X147000000Y-26015000D03*
X147000000Y-28555000D03*
%TD*%
D11*
%TO.C,C11*%
X98000000Y-105480000D03*
X98000000Y-104520000D03*
%TD*%
D14*
%TO.C,D22*%
X72550000Y-80350000D03*
X72550000Y-83650000D03*
X77450000Y-83650000D03*
X77450000Y-80350000D03*
%TD*%
%TO.C,D26*%
X72550000Y-130350000D03*
X72550000Y-133650000D03*
X77450000Y-133650000D03*
X77450000Y-130350000D03*
%TD*%
D15*
%TO.C,C28*%
X178000000Y-127000000D03*
X178960000Y-127000000D03*
%TD*%
D16*
%TO.C,C8*%
X69000000Y-181520000D03*
X69000000Y-182480000D03*
%TD*%
D12*
%TO.C,J16*%
X125000000Y-173460000D03*
D13*
X125000000Y-176000000D03*
%TD*%
D15*
%TO.C,C31*%
X128040000Y-177000000D03*
X129000000Y-177000000D03*
%TD*%
%TO.C,C29*%
X28000000Y-177000000D03*
X28960000Y-177000000D03*
%TD*%
D10*
%TO.C,C3*%
X153000000Y-19000000D03*
X152040000Y-19000000D03*
%TD*%
%TO.C,C15*%
X105000000Y-102000000D03*
X104040000Y-102000000D03*
%TD*%
D12*
%TO.C,J8*%
X125000000Y-73460000D03*
D13*
X125000000Y-76000000D03*
%TD*%
D14*
%TO.C,D21*%
X22550000Y-80350000D03*
X22550000Y-83650000D03*
X27450000Y-83650000D03*
X27450000Y-80350000D03*
%TD*%
%TO.C,D25*%
X22550000Y-130350000D03*
X22550000Y-133650000D03*
X27450000Y-133650000D03*
X27450000Y-130350000D03*
%TD*%
D15*
%TO.C,C16*%
X103040000Y-105000000D03*
X104000000Y-105000000D03*
%TD*%
D12*
%TO.C,J3*%
X75000000Y-24000000D03*
D13*
X75000000Y-26540000D03*
%TD*%
D14*
%TO.C,D24*%
X172550000Y-80350000D03*
X172550000Y-83650000D03*
X177450000Y-83650000D03*
X177450000Y-80350000D03*
%TD*%
%TO.C,D31*%
X122550000Y-180350000D03*
X122550000Y-183650000D03*
X127450000Y-183650000D03*
X127450000Y-180350000D03*
%TD*%
%TO.C,D32*%
X172550000Y-180350000D03*
X172550000Y-183650000D03*
X177450000Y-183650000D03*
X177450000Y-180350000D03*
%TD*%
D12*
%TO.C,J6*%
X25000000Y-74000000D03*
D13*
X25000000Y-76540000D03*
%TD*%
D17*
%TO.C,U7*%
X107525000Y-105555000D03*
X107525000Y-106825000D03*
X107525000Y-108095000D03*
X107525000Y-109365000D03*
X107525000Y-110635000D03*
X107525000Y-111905000D03*
X107525000Y-113175000D03*
X107525000Y-114445000D03*
X112475000Y-114445000D03*
X112475000Y-113175000D03*
X112475000Y-111905000D03*
X112475000Y-110635000D03*
X112475000Y-109365000D03*
X112475000Y-108095000D03*
X112475000Y-106825000D03*
X112475000Y-105555000D03*
%TD*%
D10*
%TO.C,C1*%
X95960000Y-85000000D03*
X95000000Y-85000000D03*
%TD*%
D12*
%TO.C,J13*%
X175000000Y-123460000D03*
D13*
X175000000Y-126000000D03*
%TD*%
D11*
%TO.C,C14*%
X104480000Y-99480000D03*
X104480000Y-98520000D03*
%TD*%
D15*
%TO.C,C4*%
X28040000Y-28000000D03*
X29000000Y-28000000D03*
%TD*%
D12*
%TO.C,J14*%
X25000000Y-173460000D03*
D13*
X25000000Y-176000000D03*
%TD*%
D15*
%TO.C,C21*%
X28040000Y-78000000D03*
X29000000Y-78000000D03*
%TD*%
D21*
%TO.C,Y2*%
X104900000Y-94000000D03*
X104900000Y-95400000D03*
X106000000Y-95400000D03*
X106000000Y-94000000D03*
%TD*%
D15*
%TO.C,C25*%
X28040000Y-127000000D03*
X29000000Y-127000000D03*
%TD*%
D11*
%TO.C,C12*%
X99000000Y-105480000D03*
X99000000Y-104520000D03*
%TD*%
D14*
%TO.C,D28*%
X172550000Y-130350000D03*
X172550000Y-133650000D03*
X177450000Y-133650000D03*
X177450000Y-130350000D03*
%TD*%
D22*
%TO.C,U1*%
X97562500Y-98250000D03*
X97562500Y-98750000D03*
X97562500Y-99250000D03*
X97562500Y-99750000D03*
X97562500Y-100250000D03*
X97562500Y-100750000D03*
X97562500Y-101250000D03*
X97562500Y-101750000D03*
D23*
X98250000Y-102437500D03*
X98750000Y-102437500D03*
X99250000Y-102437500D03*
X99750000Y-102437500D03*
X100250000Y-102437500D03*
X100750000Y-102437500D03*
X101250000Y-102437500D03*
X101750000Y-102437500D03*
D22*
X102437500Y-101750000D03*
X102437500Y-101250000D03*
X102437500Y-100750000D03*
X102437500Y-100250000D03*
X102437500Y-99750000D03*
X102437500Y-99250000D03*
X102437500Y-98750000D03*
X102437500Y-98250000D03*
D23*
X101750000Y-97562500D03*
X101250000Y-97562500D03*
X100750000Y-97562500D03*
X100250000Y-97562500D03*
X99750000Y-97562500D03*
X99250000Y-97562500D03*
X98750000Y-97562500D03*
X98250000Y-97562500D03*
D24*
X100000000Y-100000000D03*
%TD*%
D10*
%TO.C,C33*%
X102000000Y-105000000D03*
X101040000Y-105000000D03*
%TD*%
D15*
%TO.C,C30*%
X78040000Y-177000000D03*
X79000000Y-177000000D03*
%TD*%
%TO.C,C26*%
X78040000Y-127000000D03*
X79000000Y-127000000D03*
%TD*%
D25*
%TO.C,Q1*%
X139062500Y-37100000D03*
X139062500Y-39000000D03*
X140937500Y-38050000D03*
%TD*%
D26*
%TO.C,R1*%
X137000000Y-37490000D03*
X137000000Y-38510000D03*
%TD*%
D15*
%TO.C,C23*%
X128040000Y-77000000D03*
X129000000Y-77000000D03*
%TD*%
D27*
%TO.C,U3*%
X152350000Y-40255000D03*
X152350000Y-38985000D03*
X152350000Y-37715000D03*
X152350000Y-36445000D03*
X152350000Y-35175000D03*
X152350000Y-33905000D03*
X152350000Y-32635000D03*
X152350000Y-31365000D03*
X152350000Y-30095000D03*
X152350000Y-28825000D03*
X152350000Y-27555000D03*
X152350000Y-26285000D03*
X152350000Y-25015000D03*
X152350000Y-23745000D03*
X161650000Y-23745000D03*
X161650000Y-25015000D03*
X161650000Y-26285000D03*
X161650000Y-27555000D03*
X161650000Y-28825000D03*
X161650000Y-30095000D03*
X161650000Y-31365000D03*
X161650000Y-32635000D03*
X161650000Y-33905000D03*
X161650000Y-35175000D03*
X161650000Y-36445000D03*
X161650000Y-37715000D03*
X161650000Y-38985000D03*
X161650000Y-40255000D03*
%TD*%
M02*
