M48
; DRILL file {KiCad 9.0.0} date 2025-03-24T09:11:44+0100
; FORMAT={-:-/ absolute / metric / decimal}
; #@! TF.CreationDate,2025-03-24T09:11:44+01:00
; #@! TF.GenerationSoftware,Kicad,Pcbnew,9.0.0
; #@! TF.FileFunction,Plated,1,4,PTH
FMAT,2
METRIC
; #@! TA.AperFunction,Plated,PTH,ViaDrill
T1C0.300
; #@! TA.AperFunction,Plated,PTH,ViaDrill
T2C0.600
; #@! TA.AperFunction,Plated,PTH,ComponentDrill
T3C1.000
; #@! TA.AperFunction,Plated,PTH,ComponentDrill
T4C1.700
%
G90
G05
T1
X30.0Y-80.0
X32.0Y-25.5
X35.5Y-31.0
X43.0Y-81.0
X73.0Y-36.0
X73.0Y-86.0
X73.0Y-136.0
X73.0Y-186.0
X73.5Y-114.0
X77.5Y-171.5
X80.0Y-31.0
X80.0Y-81.0
X80.0Y-131.0
X80.0Y-181.0
X82.0Y-31.0
X83.5Y-138.0
X84.0Y-111.0
X85.0Y-81.0
X85.0Y-90.5
X85.5Y-88.5
X87.0Y-123.5
X91.0Y-90.5
X92.0Y-107.5
X93.0Y-131.0
X94.0Y-94.5
X94.5Y-89.0
X94.5Y-92.0
X94.5Y-93.0
X95.0Y-84.0
X95.0Y-86.0
X95.5Y-81.0
X96.5Y-87.6
X96.5Y-99.5
X96.5Y-103.5
X96.5Y-125.0
X97.174Y-104.674
X97.5Y-14.0
X97.5Y-96.5
X98.5Y-87.0
X100.385Y-104.449
X100.85Y-103.5
X103.0Y-81.0
X103.176Y-102.976
X103.336Y-101.15
X103.848Y-81.001
X104.0Y-103.0
X104.495Y-97.005
X105.25Y-98.5
X105.5Y-107.0
X106.0Y-80.5
X106.055Y-96.445
X106.5Y-131.0
X107.5Y-30.5
X107.5Y-81.0
X108.0Y-180.5
X108.3Y-81.0
X108.5Y-103.5
X109.0Y-83.0
X109.0Y-116.5
X109.1Y-81.0
X110.0Y-110.0
X110.5Y-138.0
X111.0Y-110.0
X114.5Y-112.0
X114.5Y-113.0
X114.5Y-114.5
X117.0Y-31.0
X122.5Y-159.5
X123.0Y-36.0
X123.0Y-136.0
X123.0Y-186.0
X125.976Y-80.976
X129.5Y-95.0
X130.0Y-31.0
X130.0Y-131.0
X130.0Y-181.0
X135.0Y-37.0
X138.5Y-85.5
X139.0Y-18.0
X139.0Y-35.0
X139.5Y-85.5
X140.0Y-22.0
X140.5Y-85.5
X140.6Y-40.0
X141.5Y-85.0
X148.0Y-19.0
X155.0Y-36.0
X155.0Y-40.5
X156.5Y-29.0
X157.5Y-36.0
X158.5Y-46.0
X160.5Y-25.0
X162.0Y-89.0
X165.5Y-28.5
X168.5Y-135.0
X169.0Y-29.0
X170.0Y-81.0
X170.0Y-84.0
X173.0Y-26.0
X173.0Y-85.5
X173.0Y-136.0
X173.0Y-186.0
X173.5Y-35.5
X179.5Y-81.0
X180.0Y-131.0
X180.0Y-181.0
T2
X30.0Y-27.0
X31.0Y-33.0
X31.0Y-77.0
X31.0Y-83.0
X31.0Y-126.0
X31.0Y-133.0
X31.0Y-176.0
X31.0Y-183.0
X69.0Y-184.0
X80.0Y-28.5
X80.0Y-33.5
X80.0Y-77.5
X80.066Y-183.066
X80.5Y-83.5
X81.0Y-126.0
X81.0Y-133.0
X81.0Y-176.0
X87.5Y-96.0
X92.5Y-105.0
X96.0Y-97.0
X97.3Y-85.5
X106.0Y-100.5
X107.5Y-118.0
X117.0Y-104.0
X130.0Y-27.0
X131.0Y-33.0
X131.0Y-76.0
X131.0Y-83.0
X131.0Y-125.5
X131.0Y-176.0
X131.0Y-183.0
X131.5Y-133.0
X154.0Y-20.0
X167.0Y-27.0
X181.0Y-27.0
X181.0Y-126.0
X181.0Y-133.0
X181.0Y-176.0
X181.0Y-183.0
X182.0Y-82.0
T3
X25.0Y-24.0
X25.0Y-26.54
X25.0Y-74.0
X25.0Y-76.54
X25.0Y-123.46
X25.0Y-126.0
X25.0Y-173.46
X25.0Y-176.0
X75.0Y-24.0
X75.0Y-26.54
X75.0Y-74.0
X75.0Y-76.54
X75.0Y-123.46
X75.0Y-126.0
X75.0Y-173.46
X75.0Y-176.0
X125.0Y-24.0
X125.0Y-26.54
X125.0Y-73.46
X125.0Y-76.0
X125.0Y-123.46
X125.0Y-126.0
X125.0Y-173.46
X125.0Y-176.0
X147.0Y-23.475
X147.0Y-26.015
X147.0Y-28.555
X168.0Y-19.0
X168.0Y-21.54
X168.0Y-24.08
X168.0Y-33.46
X168.0Y-36.0
X175.0Y-24.0
X175.0Y-26.54
X175.0Y-73.46
X175.0Y-76.0
X175.0Y-123.46
X175.0Y-126.0
X175.0Y-173.46
X175.0Y-176.0
T4
X139.12Y-15.775
X143.08Y-15.775
X147.04Y-15.775
X151.0Y-15.775
X154.96Y-15.775
X158.92Y-15.775
X162.88Y-15.775
M30
