%TF.GenerationSoftware,KiCad,Pcbnew,9.0.0*%
%TF.CreationDate,2025-03-24T06:03:53+01:00*%
%TF.ProjectId,PCB_Chessboard,5043425f-4368-4657-9373-626f6172642e,rev?*%
%TF.SameCoordinates,Original*%
%TF.FileFunction,Soldermask,Bot*%
%TF.FilePolarity,Negative*%
%FSLAX46Y46*%
G04 Gerber Fmt 4.6, Leading zero omitted, Abs format (unit mm)*
G04 Created by KiCad (PCBNEW 9.0.0) date 2025-03-24 06:03:53*
%MOMM*%
%LPD*%
G01*
G04 APERTURE LIST*
G04 Aperture macros list*
%AMRoundRect*
0 Rectangle with rounded corners*
0 $1 Rounding radius*
0 $2 $3 $4 $5 $6 $7 $8 $9 X,Y pos of 4 corners*
0 Add a 4 corners polygon primitive as box body*
4,1,4,$2,$3,$4,$5,$6,$7,$8,$9,$2,$3,0*
0 Add four circle primitives for the rounded corners*
1,1,$1+$1,$2,$3*
1,1,$1+$1,$4,$5*
1,1,$1+$1,$6,$7*
1,1,$1+$1,$8,$9*
0 Add four rect primitives between the rounded corners*
20,1,$1+$1,$2,$3,$4,$5,0*
20,1,$1+$1,$4,$5,$6,$7,0*
20,1,$1+$1,$6,$7,$8,$9,0*
20,1,$1+$1,$8,$9,$2,$3,0*%
G04 Aperture macros list end*
%ADD10R,1.700000X1.700000*%
%ADD11O,1.700000X1.700000*%
%ADD12RoundRect,0.250001X1.099999X1.099999X-1.099999X1.099999X-1.099999X-1.099999X1.099999X-1.099999X0*%
%ADD13C,2.700000*%
G04 APERTURE END LIST*
D10*
%TO.C,J17*%
X175000000Y-173460000D03*
D11*
X175000000Y-176000000D03*
%TD*%
D10*
%TO.C,J4*%
X125000000Y-24000000D03*
D11*
X125000000Y-26540000D03*
%TD*%
D10*
%TO.C,J18*%
X168000000Y-33460000D03*
D11*
X168000000Y-36000000D03*
%TD*%
D10*
%TO.C,J5*%
X175000000Y-24000000D03*
D11*
X175000000Y-26540000D03*
%TD*%
D10*
%TO.C,J2*%
X25000000Y-24000000D03*
D11*
X25000000Y-26540000D03*
%TD*%
D10*
%TO.C,J9*%
X175000000Y-73460000D03*
D11*
X175000000Y-76000000D03*
%TD*%
D10*
%TO.C,J7*%
X75000000Y-74000000D03*
D11*
X75000000Y-76540000D03*
%TD*%
D10*
%TO.C,J19*%
X168000000Y-19000000D03*
D11*
X168000000Y-21540000D03*
X168000000Y-24080000D03*
%TD*%
D10*
%TO.C,J11*%
X75000000Y-123460000D03*
D11*
X75000000Y-126000000D03*
%TD*%
D10*
%TO.C,J12*%
X125000000Y-123460000D03*
D11*
X125000000Y-126000000D03*
%TD*%
D10*
%TO.C,J10*%
X25000000Y-123460000D03*
D11*
X25000000Y-126000000D03*
%TD*%
D10*
%TO.C,J15*%
X75000000Y-173460000D03*
D11*
X75000000Y-176000000D03*
%TD*%
D12*
%TO.C,JQ1*%
X162880000Y-15775000D03*
D13*
X158920000Y-15775000D03*
X154960000Y-15775000D03*
X151000000Y-15775000D03*
X147040000Y-15775000D03*
X143080000Y-15775000D03*
X139120000Y-15775000D03*
%TD*%
D10*
%TO.C,J20*%
X147000000Y-23475000D03*
D11*
X147000000Y-26015000D03*
X147000000Y-28555000D03*
%TD*%
D10*
%TO.C,J16*%
X125000000Y-173460000D03*
D11*
X125000000Y-176000000D03*
%TD*%
D10*
%TO.C,J8*%
X125000000Y-73460000D03*
D11*
X125000000Y-76000000D03*
%TD*%
D10*
%TO.C,J3*%
X75000000Y-24000000D03*
D11*
X75000000Y-26540000D03*
%TD*%
D10*
%TO.C,J6*%
X25000000Y-74000000D03*
D11*
X25000000Y-76540000D03*
%TD*%
D10*
%TO.C,J13*%
X175000000Y-123460000D03*
D11*
X175000000Y-126000000D03*
%TD*%
D10*
%TO.C,J14*%
X25000000Y-173460000D03*
D11*
X25000000Y-176000000D03*
%TD*%
M02*
