%TF.GenerationSoftware,KiCad,Pcbnew,9.0.0*%
%TF.CreationDate,2025-03-24T09:11:06+01:00*%
%TF.ProjectId,PCB_Chessboard,5043425f-4368-4657-9373-626f6172642e,rev?*%
%TF.SameCoordinates,Original*%
%TF.FileFunction,Copper,L4,Bot*%
%TF.FilePolarity,Positive*%
%FSLAX46Y46*%
G04 Gerber Fmt 4.6, Leading zero omitted, Abs format (unit mm)*
G04 Created by KiCad (PCBNEW 9.0.0) date 2025-03-24 09:11:06*
%MOMM*%
%LPD*%
G01*
G04 APERTURE LIST*
G04 Aperture macros list*
%AMRoundRect*
0 Rectangle with rounded corners*
0 $1 Rounding radius*
0 $2 $3 $4 $5 $6 $7 $8 $9 X,Y pos of 4 corners*
0 Add a 4 corners polygon primitive as box body*
4,1,4,$2,$3,$4,$5,$6,$7,$8,$9,$2,$3,0*
0 Add four circle primitives for the rounded corners*
1,1,$1+$1,$2,$3*
1,1,$1+$1,$4,$5*
1,1,$1+$1,$6,$7*
1,1,$1+$1,$8,$9*
0 Add four rect primitives between the rounded corners*
20,1,$1+$1,$2,$3,$4,$5,0*
20,1,$1+$1,$4,$5,$6,$7,0*
20,1,$1+$1,$6,$7,$8,$9,0*
20,1,$1+$1,$8,$9,$2,$3,0*%
G04 Aperture macros list end*
%TA.AperFunction,ComponentPad*%
%ADD10R,1.700000X1.700000*%
%TD*%
%TA.AperFunction,ComponentPad*%
%ADD11O,1.700000X1.700000*%
%TD*%
%TA.AperFunction,ComponentPad*%
%ADD12RoundRect,0.250001X1.099999X1.099999X-1.099999X1.099999X-1.099999X-1.099999X1.099999X-1.099999X0*%
%TD*%
%TA.AperFunction,ComponentPad*%
%ADD13C,2.700000*%
%TD*%
%TA.AperFunction,ViaPad*%
%ADD14C,0.600000*%
%TD*%
%TA.AperFunction,ViaPad*%
%ADD15C,1.000000*%
%TD*%
%TA.AperFunction,Conductor*%
%ADD16C,0.200000*%
%TD*%
G04 APERTURE END LIST*
D10*
%TO.P,J17,1,Pin_1*%
%TO.N,ANT16+*%
X175000000Y-173460000D03*
D11*
%TO.P,J17,2,Pin_2*%
%TO.N,Net-(J17-Pin_2)*%
X175000000Y-176000000D03*
%TD*%
D10*
%TO.P,J4,1,Pin_1*%
%TO.N,ANT3+*%
X125000000Y-24000000D03*
D11*
%TO.P,J4,2,Pin_2*%
%TO.N,Net-(J4-Pin_2)*%
X125000000Y-26540000D03*
%TD*%
D10*
%TO.P,J18,1,Pin_1*%
%TO.N,+3.3V*%
X168000000Y-33460000D03*
D11*
%TO.P,J18,2,Pin_2*%
X168000000Y-36000000D03*
%TD*%
D10*
%TO.P,J5,1,Pin_1*%
%TO.N,ANT4+*%
X175000000Y-24000000D03*
D11*
%TO.P,J5,2,Pin_2*%
%TO.N,Net-(J5-Pin_2)*%
X175000000Y-26540000D03*
%TD*%
D10*
%TO.P,J2,1,Pin_1*%
%TO.N,ANT1+*%
X25000000Y-24000000D03*
D11*
%TO.P,J2,2,Pin_2*%
%TO.N,Net-(J2-Pin_2)*%
X25000000Y-26540000D03*
%TD*%
D10*
%TO.P,J9,1,Pin_1*%
%TO.N,ANT8+*%
X175000000Y-73460000D03*
D11*
%TO.P,J9,2,Pin_2*%
%TO.N,Net-(J9-Pin_2)*%
X175000000Y-76000000D03*
%TD*%
D10*
%TO.P,J7,1,Pin_1*%
%TO.N,ANT6+*%
X75000000Y-74000000D03*
D11*
%TO.P,J7,2,Pin_2*%
%TO.N,Net-(J7-Pin_2)*%
X75000000Y-76540000D03*
%TD*%
D10*
%TO.P,J19,1,Pin_1*%
%TO.N,GND*%
X168000000Y-19000000D03*
D11*
%TO.P,J19,2,Pin_2*%
X168000000Y-21540000D03*
%TO.P,J19,3,Pin_3*%
X168000000Y-24080000D03*
%TD*%
D10*
%TO.P,J11,1,Pin_1*%
%TO.N,ANT10+*%
X75000000Y-123460000D03*
D11*
%TO.P,J11,2,Pin_2*%
%TO.N,Net-(J11-Pin_2)*%
X75000000Y-126000000D03*
%TD*%
D10*
%TO.P,J12,1,Pin_1*%
%TO.N,ANT11+*%
X125000000Y-123460000D03*
D11*
%TO.P,J12,2,Pin_2*%
%TO.N,Net-(J12-Pin_2)*%
X125000000Y-126000000D03*
%TD*%
D10*
%TO.P,J10,1,Pin_1*%
%TO.N,ANT9+*%
X25000000Y-123460000D03*
D11*
%TO.P,J10,2,Pin_2*%
%TO.N,Net-(J10-Pin_2)*%
X25000000Y-126000000D03*
%TD*%
D10*
%TO.P,J15,1,Pin_1*%
%TO.N,ANT14+*%
X75000000Y-173460000D03*
D11*
%TO.P,J15,2,Pin_2*%
%TO.N,Net-(J15-Pin_2)*%
X75000000Y-176000000D03*
%TD*%
D12*
%TO.P,JQ1,1,Pin_1*%
%TO.N,SDA*%
X162880000Y-15775000D03*
D13*
%TO.P,JQ1,2,Pin_2*%
%TO.N,SCL*%
X158920000Y-15775000D03*
%TO.P,JQ1,3,Pin_3*%
%TO.N,GND*%
X154960000Y-15775000D03*
%TO.P,JQ1,4,Pin_4*%
%TO.N,+3.3V*%
X151000000Y-15775000D03*
%TO.P,JQ1,5,Pin_5*%
%TO.N,+5V*%
X147040000Y-15775000D03*
%TO.P,JQ1,6,Pin_6*%
%TO.N,LED.DIN*%
X143080000Y-15775000D03*
%TO.P,JQ1,7,Pin_7*%
%TO.N,GPIOXX*%
X139120000Y-15775000D03*
%TD*%
D10*
%TO.P,J20,1,Pin_1*%
%TO.N,MCP23017.A0*%
X147000000Y-23475000D03*
D11*
%TO.P,J20,2,Pin_2*%
%TO.N,MCP23017.A1*%
X147000000Y-26015000D03*
%TO.P,J20,3,Pin_3*%
%TO.N,MCP23017.A2*%
X147000000Y-28555000D03*
%TD*%
D10*
%TO.P,J16,1,Pin_1*%
%TO.N,ANT15+*%
X125000000Y-173460000D03*
D11*
%TO.P,J16,2,Pin_2*%
%TO.N,Net-(J16-Pin_2)*%
X125000000Y-176000000D03*
%TD*%
D10*
%TO.P,J8,1,Pin_1*%
%TO.N,ANT7+*%
X125000000Y-73460000D03*
D11*
%TO.P,J8,2,Pin_2*%
%TO.N,Net-(J8-Pin_2)*%
X125000000Y-76000000D03*
%TD*%
D10*
%TO.P,J3,1,Pin_1*%
%TO.N,ANT2+*%
X75000000Y-24000000D03*
D11*
%TO.P,J3,2,Pin_2*%
%TO.N,Net-(J3-Pin_2)*%
X75000000Y-26540000D03*
%TD*%
D10*
%TO.P,J6,1,Pin_1*%
%TO.N,ANT5+*%
X25000000Y-74000000D03*
D11*
%TO.P,J6,2,Pin_2*%
%TO.N,Net-(J6-Pin_2)*%
X25000000Y-76540000D03*
%TD*%
D10*
%TO.P,J13,1,Pin_1*%
%TO.N,ANT12+*%
X175000000Y-123460000D03*
D11*
%TO.P,J13,2,Pin_2*%
%TO.N,Net-(J13-Pin_2)*%
X175000000Y-126000000D03*
%TD*%
D10*
%TO.P,J14,1,Pin_1*%
%TO.N,ANT13+*%
X25000000Y-173460000D03*
D11*
%TO.P,J14,2,Pin_2*%
%TO.N,Net-(J14-Pin_2)*%
X25000000Y-176000000D03*
%TD*%
D14*
%TO.N,+3.3V*%
X95500000Y-81000000D03*
X92000000Y-107500000D03*
X95000000Y-84000000D03*
X97500000Y-14000000D03*
X95000000Y-86000000D03*
%TO.N,GPIOXX*%
X139000000Y-35000000D03*
X139000000Y-18000000D03*
%TO.N,SDA*%
X96500000Y-99500000D03*
X157500000Y-36000000D03*
X141500000Y-85000000D03*
X160500000Y-25000000D03*
%TO.N,SCL*%
X155000000Y-40500000D03*
X156500000Y-29000000D03*
X158500000Y-46000000D03*
X155000000Y-36000000D03*
%TO.N,CLRC663.ALIM*%
X105250000Y-98500000D03*
X97174265Y-104674265D03*
X100385017Y-104448770D03*
X140600000Y-40000000D03*
X104000000Y-103000000D03*
%TO.N,MCP23017.GPA3*%
X108300003Y-81000000D03*
X97500000Y-96500000D03*
D15*
%TO.N,GND*%
X80000000Y-28500000D03*
X131000000Y-33000000D03*
X167000000Y-27000000D03*
X31000000Y-33000000D03*
X69000000Y-184000000D03*
X107500000Y-118000000D03*
X80000000Y-33500000D03*
X131000000Y-125500000D03*
X31000000Y-83000000D03*
X96000000Y-97000000D03*
X80065686Y-183065686D03*
X117000000Y-104000000D03*
X131000000Y-183000000D03*
X80500000Y-83500000D03*
X81000000Y-133000000D03*
X31000000Y-133000000D03*
X81000000Y-176000000D03*
X31000000Y-126000000D03*
X131000000Y-83000000D03*
X181000000Y-27000000D03*
X130000000Y-27000000D03*
X106000000Y-100500000D03*
X131000000Y-76000000D03*
X80000000Y-77500000D03*
X131000000Y-176000000D03*
X131500000Y-133000000D03*
X181000000Y-183000000D03*
X92500000Y-105000000D03*
X154000000Y-20000000D03*
X31000000Y-77000000D03*
X181000000Y-126000000D03*
X81000000Y-126000000D03*
X181000000Y-133000000D03*
X97300000Y-85500000D03*
X31000000Y-176000000D03*
X30000000Y-27000000D03*
X31000000Y-183000000D03*
X182000000Y-82000000D03*
X87500000Y-96000000D03*
X181000000Y-176000000D03*
D14*
%TO.N,MCP23017.GPA0*%
X103000000Y-81000000D03*
X94500000Y-92000000D03*
%TO.N,MCP23017.GPA2*%
X94000000Y-94500000D03*
X107500000Y-81000000D03*
%TO.N,MCP23017.GPA1*%
X94500000Y-93000000D03*
X103847527Y-81001000D03*
%TO.N,MCP23017.GPA4*%
X114500000Y-112000000D03*
X138500000Y-85500000D03*
%TO.N,MCP23017.GPA5*%
X139500000Y-85500000D03*
X114500000Y-113000000D03*
%TO.N,MCP23017.GPA6*%
X114500000Y-114500000D03*
X140500000Y-85500000D03*
%TO.N,ANT3+*%
X96500000Y-87600000D03*
X117000000Y-31000000D03*
%TO.N,ANT2+*%
X82000000Y-31000000D03*
X94500000Y-89000000D03*
%TO.N,ANT6+*%
X85000000Y-81000000D03*
X85500000Y-88500000D03*
%TO.N,ANT4+*%
X98500000Y-87000000D03*
X173000000Y-26000000D03*
%TO.N,ANT7+*%
X109100006Y-81000000D03*
X109000000Y-83000000D03*
%TO.N,CLRC663.TX1*%
X100850000Y-103500000D03*
X96500000Y-103500000D03*
%TO.N,ANT5+*%
X85000000Y-90500000D03*
X43000000Y-81000000D03*
%TO.N,ANT1+*%
X32000000Y-25500000D03*
X91000000Y-90500000D03*
%TO.N,ANT14+*%
X93000000Y-131000000D03*
X77500000Y-171500000D03*
%TO.N,ANT15+*%
X109000000Y-116500000D03*
X110500000Y-138000000D03*
%TO.N,ANT9+*%
X84000000Y-111000000D03*
X111000000Y-110000000D03*
%TO.N,ANT13+*%
X83500000Y-138000000D03*
X96500000Y-125000000D03*
%TO.N,ANT10+*%
X87000000Y-123500000D03*
X110000000Y-110000000D03*
%TO.N,CLRC663.RX*%
X103335554Y-101150000D03*
X108500000Y-103500000D03*
X105500000Y-107000000D03*
X103175734Y-102975737D03*
%TO.N,Net-(U1-XTAL1)*%
X106055331Y-96444669D03*
X104494669Y-97005331D03*
%TO.N,Net-(D19-DOUT)*%
X173500000Y-35500000D03*
X135000000Y-37000000D03*
%TO.N,+5V*%
X125975735Y-80975735D03*
X107500000Y-30500000D03*
X106000000Y-80500000D03*
X148000000Y-19000000D03*
X108000000Y-180500000D03*
X106500000Y-131000000D03*
X170000000Y-81000000D03*
X169000000Y-29000000D03*
%TO.N,Net-(D18-DOUT)*%
X123000000Y-36000000D03*
X130000000Y-31000000D03*
%TO.N,Net-(D17-DOUT)*%
X73000000Y-36000000D03*
X80000000Y-31000000D03*
%TO.N,Net-(D23-DOUT)*%
X179500000Y-81000000D03*
X173000000Y-85500000D03*
%TO.N,Net-(D31-DOUT)*%
X180000000Y-181000000D03*
X173000000Y-186000000D03*
%TO.N,Net-(D30-DOUT)*%
X130000000Y-181000000D03*
X123000000Y-186000000D03*
%TO.N,Net-(D29-DOUT)*%
X80000000Y-181000000D03*
X73000000Y-186000000D03*
%TO.N,Net-(D28-DOUT)*%
X168500000Y-135000000D03*
X122500000Y-159500000D03*
%TO.N,Net-(D27-DOUT)*%
X173000000Y-136000000D03*
X180000000Y-131000000D03*
%TO.N,Net-(D26-DOUT)*%
X130000000Y-131000000D03*
X123000000Y-136000000D03*
%TO.N,Net-(D25-DOUT)*%
X73000000Y-136000000D03*
X80000000Y-131000000D03*
%TO.N,Net-(D24-DOUT)*%
X73500000Y-114000000D03*
X162000000Y-89000000D03*
X129500000Y-95000000D03*
X170000000Y-84000000D03*
%TO.N,Net-(D21-DOUT)*%
X80000000Y-81000000D03*
X73000000Y-86000000D03*
%TO.N,Net-(D20-DOUT)*%
X35500000Y-31000000D03*
X165500000Y-28500000D03*
X30000000Y-80000000D03*
X140000000Y-22000000D03*
%TD*%
D16*
%TO.N,+3.3V*%
X95000000Y-81500000D02*
X95000000Y-84000000D01*
X95500000Y-81000000D02*
X95000000Y-81500000D01*
%TO.N,GPIOXX*%
X139000000Y-18000000D02*
X139000000Y-35000000D01*
%TO.N,SDA*%
X96000000Y-99500000D02*
X96500000Y-99500000D01*
X95000000Y-98500000D02*
X96000000Y-99500000D01*
X160500000Y-33000000D02*
X157500000Y-36000000D01*
X95500000Y-98000000D02*
X95000000Y-98500000D01*
X141500000Y-85000000D02*
X141399000Y-84899000D01*
X98500000Y-96500000D02*
X97000000Y-98000000D01*
X99500000Y-96500000D02*
X98500000Y-96500000D01*
X160500000Y-25000000D02*
X160500000Y-33000000D01*
X111101000Y-84899000D02*
X99500000Y-96500000D01*
X141399000Y-84899000D02*
X111101000Y-84899000D01*
X97000000Y-98000000D02*
X95500000Y-98000000D01*
%TO.N,SCL*%
X158500000Y-46000000D02*
X155000000Y-42500000D01*
X156500000Y-34500000D02*
X155000000Y-36000000D01*
X156500000Y-29000000D02*
X156500000Y-34500000D01*
X155000000Y-42500000D02*
X155000000Y-40500000D01*
%TO.N,CLRC663.ALIM*%
X100385017Y-104448770D02*
X102551230Y-104448770D01*
X99500000Y-85150057D02*
X97899000Y-86751057D01*
X107000000Y-102000000D02*
X106000000Y-103000000D01*
X93399000Y-101899000D02*
X96174265Y-104674265D01*
X102551230Y-104448770D02*
X104000000Y-103000000D01*
X105250000Y-98500000D02*
X107000000Y-100250000D01*
X106000000Y-103000000D02*
X104000000Y-103000000D01*
X96174265Y-104674265D02*
X97174265Y-104674265D01*
X97899000Y-86751057D02*
X97899000Y-87751057D01*
X97899000Y-87751057D02*
X93399000Y-92251057D01*
X99500000Y-81100000D02*
X99500000Y-85150057D01*
X140600000Y-40000000D02*
X99500000Y-81100000D01*
X107000000Y-100250000D02*
X107000000Y-102000000D01*
X93399000Y-92251057D02*
X93399000Y-101899000D01*
%TO.N,MCP23017.GPA3*%
X108300003Y-81000000D02*
X108300003Y-85699997D01*
X108300003Y-85699997D02*
X97500000Y-96500000D01*
%TO.N,MCP23017.GPA0*%
X103000000Y-81000000D02*
X103000000Y-83500000D01*
X103000000Y-83500000D02*
X94500000Y-92000000D01*
%TO.N,MCP23017.GPA2*%
X107500000Y-81000000D02*
X94000000Y-94500000D01*
%TO.N,MCP23017.GPA1*%
X103847527Y-81001000D02*
X103847527Y-83652473D01*
X103847527Y-83652473D02*
X94500000Y-93000000D01*
%TO.N,MCP23017.GPA4*%
X138500000Y-88000000D02*
X114500000Y-112000000D01*
X138500000Y-85500000D02*
X138500000Y-88000000D01*
%TO.N,MCP23017.GPA5*%
X139500000Y-88500000D02*
X115000000Y-113000000D01*
X139500000Y-85500000D02*
X139500000Y-88500000D01*
X115000000Y-113000000D02*
X114500000Y-113000000D01*
%TO.N,MCP23017.GPA6*%
X140500000Y-85500000D02*
X140500000Y-88500000D01*
X140500000Y-88500000D02*
X114500000Y-114500000D01*
%TO.N,ANT3+*%
X96500000Y-51500000D02*
X96500000Y-87600000D01*
X117000000Y-31000000D02*
X96500000Y-51500000D01*
%TO.N,ANT2+*%
X94500000Y-87000000D02*
X94500000Y-89000000D01*
X82000000Y-74500000D02*
X94500000Y-87000000D01*
X82000000Y-31000000D02*
X82000000Y-74500000D01*
%TO.N,ANT6+*%
X85000000Y-81000000D02*
X85500000Y-81500000D01*
X85500000Y-81500000D02*
X85500000Y-88500000D01*
%TO.N,ANT4+*%
X173000000Y-34150057D02*
X174101000Y-35251057D01*
X98966450Y-86966450D02*
X98932900Y-87000000D01*
X102000000Y-83500000D02*
X102000000Y-83932900D01*
X173000000Y-26000000D02*
X173000000Y-34150057D01*
X108389000Y-74611000D02*
X102000000Y-81000000D01*
X174101000Y-35251057D02*
X174101000Y-35748943D01*
X102000000Y-83932900D02*
X98966450Y-86966450D01*
X98932900Y-87000000D02*
X98500000Y-87000000D01*
X135238943Y-74611000D02*
X108389000Y-74611000D01*
X174101000Y-35748943D02*
X135238943Y-74611000D01*
X102000000Y-81000000D02*
X102000000Y-83500000D01*
%TO.N,ANT7+*%
X109000000Y-81100006D02*
X109000000Y-83000000D01*
X109100006Y-81000000D02*
X109000000Y-81100006D01*
%TO.N,CLRC663.TX1*%
X96500000Y-103500000D02*
X100850000Y-103500000D01*
%TO.N,ANT5+*%
X52500000Y-90500000D02*
X85000000Y-90500000D01*
X43000000Y-81000000D02*
X52500000Y-90500000D01*
%TO.N,ANT1+*%
X91000000Y-84500000D02*
X91000000Y-90000000D01*
X91000000Y-90000000D02*
X91000000Y-90500000D01*
X32000000Y-25500000D02*
X91000000Y-84500000D01*
%TO.N,ANT14+*%
X93000000Y-131000000D02*
X93000000Y-156000000D01*
X93000000Y-156000000D02*
X77500000Y-171500000D01*
%TO.N,ANT15+*%
X110500000Y-138000000D02*
X110500000Y-118000000D01*
X110500000Y-118000000D02*
X109000000Y-116500000D01*
%TO.N,ANT9+*%
X110399000Y-109399000D02*
X111000000Y-110000000D01*
X84000000Y-111000000D02*
X85601000Y-109399000D01*
X85601000Y-109399000D02*
X110399000Y-109399000D01*
%TO.N,ANT13+*%
X83500000Y-138000000D02*
X96500000Y-125000000D01*
%TO.N,ANT10+*%
X100500000Y-123500000D02*
X110000000Y-114000000D01*
X87000000Y-123500000D02*
X100500000Y-123500000D01*
X110000000Y-114000000D02*
X110000000Y-110000000D01*
%TO.N,CLRC663.RX*%
X103335554Y-102815917D02*
X103175734Y-102975737D01*
X103335554Y-101150000D02*
X103335554Y-102815917D01*
X108500000Y-103500000D02*
X108500000Y-104000000D01*
X108500000Y-104000000D02*
X105500000Y-107000000D01*
%TO.N,Net-(U1-XTAL1)*%
X105494669Y-97005331D02*
X106055331Y-96444669D01*
X104494669Y-97005331D02*
X105494669Y-97005331D01*
%TO.N,Net-(D19-DOUT)*%
X135000000Y-37000000D02*
X165000000Y-37000000D01*
X171000000Y-38000000D02*
X173500000Y-35500000D01*
X166000000Y-38000000D02*
X171000000Y-38000000D01*
X165500000Y-37500000D02*
X166000000Y-38000000D01*
X165000000Y-37000000D02*
X165500000Y-37500000D01*
%TO.N,+5V*%
X169975735Y-80975735D02*
X170000000Y-81000000D01*
X125975735Y-80975735D02*
X169975735Y-80975735D01*
%TO.N,Net-(D18-DOUT)*%
X130000000Y-32000000D02*
X130000000Y-31000000D01*
X126000000Y-33000000D02*
X129000000Y-33000000D01*
X129000000Y-33000000D02*
X130000000Y-32000000D01*
X123000000Y-36000000D02*
X126000000Y-33000000D01*
%TO.N,Net-(D17-DOUT)*%
X80000000Y-32000000D02*
X80000000Y-31000000D01*
X79000000Y-33000000D02*
X80000000Y-32000000D01*
X73000000Y-36000000D02*
X76000000Y-33000000D01*
X76000000Y-33000000D02*
X79000000Y-33000000D01*
%TO.N,Net-(D23-DOUT)*%
X176000000Y-82500000D02*
X179000000Y-82500000D01*
X179000000Y-82500000D02*
X179500000Y-82000000D01*
X179500000Y-82000000D02*
X179500000Y-81500000D01*
X179500000Y-81500000D02*
X179500000Y-81000000D01*
X175500000Y-83000000D02*
X176000000Y-82500000D01*
X173000000Y-85500000D02*
X175500000Y-83000000D01*
%TO.N,Net-(D31-DOUT)*%
X176000000Y-183000000D02*
X179000000Y-183000000D01*
X173000000Y-186000000D02*
X176000000Y-183000000D01*
X180000000Y-182000000D02*
X180000000Y-181000000D01*
X179000000Y-183000000D02*
X180000000Y-182000000D01*
%TO.N,Net-(D30-DOUT)*%
X130000000Y-182000000D02*
X130000000Y-181000000D01*
X126000000Y-183000000D02*
X129000000Y-183000000D01*
X129000000Y-183000000D02*
X130000000Y-182000000D01*
X123000000Y-186000000D02*
X126000000Y-183000000D01*
%TO.N,Net-(D29-DOUT)*%
X76000000Y-183000000D02*
X79000000Y-183000000D01*
X79000000Y-183000000D02*
X80000000Y-182000000D01*
X80000000Y-182000000D02*
X80000000Y-181000000D01*
X73000000Y-186000000D02*
X76000000Y-183000000D01*
%TO.N,Net-(D28-DOUT)*%
X122500000Y-159500000D02*
X144000000Y-159500000D01*
X144000000Y-159500000D02*
X168500000Y-135000000D01*
%TO.N,Net-(D27-DOUT)*%
X180000000Y-132000000D02*
X180000000Y-131000000D01*
X173000000Y-136000000D02*
X176000000Y-133000000D01*
X179000000Y-133000000D02*
X180000000Y-132000000D01*
X176000000Y-133000000D02*
X179000000Y-133000000D01*
%TO.N,Net-(D26-DOUT)*%
X129000000Y-133000000D02*
X130000000Y-132000000D01*
X130000000Y-132000000D02*
X130000000Y-131000000D01*
X123000000Y-136000000D02*
X126000000Y-133000000D01*
X126000000Y-133000000D02*
X129000000Y-133000000D01*
%TO.N,Net-(D25-DOUT)*%
X73000000Y-136000000D02*
X76000000Y-133000000D01*
X76000000Y-133000000D02*
X79000000Y-133000000D01*
X79000000Y-133000000D02*
X80000000Y-132000000D01*
X80000000Y-132000000D02*
X80000000Y-131000000D01*
%TO.N,Net-(D24-DOUT)*%
X116000000Y-95000000D02*
X129500000Y-95000000D01*
X81000000Y-106500000D02*
X104500000Y-106500000D01*
X167000000Y-84000000D02*
X170000000Y-84000000D01*
X73500000Y-114000000D02*
X81000000Y-106500000D01*
X162000000Y-89000000D02*
X167000000Y-84000000D01*
X104500000Y-106500000D02*
X116000000Y-95000000D01*
%TO.N,Net-(D21-DOUT)*%
X76000000Y-83000000D02*
X79000000Y-83000000D01*
X80000000Y-82000000D02*
X80000000Y-81000000D01*
X79000000Y-83000000D02*
X80000000Y-82000000D01*
X73000000Y-86000000D02*
X76000000Y-83000000D01*
%TO.N,Net-(D20-DOUT)*%
X140500000Y-22000000D02*
X140000000Y-22000000D01*
X159000000Y-22000000D02*
X140500000Y-22000000D01*
X31000000Y-80000000D02*
X30000000Y-80000000D01*
X35500000Y-31000000D02*
X35500000Y-75500000D01*
X165500000Y-28500000D02*
X159000000Y-22000000D01*
X35500000Y-75500000D02*
X31000000Y-80000000D01*
%TD*%
M02*
