M48
; DRILL file {KiCad 9.0.0} date 2025-03-24T21:43:18+0100
; FORMAT={-:-/ absolute / metric / decimal}
; #@! TF.CreationDate,2025-03-24T21:43:18+01:00
; #@! TF.GenerationSoftware,Kicad,Pcbnew,9.0.0
; #@! TF.FileFunction,Plated,1,4,PTH
FMAT,2
METRIC
; #@! TA.AperFunction,Plated,PTH,ViaDrill
T1C0.300
; #@! TA.AperFunction,Plated,PTH,ViaDrill
T2C0.600
; #@! TA.AperFunction,Plated,PTH,ComponentDrill
T3C0.950
; #@! TA.AperFunction,Plated,PTH,ComponentDrill
T4C1.000
%
G90
G05
T1
X2.5Y-52.5
X2.5Y-103.5
X2.5Y-153.5
X4.0Y-102.5
X7.0Y-152.5
X7.25Y-52.25
X7.5Y-2.5
X7.5Y-11.0
X7.5Y-12.5
X7.5Y-60.75
X7.5Y-68.0
X7.5Y-111.25
X7.5Y-116.0
X7.5Y-161.25
X7.5Y-176.0
X19.0Y-173.0
X19.5Y-23.0
X20.0Y-73.0
X20.0Y-123.0
X52.5Y-3.0
X52.5Y-52.5
X52.5Y-103.5
X52.5Y-153.5
X54.0Y-52.25
X57.0Y-102.5
X57.5Y-11.0
X57.5Y-17.5
X57.5Y-60.75
X57.5Y-63.0
X57.5Y-111.25
X57.5Y-114.5
X57.5Y-161.25
X57.5Y-169.0
X58.0Y-2.5
X67.5Y-152.5
X69.0Y-123.0
X69.0Y-173.0
X69.5Y-73.0
X70.0Y-23.0
X73.0Y-91.0
X79.0Y-10.5
X81.0Y-90.0
X82.0Y-89.0
X82.5Y-87.5
X85.0Y-74.0
X86.5Y-13.0
X86.5Y-18.5
X88.0Y-23.409
X88.0Y-26.0
X88.0Y-81.0
X89.0Y-86.0
X89.0Y-87.0
X90.0Y-124.999
X90.5Y-49.5
X90.687Y-91.313
X91.0Y-84.0
X91.0Y-89.0
X91.286Y-90.214
X91.5Y-21.0
X91.5Y-77.5
X91.75Y-72.934
X92.0Y-79.0
X92.0Y-84.5
X92.0Y-124.999
X92.5Y-35.0
X92.5Y-73.5
X92.75Y-74.999
X98.25Y-74.999
X98.25Y-96.5
X98.4Y-78.0
X98.5Y-93.0
X99.0Y-74.5
X99.0Y-77.0
X99.4Y-67.0
X99.4Y-68.0
X99.4Y-69.0
X100.0Y-74.999
X100.0Y-76.5
X100.0Y-104.0
X100.0Y-117.0
X101.0Y-76.5
X101.0Y-111.0
X101.35Y-74.999
X101.7Y-17.75
X102.0Y-74.0
X102.0Y-76.5
X102.5Y-3.0
X102.5Y-17.75
X102.5Y-49.5
X102.5Y-52.5
X102.5Y-103.5
X102.5Y-153.5
X102.75Y-31.0
X102.75Y-33.0
X103.297Y-101.4
X104.33Y-101.288
X107.0Y-98.0
X107.0Y-100.0
X107.5Y-11.0
X107.5Y-17.0
X107.5Y-60.75
X107.5Y-71.0
X107.5Y-111.25
X107.5Y-124.0
X107.5Y-161.25
X107.5Y-167.5
X108.5Y-37.0
X108.5Y-80.0
X108.7Y-79.0
X109.0Y-109.0
X109.0Y-111.0
X109.5Y-79.0
X112.497Y-108.0
X112.497Y-109.0
X112.5Y-99.5
X114.46Y-119.54
X114.5Y-107.5
X115.0Y-24.5
X115.0Y-119.0
X116.0Y-152.5
X116.5Y-117.5
X117.5Y-2.5
X119.0Y-173.0
X119.5Y-123.0
X121.0Y-23.0
X121.0Y-73.0
X121.0Y-109.0
X122.0Y-110.0
X123.0Y-120.0
X124.0Y-123.0
X130.0Y-120.0
X132.0Y-102.5
X133.0Y-123.0
X133.75Y-52.25
X152.5Y-3.5
X152.5Y-52.5
X152.5Y-103.5
X152.5Y-153.5
X157.5Y-11.0
X157.5Y-20.5
X157.5Y-60.75
X157.5Y-73.0
X157.5Y-111.25
X157.5Y-119.0
X157.5Y-161.25
X157.5Y-171.5
X159.0Y-102.5
X162.5Y-2.5
X162.5Y-152.5
X163.0Y-52.25
X169.5Y-23.0
X169.5Y-123.0
X169.5Y-173.0
X170.0Y-73.0
T2
X2.5Y-3.0
X30.0Y-77.5
X30.0Y-127.5
X30.5Y-177.0
X31.0Y-28.0
X70.5Y-175.5
X79.0Y-79.0
X79.5Y-27.5
X80.0Y-177.0
X80.5Y-127.5
X81.0Y-14.5
X85.5Y-92.0
X91.0Y-82.066
X93.597Y-101.403
X96.45Y-98.51
X101.5Y-106.5
X103.306Y-97.4
X106.0Y-101.0
X109.0Y-15.5
X109.0Y-35.5
X111.0Y-117.0
X119.0Y-108.0
X129.5Y-77.5
X130.0Y-177.0
X130.5Y-28.0
X130.5Y-127.5
X180.0Y-177.0
X180.5Y-28.0
X180.5Y-77.5
X180.5Y-127.5
T3
X99.5Y-11.0
X99.5Y-13.5
X99.5Y-16.0
X99.5Y-18.5
X99.5Y-21.0
X99.5Y-23.5
X99.5Y-26.0
T4
X91.0Y-25.46
X91.0Y-28.0
X91.0Y-30.54
X112.5Y-10.42
X112.5Y-12.96
X112.5Y-15.5
X112.62Y-22.185
X112.62Y-24.725
M30
