%TF.GenerationSoftware,KiCad,Pcbnew,9.0.0*%
%TF.CreationDate,2025-03-24T21:43:16+01:00*%
%TF.ProjectId,PCB_Chessboard,5043425f-4368-4657-9373-626f6172642e,rev?*%
%TF.SameCoordinates,Original*%
%TF.FileFunction,Paste,Top*%
%TF.FilePolarity,Positive*%
%FSLAX46Y46*%
G04 Gerber Fmt 4.6, Leading zero omitted, Abs format (unit mm)*
G04 Created by KiCad (PCBNEW 9.0.0) date 2025-03-24 21:43:16*
%MOMM*%
%LPD*%
G01*
G04 APERTURE LIST*
G04 Aperture macros list*
%AMRoundRect*
0 Rectangle with rounded corners*
0 $1 Rounding radius*
0 $2 $3 $4 $5 $6 $7 $8 $9 X,Y pos of 4 corners*
0 Add a 4 corners polygon primitive as box body*
4,1,4,$2,$3,$4,$5,$6,$7,$8,$9,$2,$3,0*
0 Add four circle primitives for the rounded corners*
1,1,$1+$1,$2,$3*
1,1,$1+$1,$4,$5*
1,1,$1+$1,$6,$7*
1,1,$1+$1,$8,$9*
0 Add four rect primitives between the rounded corners*
20,1,$1+$1,$2,$3,$4,$5,0*
20,1,$1+$1,$4,$5,$6,$7,0*
20,1,$1+$1,$6,$7,$8,$9,0*
20,1,$1+$1,$8,$9,$2,$3,0*%
G04 Aperture macros list end*
%ADD10RoundRect,0.140000X0.170000X-0.140000X0.170000X0.140000X-0.170000X0.140000X-0.170000X-0.140000X0*%
%ADD11RoundRect,0.090000X-0.660000X-0.360000X0.660000X-0.360000X0.660000X0.360000X-0.660000X0.360000X0*%
%ADD12RoundRect,0.140000X-0.170000X0.140000X-0.170000X-0.140000X0.170000X-0.140000X0.170000X0.140000X0*%
%ADD13RoundRect,0.207500X-0.207500X-0.207500X0.207500X-0.207500X0.207500X0.207500X-0.207500X0.207500X0*%
%ADD14RoundRect,0.062500X-0.375000X-0.062500X0.375000X-0.062500X0.375000X0.062500X-0.375000X0.062500X0*%
%ADD15RoundRect,0.062500X-0.062500X-0.375000X0.062500X-0.375000X0.062500X0.375000X-0.062500X0.375000X0*%
%ADD16R,0.800000X0.900000*%
%ADD17RoundRect,0.140000X-0.140000X-0.170000X0.140000X-0.170000X0.140000X0.170000X-0.140000X0.170000X0*%
%ADD18RoundRect,0.150000X-0.825000X-0.150000X0.825000X-0.150000X0.825000X0.150000X-0.825000X0.150000X0*%
%ADD19RoundRect,0.140000X0.140000X0.170000X-0.140000X0.170000X-0.140000X-0.170000X0.140000X-0.170000X0*%
%ADD20RoundRect,0.135000X0.135000X0.185000X-0.135000X0.185000X-0.135000X-0.185000X0.135000X-0.185000X0*%
%ADD21RoundRect,0.150000X0.875000X0.150000X-0.875000X0.150000X-0.875000X-0.150000X0.875000X-0.150000X0*%
%ADD22RoundRect,0.150000X-0.587500X-0.150000X0.587500X-0.150000X0.587500X0.150000X-0.587500X0.150000X0*%
%ADD23RoundRect,0.135000X-0.185000X0.135000X-0.185000X-0.135000X0.185000X-0.135000X0.185000X0.135000X0*%
G04 APERTURE END LIST*
D10*
%TO.C,C15*%
X104285519Y-102679528D03*
X104285519Y-103639528D03*
%TD*%
%TO.C,C13*%
X99500000Y-105520000D03*
X99500000Y-106480000D03*
%TD*%
D11*
%TO.C,D28*%
X177450000Y-123350000D03*
X177450000Y-126650000D03*
X172550000Y-126650000D03*
X172550000Y-123350000D03*
%TD*%
%TO.C,D18*%
X77450000Y-23350000D03*
X77450000Y-26650000D03*
X72550000Y-26650000D03*
X72550000Y-23350000D03*
%TD*%
%TO.C,D20*%
X177450000Y-23350000D03*
X177450000Y-26650000D03*
X172550000Y-26650000D03*
X172550000Y-23350000D03*
%TD*%
%TO.C,D19*%
X127450000Y-23350000D03*
X127450000Y-26650000D03*
X122550000Y-26650000D03*
X122550000Y-23350000D03*
%TD*%
%TO.C,D17*%
X27450000Y-23350000D03*
X27450000Y-26650000D03*
X22550000Y-26650000D03*
X22550000Y-23350000D03*
%TD*%
%TO.C,D30*%
X77450000Y-173350000D03*
X77450000Y-176650000D03*
X72550000Y-176650000D03*
X72550000Y-173350000D03*
%TD*%
%TO.C,D27*%
X127450000Y-123350000D03*
X127450000Y-126650000D03*
X122550000Y-126650000D03*
X122550000Y-123350000D03*
%TD*%
%TO.C,D23*%
X127450000Y-73350000D03*
X127450000Y-76650000D03*
X122550000Y-76650000D03*
X122550000Y-73350000D03*
%TD*%
%TO.C,D22*%
X77450000Y-73350000D03*
X77450000Y-76650000D03*
X72550000Y-76650000D03*
X72550000Y-73350000D03*
%TD*%
%TO.C,D29*%
X27450000Y-173350000D03*
X27450000Y-176650000D03*
X22550000Y-176650000D03*
X22550000Y-173350000D03*
%TD*%
D12*
%TO.C,C8*%
X69000000Y-175480000D03*
X69000000Y-174520000D03*
%TD*%
D11*
%TO.C,D26*%
X77450000Y-123350000D03*
X77450000Y-126650000D03*
X72550000Y-126650000D03*
X72550000Y-123350000D03*
%TD*%
%TO.C,D21*%
X27450000Y-73350000D03*
X27450000Y-76650000D03*
X22550000Y-76650000D03*
X22550000Y-73350000D03*
%TD*%
%TO.C,D32*%
X177450000Y-173350000D03*
X177450000Y-176650000D03*
X172550000Y-176650000D03*
X172550000Y-173350000D03*
%TD*%
%TO.C,D31*%
X127450000Y-173350000D03*
X127450000Y-176650000D03*
X122550000Y-176650000D03*
X122550000Y-173350000D03*
%TD*%
%TO.C,D25*%
X27450000Y-123350000D03*
X27450000Y-126650000D03*
X22550000Y-126650000D03*
X22550000Y-123350000D03*
%TD*%
%TO.C,D24*%
X177450000Y-73350000D03*
X177450000Y-76650000D03*
X172550000Y-76650000D03*
X172550000Y-73350000D03*
%TD*%
D10*
%TO.C,C22*%
X52500000Y-53520000D03*
X52500000Y-54480000D03*
%TD*%
D13*
%TO.C,U1*%
X98970000Y-98970000D03*
X98970000Y-100000000D03*
X98970000Y-101030000D03*
X100000000Y-98970000D03*
X100000000Y-100000000D03*
X100000000Y-101030000D03*
X101030000Y-98970000D03*
X101030000Y-100000000D03*
X101030000Y-101030000D03*
D14*
X97562500Y-98250000D03*
X97562500Y-98750000D03*
X97562500Y-99250000D03*
X97562500Y-99750000D03*
X97562500Y-100250000D03*
X97562500Y-100750000D03*
X97562500Y-101250000D03*
X97562500Y-101750000D03*
D15*
X98250000Y-102437500D03*
X98750000Y-102437500D03*
X99250000Y-102437500D03*
X99750000Y-102437500D03*
X100250000Y-102437500D03*
X100750000Y-102437500D03*
X101250000Y-102437500D03*
X101750000Y-102437500D03*
D14*
X102437500Y-101750000D03*
X102437500Y-101250000D03*
X102437500Y-100750000D03*
X102437500Y-100250000D03*
X102437500Y-99750000D03*
X102437500Y-99250000D03*
X102437500Y-98750000D03*
X102437500Y-98250000D03*
D15*
X101750000Y-97562500D03*
X101250000Y-97562500D03*
X100750000Y-97562500D03*
X100250000Y-97562500D03*
X99750000Y-97562500D03*
X99250000Y-97562500D03*
X98750000Y-97562500D03*
X98250000Y-97562500D03*
%TD*%
D16*
%TO.C,Y2*%
X104900000Y-94000000D03*
X104900000Y-95400000D03*
X106000000Y-95400000D03*
X106000000Y-94000000D03*
%TD*%
D10*
%TO.C,C20*%
X152500000Y-4980000D03*
X152500000Y-4020000D03*
%TD*%
%TO.C,C24*%
X152500000Y-54480000D03*
X152500000Y-53520000D03*
%TD*%
%TO.C,C27*%
X102500000Y-104980000D03*
X102500000Y-104020000D03*
%TD*%
%TO.C,C32*%
X152500000Y-155210000D03*
X152500000Y-154250000D03*
%TD*%
D17*
%TO.C,C9*%
X94040000Y-15500000D03*
X95000000Y-15500000D03*
%TD*%
D18*
%TO.C,U5*%
X87525000Y-88095000D03*
X87525000Y-85555000D03*
X87525000Y-86825000D03*
X87525000Y-89365000D03*
X87525000Y-90635000D03*
X87525000Y-91905000D03*
X87525000Y-93175000D03*
X87525000Y-94445000D03*
X92475000Y-94445000D03*
X92475000Y-93175000D03*
X92475000Y-91905000D03*
X92475000Y-90635000D03*
X92475000Y-89365000D03*
X92475000Y-88095000D03*
X92475000Y-86825000D03*
X92475000Y-85555000D03*
%TD*%
D19*
%TO.C,C7*%
X117960000Y-122500000D03*
X117000000Y-122500000D03*
%TD*%
D10*
%TO.C,C6*%
X102500000Y-4980000D03*
X102500000Y-4020000D03*
%TD*%
%TO.C,C10*%
X118000000Y-108000000D03*
X118000000Y-107040000D03*
%TD*%
D20*
%TO.C,R2*%
X94510000Y-20000000D03*
X93490000Y-20000000D03*
%TD*%
D10*
%TO.C,C5*%
X52500000Y-4980000D03*
X52500000Y-4020000D03*
%TD*%
%TO.C,C11*%
X97500000Y-106480000D03*
X97500000Y-105520000D03*
%TD*%
%TO.C,C28*%
X152500000Y-105210000D03*
X152500000Y-104250000D03*
%TD*%
%TO.C,C31*%
X102500000Y-155080000D03*
X102500000Y-154120000D03*
%TD*%
%TO.C,C29*%
X2500000Y-155210000D03*
X2500000Y-154250000D03*
%TD*%
D12*
%TO.C,C3*%
X81000000Y-15520000D03*
X81000000Y-16480000D03*
%TD*%
D10*
%TO.C,C2*%
X108620000Y-18205000D03*
X108620000Y-17245000D03*
%TD*%
D19*
%TO.C,C16*%
X104460000Y-105000000D03*
X103500000Y-105000000D03*
%TD*%
D21*
%TO.C,U3*%
X104650000Y-47255000D03*
X104650000Y-45985000D03*
X104650000Y-44715000D03*
X104650000Y-43445000D03*
X104650000Y-42175000D03*
X104650000Y-40905000D03*
X104650000Y-39635000D03*
X104650000Y-38365000D03*
X104650000Y-37095000D03*
X104650000Y-35825000D03*
X104650000Y-34555000D03*
X104650000Y-33285000D03*
X104650000Y-32015000D03*
X104650000Y-30745000D03*
X95350000Y-30745000D03*
X95350000Y-32015000D03*
X95350000Y-33285000D03*
X95350000Y-34555000D03*
X95350000Y-35825000D03*
X95350000Y-37095000D03*
X95350000Y-38365000D03*
X95350000Y-39635000D03*
X95350000Y-40905000D03*
X95350000Y-42175000D03*
X95350000Y-43445000D03*
X95350000Y-44715000D03*
X95350000Y-45985000D03*
X95350000Y-47255000D03*
%TD*%
D18*
%TO.C,U7*%
X111000000Y-106960000D03*
X111000000Y-108230000D03*
X111000000Y-109500000D03*
X111000000Y-110770000D03*
X111000000Y-112040000D03*
X111000000Y-113310000D03*
X111000000Y-114580000D03*
X111000000Y-115850000D03*
X115950000Y-115850000D03*
X115950000Y-114580000D03*
X115950000Y-113310000D03*
X115950000Y-112040000D03*
X115950000Y-110770000D03*
X115950000Y-109500000D03*
X115950000Y-108230000D03*
X115950000Y-106960000D03*
%TD*%
D19*
%TO.C,C17*%
X104980000Y-100500000D03*
X104020000Y-100500000D03*
%TD*%
D10*
%TO.C,C1*%
X94500000Y-86500000D03*
X94500000Y-85540000D03*
%TD*%
%TO.C,C14*%
X104480000Y-99480000D03*
X104480000Y-98520000D03*
%TD*%
D12*
%TO.C,C4*%
X2500000Y-4000000D03*
X2500000Y-4960000D03*
%TD*%
D10*
%TO.C,C21*%
X2500000Y-54500000D03*
X2500000Y-53540000D03*
%TD*%
%TO.C,C25*%
X2500000Y-104980000D03*
X2500000Y-104020000D03*
%TD*%
%TO.C,C12*%
X98500000Y-106480000D03*
X98500000Y-105520000D03*
%TD*%
D19*
%TO.C,C33*%
X101480000Y-105000000D03*
X100520000Y-105000000D03*
%TD*%
D10*
%TO.C,C30*%
X52500000Y-155210000D03*
X52500000Y-154250000D03*
%TD*%
%TO.C,C26*%
X52500000Y-105210000D03*
X52500000Y-104250000D03*
%TD*%
D22*
%TO.C,Q1*%
X84062500Y-15050000D03*
X84062500Y-16950000D03*
X85937500Y-16000000D03*
%TD*%
D23*
%TO.C,R1*%
X82437500Y-16030000D03*
X82437500Y-17050000D03*
%TD*%
D10*
%TO.C,C23*%
X102500000Y-54480000D03*
X102500000Y-53520000D03*
%TD*%
M02*
