%TF.GenerationSoftware,KiCad,Pcbnew,9.0.0*%
%TF.CreationDate,2025-03-24T21:43:16+01:00*%
%TF.ProjectId,PCB_Chessboard,5043425f-4368-4657-9373-626f6172642e,rev?*%
%TF.SameCoordinates,Original*%
%TF.FileFunction,Copper,L1,Top*%
%TF.FilePolarity,Positive*%
%FSLAX46Y46*%
G04 Gerber Fmt 4.6, Leading zero omitted, Abs format (unit mm)*
G04 Created by KiCad (PCBNEW 9.0.0) date 2025-03-24 21:43:16*
%MOMM*%
%LPD*%
G01*
G04 APERTURE LIST*
G04 Aperture macros list*
%AMRoundRect*
0 Rectangle with rounded corners*
0 $1 Rounding radius*
0 $2 $3 $4 $5 $6 $7 $8 $9 X,Y pos of 4 corners*
0 Add a 4 corners polygon primitive as box body*
4,1,4,$2,$3,$4,$5,$6,$7,$8,$9,$2,$3,0*
0 Add four circle primitives for the rounded corners*
1,1,$1+$1,$2,$3*
1,1,$1+$1,$4,$5*
1,1,$1+$1,$6,$7*
1,1,$1+$1,$8,$9*
0 Add four rect primitives between the rounded corners*
20,1,$1+$1,$2,$3,$4,$5,0*
20,1,$1+$1,$4,$5,$6,$7,0*
20,1,$1+$1,$6,$7,$8,$9,0*
20,1,$1+$1,$8,$9,$2,$3,0*%
G04 Aperture macros list end*
%TA.AperFunction,SMDPad,CuDef*%
%ADD10RoundRect,0.140000X0.170000X-0.140000X0.170000X0.140000X-0.170000X0.140000X-0.170000X-0.140000X0*%
%TD*%
%TA.AperFunction,SMDPad,CuDef*%
%ADD11RoundRect,0.090000X-0.660000X-0.360000X0.660000X-0.360000X0.660000X0.360000X-0.660000X0.360000X0*%
%TD*%
%TA.AperFunction,SMDPad,CuDef*%
%ADD12RoundRect,0.140000X-0.170000X0.140000X-0.170000X-0.140000X0.170000X-0.140000X0.170000X0.140000X0*%
%TD*%
%TA.AperFunction,ComponentPad*%
%ADD13RoundRect,0.250000X-0.725000X0.600000X-0.725000X-0.600000X0.725000X-0.600000X0.725000X0.600000X0*%
%TD*%
%TA.AperFunction,ComponentPad*%
%ADD14O,1.950000X1.700000*%
%TD*%
%TA.AperFunction,SMDPad,CuDef*%
%ADD15RoundRect,0.062500X-0.375000X-0.062500X0.375000X-0.062500X0.375000X0.062500X-0.375000X0.062500X0*%
%TD*%
%TA.AperFunction,SMDPad,CuDef*%
%ADD16RoundRect,0.062500X-0.062500X-0.375000X0.062500X-0.375000X0.062500X0.375000X-0.062500X0.375000X0*%
%TD*%
%TA.AperFunction,HeatsinkPad*%
%ADD17R,3.100000X3.100000*%
%TD*%
%TA.AperFunction,SMDPad,CuDef*%
%ADD18R,0.800000X0.900000*%
%TD*%
%TA.AperFunction,ComponentPad*%
%ADD19R,1.700000X1.700000*%
%TD*%
%TA.AperFunction,ComponentPad*%
%ADD20O,1.700000X1.700000*%
%TD*%
%TA.AperFunction,SMDPad,CuDef*%
%ADD21RoundRect,0.140000X-0.140000X-0.170000X0.140000X-0.170000X0.140000X0.170000X-0.140000X0.170000X0*%
%TD*%
%TA.AperFunction,SMDPad,CuDef*%
%ADD22RoundRect,0.150000X-0.825000X-0.150000X0.825000X-0.150000X0.825000X0.150000X-0.825000X0.150000X0*%
%TD*%
%TA.AperFunction,SMDPad,CuDef*%
%ADD23RoundRect,0.140000X0.140000X0.170000X-0.140000X0.170000X-0.140000X-0.170000X0.140000X-0.170000X0*%
%TD*%
%TA.AperFunction,SMDPad,CuDef*%
%ADD24RoundRect,0.135000X0.135000X0.185000X-0.135000X0.185000X-0.135000X-0.185000X0.135000X-0.185000X0*%
%TD*%
%TA.AperFunction,SMDPad,CuDef*%
%ADD25RoundRect,0.150000X0.875000X0.150000X-0.875000X0.150000X-0.875000X-0.150000X0.875000X-0.150000X0*%
%TD*%
%TA.AperFunction,SMDPad,CuDef*%
%ADD26RoundRect,0.150000X-0.587500X-0.150000X0.587500X-0.150000X0.587500X0.150000X-0.587500X0.150000X0*%
%TD*%
%TA.AperFunction,SMDPad,CuDef*%
%ADD27RoundRect,0.135000X-0.185000X0.135000X-0.185000X-0.135000X0.185000X-0.135000X0.185000X0.135000X0*%
%TD*%
%TA.AperFunction,ViaPad*%
%ADD28C,0.600000*%
%TD*%
%TA.AperFunction,ViaPad*%
%ADD29C,1.000000*%
%TD*%
%TA.AperFunction,Conductor*%
%ADD30C,0.200000*%
%TD*%
%TA.AperFunction,Conductor*%
%ADD31C,0.300000*%
%TD*%
%TA.AperFunction,Conductor*%
%ADD32C,0.500000*%
%TD*%
G04 APERTURE END LIST*
D10*
%TO.P,C15,2*%
%TO.N,CLRC663.ALIM*%
X104285519Y-102679528D03*
%TO.P,C15,1*%
%TO.N,GND*%
X104285519Y-103639528D03*
%TD*%
%TO.P,C13,2*%
%TO.N,CLRC663.ALIM*%
X99500000Y-105520000D03*
%TO.P,C13,1*%
%TO.N,GND*%
X99500000Y-106480000D03*
%TD*%
D11*
%TO.P,D28,4,DIN*%
%TO.N,Net-(D27-DOUT)*%
X177450000Y-123350000D03*
%TO.P,D28,3,VSS*%
%TO.N,GND*%
X177450000Y-126650000D03*
%TO.P,D28,2,DOUT*%
%TO.N,Net-(D28-DOUT)*%
X172550000Y-126650000D03*
%TO.P,D28,1,VDD*%
%TO.N,+5V*%
X172550000Y-123350000D03*
%TD*%
%TO.P,D18,4,DIN*%
%TO.N,Net-(D17-DOUT)*%
X77450000Y-23350000D03*
%TO.P,D18,3,VSS*%
%TO.N,GND*%
X77450000Y-26650000D03*
%TO.P,D18,2,DOUT*%
%TO.N,Net-(D18-DOUT)*%
X72550000Y-26650000D03*
%TO.P,D18,1,VDD*%
%TO.N,+5V*%
X72550000Y-23350000D03*
%TD*%
%TO.P,D20,4,DIN*%
%TO.N,Net-(D19-DOUT)*%
X177450000Y-23350000D03*
%TO.P,D20,3,VSS*%
%TO.N,GND*%
X177450000Y-26650000D03*
%TO.P,D20,2,DOUT*%
%TO.N,Net-(D20-DOUT)*%
X172550000Y-26650000D03*
%TO.P,D20,1,VDD*%
%TO.N,+5V*%
X172550000Y-23350000D03*
%TD*%
%TO.P,D19,4,DIN*%
%TO.N,Net-(D18-DOUT)*%
X127450000Y-23350000D03*
%TO.P,D19,3,VSS*%
%TO.N,GND*%
X127450000Y-26650000D03*
%TO.P,D19,2,DOUT*%
%TO.N,Net-(D19-DOUT)*%
X122550000Y-26650000D03*
%TO.P,D19,1,VDD*%
%TO.N,+5V*%
X122550000Y-23350000D03*
%TD*%
%TO.P,D17,4,DIN*%
%TO.N,Net-(D17-DIN)*%
X27450000Y-23350000D03*
%TO.P,D17,3,VSS*%
%TO.N,GND*%
X27450000Y-26650000D03*
%TO.P,D17,2,DOUT*%
%TO.N,Net-(D17-DOUT)*%
X22550000Y-26650000D03*
%TO.P,D17,1,VDD*%
%TO.N,+5V*%
X22550000Y-23350000D03*
%TD*%
%TO.P,D30,4,DIN*%
%TO.N,Net-(D29-DOUT)*%
X77450000Y-173350000D03*
%TO.P,D30,3,VSS*%
%TO.N,GND*%
X77450000Y-176650000D03*
%TO.P,D30,2,DOUT*%
%TO.N,Net-(D30-DOUT)*%
X72550000Y-176650000D03*
%TO.P,D30,1,VDD*%
%TO.N,+5V*%
X72550000Y-173350000D03*
%TD*%
%TO.P,D27,4,DIN*%
%TO.N,Net-(D26-DOUT)*%
X127450000Y-123350000D03*
%TO.P,D27,3,VSS*%
%TO.N,GND*%
X127450000Y-126650000D03*
%TO.P,D27,2,DOUT*%
%TO.N,Net-(D27-DOUT)*%
X122550000Y-126650000D03*
%TO.P,D27,1,VDD*%
%TO.N,+5V*%
X122550000Y-123350000D03*
%TD*%
%TO.P,D23,4,DIN*%
%TO.N,Net-(D22-DOUT)*%
X127450000Y-73350000D03*
%TO.P,D23,3,VSS*%
%TO.N,GND*%
X127450000Y-76650000D03*
%TO.P,D23,2,DOUT*%
%TO.N,Net-(D23-DOUT)*%
X122550000Y-76650000D03*
%TO.P,D23,1,VDD*%
%TO.N,+5V*%
X122550000Y-73350000D03*
%TD*%
%TO.P,D22,4,DIN*%
%TO.N,Net-(D21-DOUT)*%
X77450000Y-73350000D03*
%TO.P,D22,3,VSS*%
%TO.N,GND*%
X77450000Y-76650000D03*
%TO.P,D22,2,DOUT*%
%TO.N,Net-(D22-DOUT)*%
X72550000Y-76650000D03*
%TO.P,D22,1,VDD*%
%TO.N,+5V*%
X72550000Y-73350000D03*
%TD*%
%TO.P,D29,4,DIN*%
%TO.N,Net-(D28-DOUT)*%
X27450000Y-173350000D03*
%TO.P,D29,3,VSS*%
%TO.N,GND*%
X27450000Y-176650000D03*
%TO.P,D29,2,DOUT*%
%TO.N,Net-(D29-DOUT)*%
X22550000Y-176650000D03*
%TO.P,D29,1,VDD*%
%TO.N,+5V*%
X22550000Y-173350000D03*
%TD*%
D12*
%TO.P,C8,2*%
%TO.N,GND*%
X69000000Y-175480000D03*
%TO.P,C8,1*%
%TO.N,+5V*%
X69000000Y-174520000D03*
%TD*%
D11*
%TO.P,D26,4,DIN*%
%TO.N,Net-(D25-DOUT)*%
X77450000Y-123350000D03*
%TO.P,D26,3,VSS*%
%TO.N,GND*%
X77450000Y-126650000D03*
%TO.P,D26,2,DOUT*%
%TO.N,Net-(D26-DOUT)*%
X72550000Y-126650000D03*
%TO.P,D26,1,VDD*%
%TO.N,+5V*%
X72550000Y-123350000D03*
%TD*%
%TO.P,D21,4,DIN*%
%TO.N,Net-(D20-DOUT)*%
X27450000Y-73350000D03*
%TO.P,D21,3,VSS*%
%TO.N,GND*%
X27450000Y-76650000D03*
%TO.P,D21,2,DOUT*%
%TO.N,Net-(D21-DOUT)*%
X22550000Y-76650000D03*
%TO.P,D21,1,VDD*%
%TO.N,+5V*%
X22550000Y-73350000D03*
%TD*%
%TO.P,D32,4,DIN*%
%TO.N,Net-(D31-DOUT)*%
X177450000Y-173350000D03*
%TO.P,D32,3,VSS*%
%TO.N,GND*%
X177450000Y-176650000D03*
%TO.P,D32,2,DOUT*%
%TO.N,unconnected-(D32-DOUT-Pad2)*%
X172550000Y-176650000D03*
%TO.P,D32,1,VDD*%
%TO.N,+5V*%
X172550000Y-173350000D03*
%TD*%
%TO.P,D31,4,DIN*%
%TO.N,Net-(D30-DOUT)*%
X127450000Y-173350000D03*
%TO.P,D31,3,VSS*%
%TO.N,GND*%
X127450000Y-176650000D03*
%TO.P,D31,2,DOUT*%
%TO.N,Net-(D31-DOUT)*%
X122550000Y-176650000D03*
%TO.P,D31,1,VDD*%
%TO.N,+5V*%
X122550000Y-173350000D03*
%TD*%
%TO.P,D25,4,DIN*%
%TO.N,Net-(D24-DOUT)*%
X27450000Y-123350000D03*
%TO.P,D25,3,VSS*%
%TO.N,GND*%
X27450000Y-126650000D03*
%TO.P,D25,2,DOUT*%
%TO.N,Net-(D25-DOUT)*%
X22550000Y-126650000D03*
%TO.P,D25,1,VDD*%
%TO.N,+5V*%
X22550000Y-123350000D03*
%TD*%
%TO.P,D24,4,DIN*%
%TO.N,Net-(D23-DOUT)*%
X177450000Y-73350000D03*
%TO.P,D24,3,VSS*%
%TO.N,GND*%
X177450000Y-76650000D03*
%TO.P,D24,2,DOUT*%
%TO.N,Net-(D24-DOUT)*%
X172550000Y-76650000D03*
%TO.P,D24,1,VDD*%
%TO.N,+5V*%
X172550000Y-73350000D03*
%TD*%
D10*
%TO.P,C22,2*%
%TO.N,ANT1+*%
X52500000Y-53520000D03*
%TO.P,C22,1*%
X52500000Y-54480000D03*
%TD*%
D13*
%TO.P,JQ1,1,Pin_1*%
%TO.N,SDA*%
X99500000Y-11000000D03*
D14*
%TO.P,JQ1,2,Pin_2*%
%TO.N,SCL*%
X99500000Y-13500000D03*
%TO.P,JQ1,3,Pin_3*%
%TO.N,GND*%
X99500000Y-16000000D03*
%TO.P,JQ1,4,Pin_4*%
%TO.N,+3.3V*%
X99500000Y-18500000D03*
%TO.P,JQ1,5,Pin_5*%
%TO.N,+5V*%
X99500000Y-21000000D03*
%TO.P,JQ1,6,Pin_6*%
%TO.N,LED.DIN*%
X99500000Y-23500000D03*
%TO.P,JQ1,7,Pin_7*%
%TO.N,GPIOXX*%
X99500000Y-26000000D03*
%TD*%
D15*
%TO.P,U1,1,IRQ*%
%TO.N,MCP23017.GPA3*%
X97562500Y-98250000D03*
%TO.P,U1,2,IFSEL0*%
%TO.N,GND*%
X97562500Y-98750000D03*
%TO.P,U1,3,IFSEL1*%
X97562500Y-99250000D03*
%TO.P,U1,4,IF0/SDA*%
%TO.N,SDA*%
X97562500Y-99750000D03*
%TO.P,U1,5,IF1/SCL*%
%TO.N,SCL*%
X97562500Y-100250000D03*
%TO.P,U1,6,IF2*%
%TO.N,unconnected-(U1-IF2-Pad6)*%
X97562500Y-100750000D03*
%TO.P,U1,7,IF3*%
%TO.N,unconnected-(U1-IF3-Pad7)*%
X97562500Y-101250000D03*
%TO.P,U1,8,SIGIN*%
%TO.N,unconnected-(U1-SIGIN-Pad8)*%
X97562500Y-101750000D03*
D16*
%TO.P,U1,9,SIGOUT*%
%TO.N,unconnected-(U1-SIGOUT-Pad9)*%
X98250000Y-102437500D03*
%TO.P,U1,10,VSS*%
%TO.N,GND*%
X98750000Y-102437500D03*
%TO.P,U1,11,VDD*%
%TO.N,CLRC663.ALIM*%
X99250000Y-102437500D03*
%TO.P,U1,12,PVDD*%
X99750000Y-102437500D03*
%TO.P,U1,13,TVDD*%
X100250000Y-102437500D03*
%TO.P,U1,14,TX1*%
%TO.N,ANT1+*%
X100750000Y-102437500D03*
%TO.P,U1,15,TVSS*%
%TO.N,GND*%
X101250000Y-102437500D03*
%TO.P,U1,16,TX2*%
%TO.N,Net-(U1-TX2)*%
X101750000Y-102437500D03*
D15*
%TO.P,U1,17,TVDD*%
%TO.N,CLRC663.ALIM*%
X102437500Y-101750000D03*
%TO.P,U1,18,RX*%
%TO.N,ANT10+*%
X102437500Y-101250000D03*
%TO.P,U1,19,VMID*%
%TO.N,Net-(U1-VMID)*%
X102437500Y-100750000D03*
%TO.P,U1,20,AUX1*%
%TO.N,unconnected-(U1-AUX1-Pad20)*%
X102437500Y-100250000D03*
%TO.P,U1,21,AUX2*%
%TO.N,unconnected-(U1-AUX2-Pad21)*%
X102437500Y-99750000D03*
%TO.P,U1,22,VSS*%
%TO.N,GND*%
X102437500Y-99250000D03*
%TO.P,U1,23,VDD*%
%TO.N,CLRC663.ALIM*%
X102437500Y-98750000D03*
%TO.P,U1,24,XTAL1*%
%TO.N,Net-(U1-XTAL1)*%
X102437500Y-98250000D03*
D16*
%TO.P,U1,25,XTAL2*%
%TO.N,Net-(U1-XTAL2)*%
X101750000Y-97562500D03*
%TO.P,U1,26,TEST1*%
%TO.N,unconnected-(U1-TEST1-Pad26)*%
X101250000Y-97562500D03*
%TO.P,U1,27,TEST2*%
%TO.N,unconnected-(U1-TEST2-Pad27)*%
X100750000Y-97562500D03*
%TO.P,U1,28,TEST3*%
%TO.N,unconnected-(U1-TEST3-Pad28)*%
X100250000Y-97562500D03*
%TO.P,U1,29,TEST4*%
%TO.N,unconnected-(U1-TEST4-Pad29)*%
X99750000Y-97562500D03*
%TO.P,U1,30,TEST5*%
%TO.N,unconnected-(U1-TEST5-Pad30)*%
X99250000Y-97562500D03*
%TO.P,U1,31,TEST6*%
%TO.N,unconnected-(U1-TEST6-Pad31)*%
X98750000Y-97562500D03*
%TO.P,U1,32,TEST7*%
%TO.N,unconnected-(U1-TEST7-Pad32)*%
X98250000Y-97562500D03*
D17*
%TO.P,U1,33*%
%TO.N,N/C*%
X100000000Y-100000000D03*
%TD*%
D18*
%TO.P,Y2,1,1*%
%TO.N,Net-(U1-XTAL2)*%
X104900000Y-94000000D03*
%TO.P,Y2,2,2*%
%TO.N,GND*%
X104900000Y-95400000D03*
%TO.P,Y2,3,3*%
%TO.N,Net-(U1-XTAL1)*%
X106000000Y-95400000D03*
%TO.P,Y2,4*%
%TO.N,N/C*%
X106000000Y-94000000D03*
%TD*%
D19*
%TO.P,J18,1,Pin_1*%
%TO.N,+3.3V*%
X112620000Y-22185000D03*
D20*
%TO.P,J18,2,Pin_2*%
X112620000Y-24725000D03*
%TD*%
D10*
%TO.P,C20,1*%
%TO.N,ANT1+*%
X152500000Y-4980000D03*
%TO.P,C20,2*%
X152500000Y-4020000D03*
%TD*%
%TO.P,C24,1*%
%TO.N,ANT1+*%
X152500000Y-54480000D03*
%TO.P,C24,2*%
X152500000Y-53520000D03*
%TD*%
%TO.P,C27,1*%
%TO.N,ANT10+*%
X102500000Y-104980000D03*
%TO.P,C27,2*%
X102500000Y-104020000D03*
%TD*%
%TO.P,C32,1*%
%TO.N,ANT10+*%
X152500000Y-155210000D03*
%TO.P,C32,2*%
X152500000Y-154250000D03*
%TD*%
D21*
%TO.P,C9,1*%
%TO.N,+5V*%
X94040000Y-15500000D03*
%TO.P,C9,2*%
%TO.N,GND*%
X95000000Y-15500000D03*
%TD*%
D22*
%TO.P,U5,3,COM*%
%TO.N,ANT1+*%
X87525000Y-88095000D03*
%TO.P,U5,1,X7*%
X87525000Y-85555000D03*
%TO.P,U5,2,X6*%
X87525000Y-86825000D03*
%TO.P,U5,4,X5*%
X87525000Y-89365000D03*
%TO.P,U5,5,X4*%
X87525000Y-90635000D03*
%TO.P,U5,6,INH*%
%TO.N,GND*%
X87525000Y-91905000D03*
%TO.P,U5,7,VEE*%
X87525000Y-93175000D03*
%TO.P,U5,8,VSS*%
X87525000Y-94445000D03*
%TO.P,U5,9,C*%
%TO.N,MCP23017.GPA2*%
X92475000Y-94445000D03*
%TO.P,U5,10,B*%
%TO.N,MCP23017.GPA1*%
X92475000Y-93175000D03*
%TO.P,U5,11,A*%
%TO.N,MCP23017.GPA0*%
X92475000Y-91905000D03*
%TO.P,U5,12,X0*%
%TO.N,ANT1+*%
X92475000Y-90635000D03*
%TO.P,U5,13,X1*%
X92475000Y-89365000D03*
%TO.P,U5,14,X2*%
X92475000Y-88095000D03*
%TO.P,U5,15,X3*%
X92475000Y-86825000D03*
%TO.P,U5,16,VCC*%
%TO.N,+3.3V*%
X92475000Y-85555000D03*
%TD*%
D23*
%TO.P,C7,1*%
%TO.N,+5V*%
X117960000Y-122500000D03*
%TO.P,C7,2*%
%TO.N,GND*%
X117000000Y-122500000D03*
%TD*%
D10*
%TO.P,C6,1*%
%TO.N,ANT1+*%
X102500000Y-4980000D03*
%TO.P,C6,2*%
X102500000Y-4020000D03*
%TD*%
D19*
%TO.P,J19,1,Pin_1*%
%TO.N,GND*%
X112500000Y-10420000D03*
D20*
%TO.P,J19,2,Pin_2*%
X112500000Y-12960000D03*
%TO.P,J19,3,Pin_3*%
X112500000Y-15500000D03*
%TD*%
D10*
%TO.P,C10,1*%
%TO.N,GND*%
X118000000Y-108000000D03*
%TO.P,C10,2*%
%TO.N,+3.3V*%
X118000000Y-107040000D03*
%TD*%
D24*
%TO.P,R2,1*%
%TO.N,LED.DIN*%
X94510000Y-20000000D03*
%TO.P,R2,2*%
%TO.N,Net-(D17-DIN)*%
X93490000Y-20000000D03*
%TD*%
D10*
%TO.P,C5,1*%
%TO.N,ANT1+*%
X52500000Y-4980000D03*
%TO.P,C5,2*%
X52500000Y-4020000D03*
%TD*%
D19*
%TO.P,J20,1,Pin_1*%
%TO.N,MCP23017.A0*%
X91000000Y-25460000D03*
D20*
%TO.P,J20,2,Pin_2*%
%TO.N,MCP23017.A1*%
X91000000Y-28000000D03*
%TO.P,J20,3,Pin_3*%
%TO.N,MCP23017.A2*%
X91000000Y-30540000D03*
%TD*%
D10*
%TO.P,C11,1*%
%TO.N,GND*%
X97500000Y-106480000D03*
%TO.P,C11,2*%
%TO.N,CLRC663.ALIM*%
X97500000Y-105520000D03*
%TD*%
%TO.P,C28,1*%
%TO.N,ANT10+*%
X152500000Y-105210000D03*
%TO.P,C28,2*%
X152500000Y-104250000D03*
%TD*%
%TO.P,C31,1*%
%TO.N,ANT10+*%
X102500000Y-155080000D03*
%TO.P,C31,2*%
X102500000Y-154120000D03*
%TD*%
%TO.P,C29,1*%
%TO.N,ANT10+*%
X2500000Y-155210000D03*
%TO.P,C29,2*%
X2500000Y-154250000D03*
%TD*%
D12*
%TO.P,C3,1*%
%TO.N,GND*%
X81000000Y-15520000D03*
%TO.P,C3,2*%
%TO.N,+3.3V*%
X81000000Y-16480000D03*
%TD*%
D10*
%TO.P,C2,1*%
%TO.N,+3.3V*%
X108620000Y-18205000D03*
%TO.P,C2,2*%
%TO.N,GND*%
X108620000Y-17245000D03*
%TD*%
D23*
%TO.P,C16,1*%
%TO.N,GND*%
X104460000Y-105000000D03*
%TO.P,C16,2*%
%TO.N,Net-(U1-TX2)*%
X103500000Y-105000000D03*
%TD*%
D25*
%TO.P,U3,1,GPB0*%
%TO.N,unconnected-(U3-GPB0-Pad1)*%
X104650000Y-47255000D03*
%TO.P,U3,2,GPB1*%
%TO.N,unconnected-(U3-GPB1-Pad2)*%
X104650000Y-45985000D03*
%TO.P,U3,3,GPB2*%
%TO.N,unconnected-(U3-GPB2-Pad3)*%
X104650000Y-44715000D03*
%TO.P,U3,4,GPB3*%
%TO.N,unconnected-(U3-GPB3-Pad4)*%
X104650000Y-43445000D03*
%TO.P,U3,5,GPB4*%
%TO.N,unconnected-(U3-GPB4-Pad5)*%
X104650000Y-42175000D03*
%TO.P,U3,6,GPB5*%
%TO.N,unconnected-(U3-GPB5-Pad6)*%
X104650000Y-40905000D03*
%TO.P,U3,7,GPB6*%
%TO.N,unconnected-(U3-GPB6-Pad7)*%
X104650000Y-39635000D03*
%TO.P,U3,8,GPB7*%
%TO.N,unconnected-(U3-GPB7-Pad8)*%
X104650000Y-38365000D03*
%TO.P,U3,9,VDD*%
%TO.N,+3.3V*%
X104650000Y-37095000D03*
%TO.P,U3,10,VSS*%
%TO.N,GND*%
X104650000Y-35825000D03*
%TO.P,U3,11,NC*%
%TO.N,unconnected-(U3-NC-Pad11)*%
X104650000Y-34555000D03*
%TO.P,U3,12,SCK*%
%TO.N,SCL*%
X104650000Y-33285000D03*
%TO.P,U3,13,SDA*%
%TO.N,SDA*%
X104650000Y-32015000D03*
%TO.P,U3,14,NC*%
%TO.N,unconnected-(U3-NC-Pad14)*%
X104650000Y-30745000D03*
%TO.P,U3,15,A0*%
%TO.N,MCP23017.A0*%
X95350000Y-30745000D03*
%TO.P,U3,16,A1*%
%TO.N,MCP23017.A1*%
X95350000Y-32015000D03*
%TO.P,U3,17,A2*%
%TO.N,MCP23017.A2*%
X95350000Y-33285000D03*
%TO.P,U3,18,~{RESET}*%
%TO.N,+3.3V*%
X95350000Y-34555000D03*
%TO.P,U3,19,INTB*%
%TO.N,unconnected-(U3-INTB-Pad19)*%
X95350000Y-35825000D03*
%TO.P,U3,20,INTA*%
%TO.N,unconnected-(U3-INTA-Pad20)*%
X95350000Y-37095000D03*
%TO.P,U3,21,GPA0*%
%TO.N,MCP23017.GPA0*%
X95350000Y-38365000D03*
%TO.P,U3,22,GPA1*%
%TO.N,MCP23017.GPA1*%
X95350000Y-39635000D03*
%TO.P,U3,23,GPA2*%
%TO.N,MCP23017.GPA2*%
X95350000Y-40905000D03*
%TO.P,U3,24,GPA3*%
%TO.N,MCP23017.GPA3*%
X95350000Y-42175000D03*
%TO.P,U3,25,GPA4*%
%TO.N,MCP23017.GPA4*%
X95350000Y-43445000D03*
%TO.P,U3,26,GPA5*%
%TO.N,MCP23017.GPA5*%
X95350000Y-44715000D03*
%TO.P,U3,27,GPA6*%
%TO.N,MCP23017.GPA6*%
X95350000Y-45985000D03*
%TO.P,U3,28,GPA7*%
%TO.N,unconnected-(U3-GPA7-Pad28)*%
X95350000Y-47255000D03*
%TD*%
D22*
%TO.P,U7,1,X7*%
%TO.N,ANT10+*%
X111000000Y-106960000D03*
%TO.P,U7,2,X6*%
X111000000Y-108230000D03*
%TO.P,U7,3,COM*%
X111000000Y-109500000D03*
%TO.P,U7,4,X5*%
X111000000Y-110770000D03*
%TO.P,U7,5,X4*%
X111000000Y-112040000D03*
%TO.P,U7,6,INH*%
%TO.N,GND*%
X111000000Y-113310000D03*
%TO.P,U7,7,VEE*%
X111000000Y-114580000D03*
%TO.P,U7,8,VSS*%
X111000000Y-115850000D03*
%TO.P,U7,9,C*%
%TO.N,MCP23017.GPA6*%
X115950000Y-115850000D03*
%TO.P,U7,10,B*%
%TO.N,MCP23017.GPA5*%
X115950000Y-114580000D03*
%TO.P,U7,11,A*%
%TO.N,MCP23017.GPA4*%
X115950000Y-113310000D03*
%TO.P,U7,12,X0*%
%TO.N,ANT10+*%
X115950000Y-112040000D03*
%TO.P,U7,13,X1*%
X115950000Y-110770000D03*
%TO.P,U7,14,X2*%
X115950000Y-109500000D03*
%TO.P,U7,15,X3*%
X115950000Y-108230000D03*
%TO.P,U7,16,VCC*%
%TO.N,+3.3V*%
X115950000Y-106960000D03*
%TD*%
D23*
%TO.P,C17,1*%
%TO.N,GND*%
X104980000Y-100500000D03*
%TO.P,C17,2*%
%TO.N,Net-(U1-VMID)*%
X104020000Y-100500000D03*
%TD*%
D10*
%TO.P,C1,1*%
%TO.N,GND*%
X94500000Y-86500000D03*
%TO.P,C1,2*%
%TO.N,+3.3V*%
X94500000Y-85540000D03*
%TD*%
%TO.P,C14,1*%
%TO.N,GND*%
X104480000Y-99480000D03*
%TO.P,C14,2*%
%TO.N,CLRC663.ALIM*%
X104480000Y-98520000D03*
%TD*%
D12*
%TO.P,C4,1*%
%TO.N,ANT1+*%
X2500000Y-4000000D03*
%TO.P,C4,2*%
X2500000Y-4960000D03*
%TD*%
D10*
%TO.P,C21,1*%
%TO.N,ANT1+*%
X2500000Y-54500000D03*
%TO.P,C21,2*%
X2500000Y-53540000D03*
%TD*%
%TO.P,C25,1*%
%TO.N,ANT10+*%
X2500000Y-104980000D03*
%TO.P,C25,2*%
X2500000Y-104020000D03*
%TD*%
%TO.P,C12,1*%
%TO.N,GND*%
X98500000Y-106480000D03*
%TO.P,C12,2*%
%TO.N,CLRC663.ALIM*%
X98500000Y-105520000D03*
%TD*%
D23*
%TO.P,C33,1*%
%TO.N,GND*%
X101480000Y-105000000D03*
%TO.P,C33,2*%
%TO.N,ANT1+*%
X100520000Y-105000000D03*
%TD*%
D10*
%TO.P,C30,1*%
%TO.N,ANT10+*%
X52500000Y-155210000D03*
%TO.P,C30,2*%
X52500000Y-154250000D03*
%TD*%
%TO.P,C26,1*%
%TO.N,ANT10+*%
X52500000Y-105210000D03*
%TO.P,C26,2*%
X52500000Y-104250000D03*
%TD*%
D26*
%TO.P,Q1,1,G*%
%TO.N,GPIOXX*%
X84062500Y-15050000D03*
%TO.P,Q1,2,S*%
%TO.N,+3.3V*%
X84062500Y-16950000D03*
%TO.P,Q1,3,D*%
%TO.N,CLRC663.ALIM*%
X85937500Y-16000000D03*
%TD*%
D27*
%TO.P,R1,1*%
%TO.N,GPIOXX*%
X82437500Y-16030000D03*
%TO.P,R1,2*%
%TO.N,+3.3V*%
X82437500Y-17050000D03*
%TD*%
D10*
%TO.P,C23,1*%
%TO.N,ANT1+*%
X102500000Y-54480000D03*
%TO.P,C23,2*%
X102500000Y-53520000D03*
%TD*%
D28*
%TO.N,ANT10+*%
X92000000Y-124999000D03*
X100000000Y-117000000D03*
%TO.N,ANT1+*%
X85000000Y-74000000D03*
X91750000Y-72934313D03*
%TO.N,CLRC663.ALIM*%
X100000000Y-104000000D03*
%TO.N,ANT10+*%
X162500000Y-152500000D03*
X133000000Y-123000000D03*
X112497000Y-108000000D03*
X130000000Y-120000000D03*
X116000000Y-152500000D03*
X124000000Y-123000000D03*
X123000000Y-120000000D03*
X112497000Y-109000000D03*
X107500000Y-167500000D03*
X157500000Y-171500000D03*
X67500000Y-152500000D03*
X109000000Y-111000000D03*
X57500000Y-169000000D03*
X7500000Y-176000000D03*
X7000000Y-152500000D03*
X90000000Y-124999000D03*
X157500000Y-119000000D03*
X159000000Y-102500000D03*
X121000000Y-109000000D03*
X107500000Y-124000000D03*
X132000000Y-102500000D03*
X122000000Y-110000000D03*
X57500000Y-114500000D03*
X57000000Y-102500000D03*
X114459620Y-119540380D03*
X7500000Y-116000000D03*
X115000000Y-119000000D03*
X4000000Y-102500000D03*
X116500000Y-117500000D03*
X109000000Y-109000000D03*
X103296544Y-101400000D03*
%TO.N,CLRC663.ALIM*%
X104330000Y-101288384D03*
%TO.N,ANT1+*%
X157500000Y-73000000D03*
X163000000Y-52250000D03*
X89000000Y-86000000D03*
X107500000Y-71000000D03*
X133750000Y-52250000D03*
X89000000Y-87000000D03*
X73000000Y-91000000D03*
X7500000Y-68000000D03*
X81000000Y-90000000D03*
X57500000Y-63000000D03*
X54000000Y-52250000D03*
X82000000Y-89000000D03*
X7250000Y-52250000D03*
X157500000Y-20500000D03*
X90687251Y-91312749D03*
X162500000Y-2500000D03*
X91000000Y-84000000D03*
X107500000Y-17000000D03*
X117500000Y-2500000D03*
X92000000Y-79000000D03*
X88000000Y-81000000D03*
X91000000Y-89000000D03*
X57500000Y-17500000D03*
X58000000Y-2500000D03*
X7500000Y-12500000D03*
X82500000Y-87500000D03*
X7500000Y-2500000D03*
X91285781Y-90214219D03*
D29*
%TO.N,GND*%
X101500000Y-106500000D03*
X93596911Y-101403089D03*
D28*
%TO.N,CLRC663.ALIM*%
X107000000Y-100000000D03*
X107000000Y-98000000D03*
X92500000Y-73500000D03*
X88000000Y-26000000D03*
X88000000Y-23409000D03*
%TO.N,+3.3V*%
X86500000Y-18500000D03*
%TO.N,MCP23017.GPA0*%
X91500000Y-77500000D03*
X92750000Y-74999000D03*
%TO.N,MCP23017.GPA1*%
X98400000Y-78000000D03*
X98250000Y-74999000D03*
%TO.N,MCP23017.GPA2*%
X99000000Y-77000000D03*
X99000000Y-74500000D03*
%TO.N,MCP23017.GPA6*%
X108500000Y-80000000D03*
X99400000Y-69000000D03*
%TO.N,MCP23017.GPA5*%
X108699997Y-79000000D03*
X99400000Y-68000000D03*
%TO.N,MCP23017.GPA4*%
X109500000Y-79000000D03*
X99400000Y-67000000D03*
%TO.N,MCP23017.GPA3*%
X100000000Y-74999000D03*
X98250000Y-96500000D03*
X98500000Y-93000000D03*
X100000000Y-76500000D03*
%TO.N,+3.3V*%
X114500000Y-107500000D03*
D29*
%TO.N,GND*%
X103306498Y-97400001D03*
D28*
%TO.N,Net-(D24-DOUT)*%
X112500000Y-99500000D03*
X101000000Y-111000000D03*
%TO.N,Net-(D20-DOUT)*%
X90500000Y-49500000D03*
X102500000Y-49500000D03*
%TO.N,SCL*%
X101350000Y-74999000D03*
X101000000Y-76500000D03*
%TO.N,SDA*%
X102000000Y-74000000D03*
X102000000Y-76500000D03*
D29*
%TO.N,GND*%
X96450498Y-98510498D03*
X106000000Y-101000000D03*
X70500000Y-175500000D03*
X109000000Y-35500000D03*
D28*
%TO.N,+3.3V*%
X115000000Y-24500000D03*
X108500000Y-37000000D03*
D29*
%TO.N,GND*%
X30000000Y-127500000D03*
D28*
%TO.N,+5V*%
X19500000Y-23000000D03*
D29*
%TO.N,GND*%
X30000000Y-77500000D03*
X79000000Y-79000000D03*
X130500000Y-28000000D03*
D28*
%TO.N,+5V*%
X69000000Y-123000000D03*
D29*
%TO.N,GND*%
X180500000Y-28000000D03*
X80500000Y-127500000D03*
X30500000Y-177000000D03*
D28*
%TO.N,+5V*%
X121000000Y-73000000D03*
D29*
%TO.N,GND*%
X180500000Y-127500000D03*
D28*
%TO.N,+5V*%
X169500000Y-123000000D03*
X19000000Y-173000000D03*
X169500000Y-173000000D03*
D29*
%TO.N,GND*%
X130000000Y-177000000D03*
D28*
%TO.N,+5V*%
X169500000Y-23000000D03*
X70000000Y-23000000D03*
X20000000Y-73000000D03*
X69000000Y-173000000D03*
X119000000Y-173000000D03*
D29*
%TO.N,GND*%
X180000000Y-177000000D03*
D28*
%TO.N,+5V*%
X121000000Y-23000000D03*
X69500000Y-73000000D03*
X170000000Y-73000000D03*
X20000000Y-123000000D03*
X119500000Y-123000000D03*
D29*
%TO.N,GND*%
X80000000Y-177000000D03*
X130500000Y-127500000D03*
X180500000Y-77500000D03*
X129500000Y-77500000D03*
X31000000Y-28000000D03*
X79500000Y-27500000D03*
X111000000Y-117000000D03*
X119000000Y-108000000D03*
X85500000Y-92000000D03*
X91000000Y-82065686D03*
D28*
%TO.N,+3.3V*%
X92000000Y-84500000D03*
%TO.N,SCL*%
X102750000Y-33000000D03*
X101699997Y-17750000D03*
%TO.N,SDA*%
X102500000Y-17750000D03*
X102750000Y-31000000D03*
D29*
%TO.N,GND*%
X109000000Y-15500000D03*
D28*
%TO.N,+3.3V*%
X92500000Y-35000000D03*
D29*
%TO.N,GND*%
X81000000Y-14500000D03*
D28*
%TO.N,+5V*%
X79000000Y-10500000D03*
%TO.N,ANT10+*%
X157500000Y-161250000D03*
X152500000Y-153500000D03*
X52500000Y-153500000D03*
X102500000Y-153500000D03*
X107500000Y-161250000D03*
X57500000Y-161250000D03*
X7500000Y-161250000D03*
X2500000Y-153500000D03*
X157500000Y-111250000D03*
X152500000Y-103500000D03*
X102500000Y-103500000D03*
X107500000Y-111250000D03*
X57500000Y-111250000D03*
X52500000Y-103500000D03*
%TO.N,ANT1+*%
X157500000Y-60750000D03*
X107500000Y-60750000D03*
X57500000Y-60750000D03*
X7500000Y-60750000D03*
X107500000Y-11000000D03*
X102500000Y-3000000D03*
X57500000Y-11000000D03*
X52500000Y-3000000D03*
X157500000Y-11000000D03*
X152500000Y-3500000D03*
%TO.N,ANT10+*%
X7500000Y-111250000D03*
X2500000Y-103500000D03*
%TO.N,ANT1+*%
X152500000Y-52500000D03*
X102500000Y-52500000D03*
X52500000Y-52500000D03*
X2500000Y-52500000D03*
X7500000Y-11000000D03*
D29*
X2500000Y-3000000D03*
D28*
%TO.N,GPIOXX*%
X91500000Y-21000000D03*
X86500000Y-13000000D03*
%TD*%
D30*
%TO.N,ANT1+*%
X94905000Y-88095000D02*
X92475000Y-88095000D01*
X95812000Y-87188000D02*
X94905000Y-88095000D01*
X95812000Y-84812000D02*
X95812000Y-87188000D01*
X92000000Y-81000000D02*
X95812000Y-84812000D01*
X92000000Y-79000000D02*
X92000000Y-81000000D01*
%TO.N,ANT10+*%
X116924999Y-112040000D02*
X115950000Y-112040000D01*
X118000000Y-113115001D02*
X116924999Y-112040000D01*
X118000000Y-116000000D02*
X118000000Y-113115001D01*
X116500000Y-117500000D02*
X118000000Y-116000000D01*
X92001000Y-124999000D02*
X92000000Y-124999000D01*
X100000000Y-117000000D02*
X92001000Y-124999000D01*
%TO.N,ANT1+*%
X91684313Y-73000000D02*
X86000000Y-73000000D01*
X91750000Y-72934313D02*
X91684313Y-73000000D01*
X86000000Y-73000000D02*
X85000000Y-74000000D01*
D31*
%TO.N,GND*%
X96566510Y-105145000D02*
X95855000Y-105145000D01*
X98750000Y-102961510D02*
X96566510Y-105145000D01*
X98750000Y-102437500D02*
X98750000Y-102961510D01*
D32*
X95855000Y-105145000D02*
X93596911Y-102886910D01*
X97190001Y-106480000D02*
X95855000Y-105145000D01*
X93596911Y-102886910D02*
X93596911Y-101403089D01*
X97500000Y-106480000D02*
X97190001Y-106480000D01*
X98500000Y-106480000D02*
X97500000Y-106480000D01*
X99500000Y-106480000D02*
X98500000Y-106480000D01*
D30*
%TO.N,CLRC663.ALIM*%
X99730000Y-103770000D02*
X99750000Y-103750000D01*
X99250000Y-103770000D02*
X99730000Y-103770000D01*
X98500000Y-105000000D02*
X98500000Y-105520000D01*
X99750000Y-103750000D02*
X98500000Y-105000000D01*
X99250000Y-103770000D02*
X97500000Y-105520000D01*
X99250000Y-102437500D02*
X99250000Y-103770000D01*
X99750000Y-102437500D02*
X99750000Y-103750000D01*
X99750000Y-103750000D02*
X100000000Y-104000000D01*
X99500000Y-104500000D02*
X99500000Y-105520000D01*
X100000000Y-104000000D02*
X99500000Y-104500000D01*
X100250000Y-102437500D02*
X100250000Y-103750000D01*
X100250000Y-103750000D02*
X100000000Y-104000000D01*
%TO.N,ANT1+*%
X100520000Y-107480000D02*
X100520000Y-105000000D01*
X97000000Y-108000000D02*
X100000000Y-108000000D01*
X100000000Y-108000000D02*
X100520000Y-107480000D01*
X89500000Y-91000000D02*
X89500000Y-100500000D01*
X89500000Y-100500000D02*
X97000000Y-108000000D01*
%TO.N,ANT10+*%
X130000000Y-120000000D02*
X133000000Y-123000000D01*
X111457000Y-106960000D02*
X112497000Y-108000000D01*
X111000000Y-106960000D02*
X111457000Y-106960000D01*
X124000000Y-121000000D02*
X124000000Y-123000000D01*
X123000000Y-120000000D02*
X124000000Y-121000000D01*
X111727000Y-108230000D02*
X112497000Y-109000000D01*
X111000000Y-108230000D02*
X111727000Y-108230000D01*
X112196000Y-109500000D02*
X111000000Y-109500000D01*
X112696000Y-110000000D02*
X112196000Y-109500000D01*
X114000000Y-117000000D02*
X112696000Y-115696000D01*
X114000000Y-118000000D02*
X114000000Y-117000000D01*
X112696000Y-115696000D02*
X112696000Y-110000000D01*
X115000000Y-119000000D02*
X114000000Y-118000000D01*
X109230000Y-110770000D02*
X109000000Y-111000000D01*
X111000000Y-110770000D02*
X109230000Y-110770000D01*
X102959000Y-112040000D02*
X90000000Y-124999000D01*
X111000000Y-112040000D02*
X102959000Y-112040000D01*
X116720000Y-109000000D02*
X121000000Y-109000000D01*
X115950000Y-108230000D02*
X116720000Y-109000000D01*
D31*
%TO.N,GND*%
X111000000Y-118000000D02*
X111000000Y-117000000D01*
X115500000Y-122500000D02*
X111000000Y-118000000D01*
X117000000Y-122500000D02*
X115500000Y-122500000D01*
D30*
%TO.N,ANT10+*%
X119000000Y-110000000D02*
X122000000Y-110000000D01*
X118500000Y-109500000D02*
X119000000Y-110000000D01*
X115950000Y-109500000D02*
X118500000Y-109500000D01*
X114919240Y-120000000D02*
X114459620Y-119540380D01*
X116000000Y-120000000D02*
X114919240Y-120000000D01*
D31*
%TO.N,Net-(D24-DOUT)*%
X53500000Y-101000000D02*
X31150000Y-123350000D01*
X82500000Y-101000000D02*
X53500000Y-101000000D01*
X31150000Y-123350000D02*
X27450000Y-123350000D01*
X92500000Y-111000000D02*
X82500000Y-101000000D01*
X101000000Y-111000000D02*
X92500000Y-111000000D01*
D30*
%TO.N,ANT10+*%
X119000000Y-117000000D02*
X116000000Y-120000000D01*
X119000000Y-112000000D02*
X119000000Y-117000000D01*
X115950000Y-110770000D02*
X117770000Y-110770000D01*
X117770000Y-110770000D02*
X119000000Y-112000000D01*
X115950000Y-112040000D02*
X115181562Y-112040000D01*
X109000000Y-109000000D02*
X109500000Y-109500000D01*
X109500000Y-109500000D02*
X111000000Y-109500000D01*
X103146544Y-101250000D02*
X103296544Y-101400000D01*
X102437500Y-101250000D02*
X103146544Y-101250000D01*
%TO.N,CLRC663.ALIM*%
X103605991Y-102000000D02*
X104285519Y-102679528D01*
X102687500Y-102000000D02*
X103605991Y-102000000D01*
X102437500Y-101750000D02*
X102687500Y-102000000D01*
D31*
%TO.N,GND*%
X104639528Y-103639528D02*
X104285519Y-103639528D01*
X105000000Y-104000000D02*
X104639528Y-103639528D01*
X105000000Y-104000000D02*
X105000000Y-103500000D01*
D32*
%TO.N,CLRC663.ALIM*%
X107000000Y-98000000D02*
X107000000Y-100000000D01*
D30*
X104285519Y-101332865D02*
X104330000Y-101288384D01*
X104285519Y-102679528D02*
X104285519Y-101332865D01*
X104285519Y-102679528D02*
X104285519Y-102349528D01*
D32*
%TO.N,GND*%
X94689682Y-86500000D02*
X94500000Y-86500000D01*
X91934314Y-82065686D02*
X93368628Y-83500000D01*
X93368628Y-83500000D02*
X93609682Y-83500000D01*
X95261000Y-85928682D02*
X94689682Y-86500000D01*
X93609682Y-83500000D02*
X95261000Y-85151318D01*
X95261000Y-85151318D02*
X95261000Y-85928682D01*
X91000000Y-82065686D02*
X91934314Y-82065686D01*
D30*
%TO.N,ANT1+*%
X90687251Y-91312749D02*
X89812749Y-91312749D01*
X89812749Y-91312749D02*
X89500000Y-91000000D01*
X88555000Y-85555000D02*
X89000000Y-86000000D01*
X87525000Y-85555000D02*
X88555000Y-85555000D01*
X85000000Y-84000000D02*
X88000000Y-81000000D01*
X88825000Y-86825000D02*
X89000000Y-87000000D01*
X87525000Y-86825000D02*
X88825000Y-86825000D01*
D32*
%TO.N,GND*%
X79000000Y-79000000D02*
X79000000Y-77000000D01*
X79000000Y-77000000D02*
X78650000Y-76650000D01*
X78650000Y-76650000D02*
X77450000Y-76650000D01*
D30*
%TO.N,ANT1+*%
X76500000Y-87500000D02*
X73000000Y-91000000D01*
X82500000Y-87500000D02*
X76500000Y-87500000D01*
X87525000Y-89365000D02*
X82365000Y-89365000D01*
X82365000Y-89365000D02*
X82000000Y-89000000D01*
X82500000Y-86500000D02*
X85000000Y-84000000D01*
X82500000Y-87500000D02*
X82500000Y-86500000D01*
X83095000Y-88095000D02*
X87525000Y-88095000D01*
X82500000Y-87500000D02*
X83095000Y-88095000D01*
X91500001Y-86825000D02*
X92475000Y-86825000D01*
X91000000Y-86324999D02*
X91500001Y-86825000D01*
X91000000Y-84000000D02*
X91000000Y-86324999D01*
X91365000Y-89365000D02*
X91000000Y-89000000D01*
X92475000Y-89365000D02*
X91365000Y-89365000D01*
X91706562Y-90635000D02*
X91285781Y-90214219D01*
X92475000Y-90635000D02*
X91706562Y-90635000D01*
X100750000Y-104770000D02*
X100520000Y-105000000D01*
X100750000Y-102437500D02*
X100750000Y-104770000D01*
D31*
%TO.N,GND*%
X101500000Y-105020000D02*
X101480000Y-105000000D01*
X101500000Y-106500000D02*
X101500000Y-105020000D01*
X101250000Y-104770000D02*
X101480000Y-105000000D01*
X101250000Y-102437500D02*
X101250000Y-104770000D01*
X101480000Y-106480000D02*
X101500000Y-106500000D01*
X93596911Y-101645171D02*
X93596911Y-101403089D01*
D32*
%TO.N,ANT1+*%
X87500000Y-85530000D02*
X87525000Y-85555000D01*
D31*
%TO.N,GND*%
X105000000Y-103500000D02*
X105000000Y-102000000D01*
X105000000Y-104460000D02*
X105000000Y-104000000D01*
D32*
%TO.N,CLRC663.ALIM*%
X107000000Y-98000000D02*
X105000000Y-98000000D01*
X92500000Y-39771669D02*
X92500000Y-73500000D01*
X88000000Y-35271669D02*
X92500000Y-39771669D01*
X88000000Y-26000000D02*
X88000000Y-35271669D01*
X105000000Y-98000000D02*
X104480000Y-98520000D01*
D31*
%TO.N,Net-(D20-DOUT)*%
X40500000Y-49500000D02*
X36000000Y-54000000D01*
X90500000Y-49500000D02*
X40500000Y-49500000D01*
X36000000Y-54000000D02*
X36000000Y-64800000D01*
X36000000Y-64800000D02*
X27450000Y-73350000D01*
D30*
%TO.N,MCP23017.GPA0*%
X93500000Y-74249000D02*
X92750000Y-74999000D01*
X93500000Y-70816100D02*
X93500000Y-74249000D01*
X93456900Y-70773000D02*
X93500000Y-70816100D01*
X93222000Y-70538100D02*
X93456900Y-70773000D01*
X93222000Y-70205900D02*
X93222000Y-70538100D01*
X93222000Y-40503101D02*
X93222000Y-70205900D01*
X93456900Y-39936001D02*
X93222000Y-40170901D01*
X93500000Y-39190001D02*
X93500000Y-39892901D01*
X93500000Y-39892901D02*
X93456900Y-39936001D01*
X93222000Y-40170901D02*
X93222000Y-40503101D01*
X94325001Y-38365000D02*
X93500000Y-39190001D01*
X95350000Y-38365000D02*
X94325001Y-38365000D01*
%TO.N,MCP23017.GPA2*%
X94024000Y-69524000D02*
X99000000Y-74500000D01*
X94024000Y-41834032D02*
X94024000Y-69524000D01*
X94953032Y-40905000D02*
X94024000Y-41834032D01*
X95350000Y-40905000D02*
X94953032Y-40905000D01*
D32*
%TO.N,CLRC663.ALIM*%
X88000000Y-19299000D02*
X88000000Y-23409000D01*
%TO.N,+3.3V*%
X84950000Y-16950000D02*
X86500000Y-18500000D01*
D30*
%TO.N,MCP23017.GPA0*%
X92128032Y-91905000D02*
X92475000Y-91905000D01*
X90199000Y-89975968D02*
X92128032Y-91905000D01*
X90199000Y-78801000D02*
X90199000Y-89975968D01*
X91500000Y-77500000D02*
X90199000Y-78801000D01*
%TO.N,MCP23017.GPA1*%
X93449999Y-93175000D02*
X92475000Y-93175000D01*
X98400000Y-88224999D02*
X93449999Y-93175000D01*
X94325001Y-39635000D02*
X93623000Y-40337001D01*
X98400000Y-78000000D02*
X98400000Y-88224999D01*
X95350000Y-39635000D02*
X94325001Y-39635000D01*
X93623000Y-40337001D02*
X93623000Y-70372000D01*
X93623000Y-70372000D02*
X98250000Y-74999000D01*
%TO.N,MCP23017.GPA2*%
X93449999Y-94445000D02*
X92475000Y-94445000D01*
X99000000Y-88894999D02*
X93449999Y-94445000D01*
X99000000Y-77000000D02*
X99000000Y-88894999D01*
%TO.N,MCP23017.GPA6*%
X115603032Y-115850000D02*
X115950000Y-115850000D01*
X114934032Y-115181000D02*
X115603032Y-115850000D01*
X114674000Y-114920968D02*
X114934032Y-115181000D01*
X113097000Y-113343968D02*
X114674000Y-114920968D01*
X113097000Y-112641068D02*
X113097000Y-113343968D01*
X113097000Y-112308868D02*
X113097000Y-112641068D01*
X113097000Y-105563132D02*
X113097000Y-112308868D01*
X113097000Y-105230932D02*
X113097000Y-105563132D01*
X113097000Y-103231200D02*
X113097000Y-105230932D01*
X110333900Y-100468100D02*
X113097000Y-103231200D01*
X110099000Y-100233200D02*
X110333900Y-100468100D01*
X110099000Y-99901000D02*
X110099000Y-100233200D01*
X110000000Y-99500000D02*
X110099000Y-99599000D01*
X110000000Y-81500000D02*
X110000000Y-99500000D01*
X108500000Y-80000000D02*
X110000000Y-81500000D01*
X110099000Y-99599000D02*
X110099000Y-99901000D01*
X98398000Y-67998000D02*
X99400000Y-69000000D01*
X95746968Y-45985000D02*
X98398000Y-48636032D01*
X95350000Y-45985000D02*
X95746968Y-45985000D01*
X98398000Y-48636032D02*
X98398000Y-67998000D01*
%TO.N,MCP23017.GPA5*%
X115603032Y-114580000D02*
X115950000Y-114580000D01*
X113498000Y-112474968D02*
X115603032Y-114580000D01*
X113498000Y-105397032D02*
X113498000Y-112474968D01*
X114273000Y-104622032D02*
X113498000Y-105397032D01*
X114273000Y-103840100D02*
X114273000Y-104622032D01*
X109300997Y-79601000D02*
X110500000Y-80800003D01*
X109251057Y-79601000D02*
X109300997Y-79601000D01*
X108899000Y-79199003D02*
X108899000Y-79248943D01*
X108899000Y-79248943D02*
X109251057Y-79601000D01*
X108699997Y-79000000D02*
X108899000Y-79199003D01*
X110500000Y-80800003D02*
X110500000Y-100067100D01*
X110500000Y-100067100D02*
X114273000Y-103840100D01*
%TO.N,MCP23017.GPA4*%
X113899000Y-111605968D02*
X115603032Y-113310000D01*
X113899000Y-105563132D02*
X113899000Y-111605968D01*
X114674000Y-104788132D02*
X113899000Y-105563132D01*
X114674000Y-103674000D02*
X114674000Y-104788132D01*
X111000000Y-100000000D02*
X114674000Y-103674000D01*
X115603032Y-113310000D02*
X115950000Y-113310000D01*
X109500000Y-79000000D02*
X111000000Y-80500000D01*
X111000000Y-80500000D02*
X111000000Y-100000000D01*
%TO.N,MCP23017.GPA5*%
X114975001Y-114580000D02*
X115950000Y-114580000D01*
X98799000Y-67399000D02*
X99400000Y-68000000D01*
X98799000Y-47139001D02*
X98799000Y-67399000D01*
X96374999Y-44715000D02*
X98799000Y-47139001D01*
X95350000Y-44715000D02*
X96374999Y-44715000D01*
%TO.N,MCP23017.GPA4*%
X99400000Y-67000000D02*
X99400000Y-46470001D01*
X96374999Y-43445000D02*
X95350000Y-43445000D01*
X99400000Y-46470001D02*
X96374999Y-43445000D01*
%TO.N,MCP23017.GPA3*%
X96374999Y-42175000D02*
X95350000Y-42175000D01*
X100000000Y-45800001D02*
X96374999Y-42175000D01*
X100000000Y-74999000D02*
X100000000Y-45800001D01*
D31*
%TO.N,SDA*%
X100500000Y-34000000D02*
X103125000Y-31375000D01*
X100500000Y-72500000D02*
X100500000Y-34000000D01*
X102000000Y-74000000D02*
X100500000Y-72500000D01*
%TO.N,SCL*%
X101000000Y-72000000D02*
X101000000Y-34750000D01*
X102651000Y-73651000D02*
X101000000Y-72000000D01*
X101921654Y-74999000D02*
X102651000Y-74269654D01*
X102651000Y-74269654D02*
X102651000Y-73651000D01*
X101000000Y-34750000D02*
X102750000Y-33000000D01*
X101350000Y-74999000D02*
X101921654Y-74999000D01*
D30*
%TO.N,MCP23017.GPA3*%
X100500000Y-91000000D02*
X98500000Y-93000000D01*
X100500000Y-79000000D02*
X100500000Y-91000000D01*
X100000000Y-78500000D02*
X100500000Y-79000000D01*
X100000000Y-76500000D02*
X100000000Y-78500000D01*
X97562500Y-97187500D02*
X97562500Y-98250000D01*
X98250000Y-96500000D02*
X97562500Y-97187500D01*
D32*
%TO.N,+3.3V*%
X115040000Y-106960000D02*
X114500000Y-107500000D01*
X115950000Y-106960000D02*
X115040000Y-106960000D01*
%TO.N,GND*%
X104900000Y-95806499D02*
X103306498Y-97400001D01*
X104900000Y-95400000D02*
X104900000Y-95806499D01*
D31*
%TO.N,Net-(U1-XTAL2)*%
X101750000Y-97150000D02*
X101750000Y-97562500D01*
X104900000Y-94000000D02*
X101750000Y-97150000D01*
%TO.N,Net-(U1-XTAL1)*%
X103741740Y-98250000D02*
X102437500Y-98250000D01*
X106000000Y-95991740D02*
X103741740Y-98250000D01*
X106000000Y-95400000D02*
X106000000Y-95991740D01*
%TO.N,CLRC663.ALIM*%
X104250000Y-98750000D02*
X104480000Y-98520000D01*
X102437500Y-98750000D02*
X104250000Y-98750000D01*
%TO.N,Net-(D28-DOUT)*%
X49800000Y-151000000D02*
X27450000Y-173350000D01*
X144000000Y-151000000D02*
X49800000Y-151000000D01*
X168350000Y-126650000D02*
X144000000Y-151000000D01*
X172550000Y-126650000D02*
X168350000Y-126650000D01*
%TO.N,Net-(D24-DOUT)*%
X148500000Y-99500000D02*
X112500000Y-99500000D01*
X171350000Y-76650000D02*
X148500000Y-99500000D01*
X172550000Y-76650000D02*
X171350000Y-76650000D01*
%TO.N,Net-(D20-DOUT)*%
X170350000Y-26650000D02*
X147500000Y-49500000D01*
X147500000Y-49500000D02*
X102500000Y-49500000D01*
X172550000Y-26650000D02*
X170350000Y-26650000D01*
%TO.N,SCL*%
X94000000Y-98500000D02*
X101000000Y-91500000D01*
X95750000Y-100250000D02*
X94000000Y-98500000D01*
X97562500Y-100250000D02*
X95750000Y-100250000D01*
X101000000Y-91500000D02*
X101000000Y-76500000D01*
D32*
%TO.N,SDA*%
X103125000Y-31375000D02*
X103765000Y-32015000D01*
D31*
X102000000Y-77500000D02*
X102000000Y-76500000D01*
X95000000Y-98500000D02*
X102000000Y-91500000D01*
X102000000Y-91500000D02*
X102000000Y-77500000D01*
X96250000Y-99750000D02*
X95000000Y-98500000D01*
X97562500Y-99750000D02*
X96250000Y-99750000D01*
%TO.N,GND*%
X96510498Y-98510498D02*
X96450498Y-98510498D01*
X96750000Y-98750000D02*
X96510498Y-98510498D01*
%TO.N,+5V*%
X117960000Y-122500000D02*
X119000000Y-122500000D01*
X119000000Y-122500000D02*
X119500000Y-123000000D01*
%TO.N,Net-(U1-TX2)*%
X103500000Y-103579346D02*
X102358154Y-102437500D01*
X103500000Y-105000000D02*
X103500000Y-103579346D01*
X102358154Y-102437500D02*
X101750000Y-102437500D01*
%TO.N,GND*%
X104980000Y-101500000D02*
X105500000Y-101500000D01*
X105500000Y-101500000D02*
X106000000Y-101000000D01*
X104980000Y-101500000D02*
X104980000Y-101980000D01*
X104460000Y-105000000D02*
X105000000Y-104460000D01*
%TO.N,Net-(U1-VMID)*%
X103770000Y-100750000D02*
X104020000Y-100500000D01*
X102437500Y-100750000D02*
X103770000Y-100750000D01*
%TO.N,GND*%
X97562500Y-98750000D02*
X96750000Y-98750000D01*
X104980000Y-101980000D02*
X105000000Y-102000000D01*
X104980000Y-100500000D02*
X104980000Y-101500000D01*
X104980000Y-99980000D02*
X104980000Y-100500000D01*
X104480000Y-99480000D02*
X104980000Y-99980000D01*
X104250000Y-99250000D02*
X104480000Y-99480000D01*
X102437500Y-99250000D02*
X104250000Y-99250000D01*
X97562500Y-98750000D02*
X97562500Y-99250000D01*
D32*
%TO.N,Net-(D31-DOUT)*%
X175051000Y-175749000D02*
X177450000Y-173350000D01*
X123451000Y-175749000D02*
X175051000Y-175749000D01*
X122550000Y-176650000D02*
X123451000Y-175749000D01*
%TO.N,GND*%
X70480000Y-175480000D02*
X70500000Y-175500000D01*
X69000000Y-175480000D02*
X70480000Y-175480000D01*
%TO.N,Net-(D30-DOUT)*%
X74248000Y-174952000D02*
X125848000Y-174952000D01*
X72550000Y-176650000D02*
X74248000Y-174952000D01*
X125848000Y-174952000D02*
X127450000Y-173350000D01*
%TO.N,Net-(D29-DOUT)*%
X68119318Y-175749000D02*
X68870318Y-176500000D01*
X23451000Y-175749000D02*
X68119318Y-175749000D01*
X73161416Y-174251000D02*
X76549000Y-174251000D01*
X76549000Y-174251000D02*
X77450000Y-173350000D01*
X22550000Y-176650000D02*
X23451000Y-175749000D01*
X68870318Y-176500000D02*
X70912416Y-176500000D01*
X70912416Y-176500000D02*
X73161416Y-174251000D01*
%TO.N,Net-(D27-DOUT)*%
X176549000Y-124251000D02*
X177450000Y-123350000D01*
X128061416Y-124251000D02*
X176549000Y-124251000D01*
X125662416Y-126650000D02*
X128061416Y-124251000D01*
X122550000Y-126650000D02*
X125662416Y-126650000D01*
%TO.N,Net-(D26-DOUT)*%
X123251000Y-125749000D02*
X125650000Y-123350000D01*
X73451000Y-125749000D02*
X123251000Y-125749000D01*
X72550000Y-126650000D02*
X73451000Y-125749000D01*
X125650000Y-123350000D02*
X127450000Y-123350000D01*
%TO.N,Net-(D25-DOUT)*%
X76650000Y-123350000D02*
X77450000Y-123350000D01*
X24700000Y-124500000D02*
X75500000Y-124500000D01*
X22550000Y-126650000D02*
X24700000Y-124500000D01*
X75500000Y-124500000D02*
X76650000Y-123350000D01*
%TO.N,Net-(D23-DOUT)*%
X176549000Y-74251000D02*
X177450000Y-73350000D01*
X124949000Y-74251000D02*
X176549000Y-74251000D01*
X122550000Y-76650000D02*
X124949000Y-74251000D01*
%TO.N,Net-(D22-DOUT)*%
X124650000Y-73350000D02*
X127450000Y-73350000D01*
X73451000Y-75749000D02*
X122251000Y-75749000D01*
X72550000Y-76650000D02*
X73451000Y-75749000D01*
X122251000Y-75749000D02*
X124650000Y-73350000D01*
%TO.N,Net-(D21-DOUT)*%
X75800000Y-75000000D02*
X77450000Y-73350000D01*
X24200000Y-75000000D02*
X75800000Y-75000000D01*
X22550000Y-76650000D02*
X24200000Y-75000000D01*
%TO.N,Net-(D19-DOUT)*%
X175800000Y-25000000D02*
X177450000Y-23350000D01*
X125141364Y-26650000D02*
X126791364Y-25000000D01*
X122550000Y-26650000D02*
X125141364Y-26650000D01*
X126791364Y-25000000D02*
X175800000Y-25000000D01*
%TO.N,Net-(D18-DOUT)*%
X121500000Y-24500000D02*
X126300000Y-24500000D01*
X126300000Y-24500000D02*
X127450000Y-23350000D01*
X118500000Y-27500000D02*
X121500000Y-24500000D01*
X93667636Y-24159000D02*
X97008636Y-27500000D01*
X87278925Y-24159000D02*
X93667636Y-24159000D01*
X73451000Y-25749000D02*
X85688925Y-25749000D01*
X72550000Y-26650000D02*
X73451000Y-25749000D01*
X97008636Y-27500000D02*
X118500000Y-27500000D01*
X85688925Y-25749000D02*
X87278925Y-24159000D01*
%TO.N,GND*%
X108675000Y-35825000D02*
X109000000Y-35500000D01*
X104650000Y-35825000D02*
X108675000Y-35825000D01*
%TO.N,+3.3V*%
X114775000Y-24725000D02*
X115000000Y-24500000D01*
X112620000Y-24725000D02*
X114775000Y-24725000D01*
X108405000Y-37095000D02*
X108500000Y-37000000D01*
X104650000Y-37095000D02*
X108405000Y-37095000D01*
%TO.N,Net-(D17-DOUT)*%
X76650000Y-23350000D02*
X77450000Y-23350000D01*
X75500000Y-24500000D02*
X76650000Y-23350000D01*
X24700000Y-24500000D02*
X75500000Y-24500000D01*
X22550000Y-26650000D02*
X24700000Y-24500000D01*
%TO.N,Net-(D17-DIN)*%
X93490000Y-17490000D02*
X93490000Y-20000000D01*
X88000000Y-12000000D02*
X93490000Y-17490000D01*
X38800000Y-12000000D02*
X88000000Y-12000000D01*
X27450000Y-23350000D02*
X38800000Y-12000000D01*
%TO.N,+5V*%
X19850000Y-23350000D02*
X19500000Y-23000000D01*
X22550000Y-23350000D02*
X19850000Y-23350000D01*
%TO.N,GND*%
X27450000Y-26650000D02*
X29650000Y-26650000D01*
X29650000Y-26650000D02*
X31000000Y-28000000D01*
X111000000Y-115850000D02*
X111000000Y-117000000D01*
X111000000Y-114580000D02*
X111000000Y-115850000D01*
X111000000Y-113310000D02*
X111000000Y-114580000D01*
X118000000Y-108000000D02*
X119000000Y-108000000D01*
%TO.N,+3.3V*%
X117920000Y-106960000D02*
X118000000Y-107040000D01*
X115950000Y-106960000D02*
X117920000Y-106960000D01*
%TO.N,GND*%
X85595000Y-91905000D02*
X85500000Y-92000000D01*
X87525000Y-91905000D02*
X85595000Y-91905000D01*
%TO.N,+3.3V*%
X92475000Y-84975000D02*
X92000000Y-84500000D01*
X92475000Y-85555000D02*
X92475000Y-84975000D01*
X92475000Y-85555000D02*
X94485000Y-85555000D01*
X94485000Y-85555000D02*
X94500000Y-85540000D01*
%TO.N,CLRC663.ALIM*%
X88000000Y-18062500D02*
X88000000Y-19299000D01*
X85937500Y-16000000D02*
X88000000Y-18062500D01*
%TO.N,SCL*%
X103035000Y-33285000D02*
X104650000Y-33285000D01*
X102750000Y-33000000D02*
X103035000Y-33285000D01*
X101699997Y-15699997D02*
X101699997Y-17750000D01*
X99500000Y-13500000D02*
X101699997Y-15699997D01*
%TO.N,SDA*%
X103765000Y-32015000D02*
X104650000Y-32015000D01*
X102750000Y-31000000D02*
X103125000Y-31375000D01*
X102500000Y-14000000D02*
X102500000Y-17750000D01*
X99500000Y-11000000D02*
X102500000Y-14000000D01*
%TO.N,MCP23017.A2*%
X93745000Y-33285000D02*
X95350000Y-33285000D01*
X91000000Y-30540000D02*
X93745000Y-33285000D01*
%TO.N,MCP23017.A1*%
X94740900Y-32015000D02*
X95350000Y-32015000D01*
X91000000Y-28274100D02*
X94740900Y-32015000D01*
X91000000Y-28000000D02*
X91000000Y-28274100D01*
%TO.N,MCP23017.A0*%
X95350000Y-29810000D02*
X95350000Y-30745000D01*
X91000000Y-25460000D02*
X95350000Y-29810000D01*
%TO.N,GPIOXX*%
X85500000Y-13000000D02*
X84062500Y-14437500D01*
X86500000Y-13000000D02*
X85500000Y-13000000D01*
X84062500Y-14437500D02*
X84062500Y-15050000D01*
X82437500Y-16030000D02*
X83082500Y-16030000D01*
X83082500Y-16030000D02*
X84062500Y-15050000D01*
%TO.N,GND*%
X110365000Y-15500000D02*
X109000000Y-15500000D01*
X112500000Y-12960000D02*
X112500000Y-10420000D01*
X112500000Y-15500000D02*
X112500000Y-12960000D01*
X110365000Y-15500000D02*
X108620000Y-17245000D01*
X112500000Y-15500000D02*
X110365000Y-15500000D01*
%TO.N,+3.3V*%
X92945000Y-34555000D02*
X92500000Y-35000000D01*
X95350000Y-34555000D02*
X92945000Y-34555000D01*
X112620000Y-22185000D02*
X112620000Y-24725000D01*
X112600000Y-22185000D02*
X108620000Y-18205000D01*
X112620000Y-22185000D02*
X112600000Y-22185000D01*
X108325000Y-18500000D02*
X108620000Y-18205000D01*
X99500000Y-18500000D02*
X108325000Y-18500000D01*
X84062500Y-16950000D02*
X84950000Y-16950000D01*
X82437500Y-17050000D02*
X83962500Y-17050000D01*
X83962500Y-17050000D02*
X84062500Y-16950000D01*
X81000000Y-16480000D02*
X81570000Y-17050000D01*
X81570000Y-17050000D02*
X82437500Y-17050000D01*
%TO.N,GND*%
X81000000Y-15520000D02*
X81000000Y-14500000D01*
%TO.N,LED.DIN*%
X96000000Y-20000000D02*
X99500000Y-23500000D01*
X94510000Y-20000000D02*
X96000000Y-20000000D01*
%TO.N,+5V*%
X89040000Y-10500000D02*
X79000000Y-10500000D01*
X94040000Y-15500000D02*
X89040000Y-10500000D01*
X94040000Y-15809999D02*
X99230001Y-21000000D01*
X99230001Y-21000000D02*
X99500000Y-21000000D01*
X94040000Y-15500000D02*
X94040000Y-15809999D01*
%TO.N,GND*%
X99000000Y-15500000D02*
X99500000Y-16000000D01*
X95000000Y-15500000D02*
X99000000Y-15500000D01*
X87525000Y-93175000D02*
X87525000Y-94445000D01*
X87525000Y-91905000D02*
X87525000Y-93175000D01*
X179150000Y-26650000D02*
X180500000Y-28000000D01*
X177450000Y-26650000D02*
X179150000Y-26650000D01*
X129150000Y-26650000D02*
X130500000Y-28000000D01*
X127450000Y-26650000D02*
X129150000Y-26650000D01*
X78650000Y-26650000D02*
X79500000Y-27500000D01*
X77450000Y-26650000D02*
X78650000Y-26650000D01*
X29150000Y-76650000D02*
X30000000Y-77500000D01*
X27450000Y-76650000D02*
X29150000Y-76650000D01*
X128650000Y-76650000D02*
X129500000Y-77500000D01*
X127450000Y-76650000D02*
X128650000Y-76650000D01*
X179650000Y-76650000D02*
X180500000Y-77500000D01*
X177450000Y-76650000D02*
X179650000Y-76650000D01*
X179650000Y-126650000D02*
X180500000Y-127500000D01*
X177450000Y-126650000D02*
X179650000Y-126650000D01*
X129650000Y-126650000D02*
X130500000Y-127500000D01*
X127450000Y-126650000D02*
X129650000Y-126650000D01*
X79650000Y-126650000D02*
X80500000Y-127500000D01*
X77450000Y-126650000D02*
X79650000Y-126650000D01*
X29150000Y-126650000D02*
X30000000Y-127500000D01*
X27450000Y-126650000D02*
X29150000Y-126650000D01*
X30150000Y-176650000D02*
X30500000Y-177000000D01*
X27450000Y-176650000D02*
X30150000Y-176650000D01*
X79650000Y-176650000D02*
X80000000Y-177000000D01*
X77450000Y-176650000D02*
X79650000Y-176650000D01*
X129650000Y-176650000D02*
X130000000Y-177000000D01*
X127450000Y-176650000D02*
X129650000Y-176650000D01*
X179650000Y-176650000D02*
X180000000Y-177000000D01*
X177450000Y-176650000D02*
X179650000Y-176650000D01*
%TO.N,+5V*%
X169850000Y-173350000D02*
X169500000Y-173000000D01*
X172550000Y-173350000D02*
X169850000Y-173350000D01*
X119350000Y-173350000D02*
X119000000Y-173000000D01*
X122550000Y-173350000D02*
X119350000Y-173350000D01*
X69350000Y-173350000D02*
X69000000Y-173000000D01*
X70170000Y-173350000D02*
X69350000Y-173350000D01*
X70170000Y-173350000D02*
X69000000Y-174520000D01*
X72550000Y-173350000D02*
X70170000Y-173350000D01*
X19350000Y-173350000D02*
X19000000Y-173000000D01*
X22550000Y-173350000D02*
X19350000Y-173350000D01*
X169850000Y-123350000D02*
X169500000Y-123000000D01*
X172550000Y-123350000D02*
X169850000Y-123350000D01*
X119850000Y-123350000D02*
X119500000Y-123000000D01*
X122550000Y-123350000D02*
X119850000Y-123350000D01*
X69350000Y-123350000D02*
X69000000Y-123000000D01*
X72550000Y-123350000D02*
X69350000Y-123350000D01*
X20350000Y-123350000D02*
X20000000Y-123000000D01*
X22550000Y-123350000D02*
X20350000Y-123350000D01*
X170350000Y-73350000D02*
X170000000Y-73000000D01*
X172550000Y-73350000D02*
X170350000Y-73350000D01*
X121350000Y-73350000D02*
X121000000Y-73000000D01*
X122550000Y-73350000D02*
X121350000Y-73350000D01*
X69850000Y-73350000D02*
X69500000Y-73000000D01*
X72550000Y-73350000D02*
X69850000Y-73350000D01*
X20350000Y-73350000D02*
X20000000Y-73000000D01*
X22550000Y-73350000D02*
X20350000Y-73350000D01*
X169850000Y-23350000D02*
X169500000Y-23000000D01*
X172550000Y-23350000D02*
X169850000Y-23350000D01*
X121350000Y-23350000D02*
X121000000Y-23000000D01*
X122550000Y-23350000D02*
X121350000Y-23350000D01*
X70350000Y-23350000D02*
X70000000Y-23000000D01*
X72550000Y-23350000D02*
X70350000Y-23350000D01*
%TO.N,ANT10+*%
X152500000Y-154250000D02*
X152500000Y-153500000D01*
X52500000Y-154250000D02*
X52500000Y-153500000D01*
X102500000Y-154120000D02*
X102500000Y-153500000D01*
X52500000Y-154250000D02*
X52450000Y-154250000D01*
X2500000Y-154250000D02*
X2500000Y-153500000D01*
X152500000Y-104250000D02*
X152500000Y-103500000D01*
X102500000Y-104020000D02*
X102500000Y-103500000D01*
X52500000Y-104250000D02*
X52500000Y-103500000D01*
%TO.N,ANT1+*%
X102500000Y-3000000D02*
X102500000Y-4020000D01*
X52500000Y-3000000D02*
X52500000Y-4020000D01*
X152500000Y-4020000D02*
X152500000Y-3500000D01*
%TO.N,ANT10+*%
X2500000Y-156250000D02*
X2500000Y-155210000D01*
X7500000Y-161250000D02*
X2500000Y-156250000D01*
X52500000Y-156250000D02*
X52500000Y-155210000D01*
X57500000Y-161250000D02*
X52500000Y-156250000D01*
X102500000Y-156250000D02*
X102500000Y-155210000D01*
X157500000Y-161250000D02*
X152500000Y-156250000D01*
X152500000Y-156250000D02*
X152500000Y-155210000D01*
X107500000Y-161250000D02*
X102500000Y-156250000D01*
X102500000Y-106250000D02*
X102500000Y-105210000D01*
X107500000Y-111250000D02*
X102500000Y-106250000D01*
X152500000Y-106250000D02*
X152500000Y-105210000D01*
X157500000Y-111250000D02*
X152500000Y-106250000D01*
X52500000Y-106250000D02*
X52500000Y-105210000D01*
X57500000Y-111250000D02*
X52500000Y-106250000D01*
X2500000Y-104020000D02*
X2500000Y-103500000D01*
%TO.N,ANT1+*%
X152500000Y-52500000D02*
X152500000Y-53520000D01*
X102500000Y-52500000D02*
X102500000Y-53520000D01*
X52500000Y-52500000D02*
X52500000Y-53520000D01*
X2500000Y-52500000D02*
X2500000Y-53540000D01*
%TO.N,ANT10+*%
X2500000Y-106250000D02*
X2500000Y-105210000D01*
X7500000Y-111250000D02*
X2500000Y-106250000D01*
%TO.N,ANT1+*%
X102500000Y-55750000D02*
X102500000Y-54710000D01*
X107500000Y-60750000D02*
X102500000Y-55750000D01*
X2500000Y-55750000D02*
X2500000Y-54710000D01*
X7500000Y-60750000D02*
X2500000Y-55750000D01*
X52500000Y-55750000D02*
X52500000Y-54710000D01*
X57500000Y-60750000D02*
X52500000Y-55750000D01*
X157500000Y-60750000D02*
X152500000Y-55750000D01*
X152500000Y-55750000D02*
X152500000Y-54710000D01*
X107500000Y-11000000D02*
X102500000Y-6000000D01*
X102500000Y-6000000D02*
X102500000Y-4960000D01*
X157500000Y-11000000D02*
X152500000Y-6000000D01*
X152500000Y-6000000D02*
X152500000Y-4960000D01*
X52500000Y-6000000D02*
X52500000Y-4960000D01*
X57500000Y-11000000D02*
X52500000Y-6000000D01*
X2500000Y-6000000D02*
X2500000Y-4960000D01*
X7500000Y-11000000D02*
X2500000Y-6000000D01*
X2500000Y-3000000D02*
X2500000Y-4000000D01*
%TO.N,GPIOXX*%
X99500000Y-26000000D02*
X96500000Y-26000000D01*
X96500000Y-26000000D02*
X91500000Y-21000000D01*
D30*
%TO.N,ANT1+*%
X89095000Y-88095000D02*
X89500000Y-88500000D01*
X89500000Y-88500000D02*
X89500000Y-91000000D01*
X87525000Y-88095000D02*
X89095000Y-88095000D01*
X82635000Y-90635000D02*
X87525000Y-90635000D01*
X81000000Y-90000000D02*
X82000000Y-90000000D01*
X82000000Y-90000000D02*
X82635000Y-90635000D01*
%TD*%
M02*
