M48
; DRILL file {KiCad 9.0.0} date 2025-03-24T11:20:59+0100
; FORMAT={-:-/ absolute / metric / decimal}
; #@! TF.CreationDate,2025-03-24T11:20:59+01:00
; #@! TF.GenerationSoftware,Kicad,Pcbnew,9.0.0
; #@! TF.FileFunction,Plated,1,2,PTH
FMAT,2
METRIC
; #@! TA.AperFunction,Plated,PTH,ViaDrill
T1C0.300
; #@! TA.AperFunction,Plated,PTH,ComponentDrill
T2C1.000
; #@! TA.AperFunction,Plated,PTH,ComponentDrill
T3C1.700
%
G90
G05
T1
X106.5Y-128.5
X107.0Y-132.0
X107.5Y-121.0
X113.0Y-106.5
X114.5Y-143.5
X117.0Y-118.0
X118.5Y-143.0
X120.0Y-114.0
X121.0Y-116.0
X122.5Y-117.5
X123.0Y-126.0
X123.0Y-144.0
X123.557Y-121.443
X127.9Y-114.5
X128.0Y-125.5
X129.5Y-120.5
X130.0Y-141.9
X130.5Y-107.5
X131.0Y-142.5
X132.0Y-144.5
X132.5Y-134.5
X133.826Y-127.326
X134.5Y-115.5
X135.5Y-142.5
X142.4Y-118.0
X142.6Y-124.0
X143.5Y-121.0
X144.0Y-117.5
X144.0Y-130.5
X144.0Y-133.5
T2
X125.0Y-113.575
X125.0Y-116.115
X125.0Y-118.655
X125.0Y-121.195
X125.0Y-123.735
X125.0Y-126.275
X125.0Y-128.815
X125.0Y-131.355
X125.0Y-133.895
X125.0Y-136.435
T3
X103.775Y-113.12
X103.775Y-117.08
X103.775Y-121.04
X103.775Y-125.0
X103.775Y-128.96
X103.775Y-132.92
X103.775Y-136.88
X113.12Y-103.775
X113.12Y-146.225
X117.08Y-103.775
X117.08Y-146.225
X121.04Y-103.775
X121.04Y-146.225
X125.0Y-103.775
X125.0Y-146.225
X128.96Y-103.775
X128.96Y-146.225
X132.92Y-103.775
X132.92Y-146.225
X136.88Y-103.775
X136.88Y-146.225
X146.225Y-113.12
X146.225Y-117.08
X146.225Y-121.04
X146.225Y-125.0
X146.225Y-128.96
X146.225Y-132.92
X146.225Y-136.88
M30
