%TF.GenerationSoftware,KiCad,Pcbnew,9.0.0*%
%TF.CreationDate,2025-03-24T11:20:55+01:00*%
%TF.ProjectId,PCB_Distrib,5043425f-4469-4737-9472-69622e6b6963,rev?*%
%TF.SameCoordinates,Original*%
%TF.FileFunction,Legend,Top*%
%TF.FilePolarity,Positive*%
%FSLAX46Y46*%
G04 Gerber Fmt 4.6, Leading zero omitted, Abs format (unit mm)*
G04 Created by KiCad (PCBNEW 9.0.0) date 2025-03-24 11:20:55*
%MOMM*%
%LPD*%
G01*
G04 APERTURE LIST*
%ADD10C,0.150000*%
%ADD11C,0.120000*%
G04 APERTURE END LIST*
D10*
X144238095Y-101754819D02*
X144238095Y-100754819D01*
X144238095Y-101231009D02*
X144809523Y-101231009D01*
X144809523Y-101754819D02*
X144809523Y-100754819D01*
X145238095Y-100850057D02*
X145285714Y-100802438D01*
X145285714Y-100802438D02*
X145380952Y-100754819D01*
X145380952Y-100754819D02*
X145619047Y-100754819D01*
X145619047Y-100754819D02*
X145714285Y-100802438D01*
X145714285Y-100802438D02*
X145761904Y-100850057D01*
X145761904Y-100850057D02*
X145809523Y-100945295D01*
X145809523Y-100945295D02*
X145809523Y-101040533D01*
X145809523Y-101040533D02*
X145761904Y-101183390D01*
X145761904Y-101183390D02*
X145190476Y-101754819D01*
X145190476Y-101754819D02*
X145809523Y-101754819D01*
X144238095Y-141754819D02*
X144238095Y-140754819D01*
X144238095Y-141231009D02*
X144809523Y-141231009D01*
X144809523Y-141754819D02*
X144809523Y-140754819D01*
X145714285Y-141088152D02*
X145714285Y-141754819D01*
X145476190Y-140707200D02*
X145238095Y-141421485D01*
X145238095Y-141421485D02*
X145857142Y-141421485D01*
X104238095Y-141754819D02*
X104238095Y-140754819D01*
X104238095Y-141231009D02*
X104809523Y-141231009D01*
X104809523Y-141754819D02*
X104809523Y-140754819D01*
X105190476Y-140754819D02*
X105809523Y-140754819D01*
X105809523Y-140754819D02*
X105476190Y-141135771D01*
X105476190Y-141135771D02*
X105619047Y-141135771D01*
X105619047Y-141135771D02*
X105714285Y-141183390D01*
X105714285Y-141183390D02*
X105761904Y-141231009D01*
X105761904Y-141231009D02*
X105809523Y-141326247D01*
X105809523Y-141326247D02*
X105809523Y-141564342D01*
X105809523Y-141564342D02*
X105761904Y-141659580D01*
X105761904Y-141659580D02*
X105714285Y-141707200D01*
X105714285Y-141707200D02*
X105619047Y-141754819D01*
X105619047Y-141754819D02*
X105333333Y-141754819D01*
X105333333Y-141754819D02*
X105238095Y-141707200D01*
X105238095Y-141707200D02*
X105190476Y-141659580D01*
X130954819Y-117666666D02*
X130478628Y-117999999D01*
X130954819Y-118238094D02*
X129954819Y-118238094D01*
X129954819Y-118238094D02*
X129954819Y-117857142D01*
X129954819Y-117857142D02*
X130002438Y-117761904D01*
X130002438Y-117761904D02*
X130050057Y-117714285D01*
X130050057Y-117714285D02*
X130145295Y-117666666D01*
X130145295Y-117666666D02*
X130288152Y-117666666D01*
X130288152Y-117666666D02*
X130383390Y-117714285D01*
X130383390Y-117714285D02*
X130431009Y-117761904D01*
X130431009Y-117761904D02*
X130478628Y-117857142D01*
X130478628Y-117857142D02*
X130478628Y-118238094D01*
X129954819Y-116761904D02*
X129954819Y-117238094D01*
X129954819Y-117238094D02*
X130431009Y-117285713D01*
X130431009Y-117285713D02*
X130383390Y-117238094D01*
X130383390Y-117238094D02*
X130335771Y-117142856D01*
X130335771Y-117142856D02*
X130335771Y-116904761D01*
X130335771Y-116904761D02*
X130383390Y-116809523D01*
X130383390Y-116809523D02*
X130431009Y-116761904D01*
X130431009Y-116761904D02*
X130526247Y-116714285D01*
X130526247Y-116714285D02*
X130764342Y-116714285D01*
X130764342Y-116714285D02*
X130859580Y-116761904D01*
X130859580Y-116761904D02*
X130907200Y-116809523D01*
X130907200Y-116809523D02*
X130954819Y-116904761D01*
X130954819Y-116904761D02*
X130954819Y-117142856D01*
X130954819Y-117142856D02*
X130907200Y-117238094D01*
X130907200Y-117238094D02*
X130859580Y-117285713D01*
X133454819Y-122166666D02*
X132978628Y-122499999D01*
X133454819Y-122738094D02*
X132454819Y-122738094D01*
X132454819Y-122738094D02*
X132454819Y-122357142D01*
X132454819Y-122357142D02*
X132502438Y-122261904D01*
X132502438Y-122261904D02*
X132550057Y-122214285D01*
X132550057Y-122214285D02*
X132645295Y-122166666D01*
X132645295Y-122166666D02*
X132788152Y-122166666D01*
X132788152Y-122166666D02*
X132883390Y-122214285D01*
X132883390Y-122214285D02*
X132931009Y-122261904D01*
X132931009Y-122261904D02*
X132978628Y-122357142D01*
X132978628Y-122357142D02*
X132978628Y-122738094D01*
X132454819Y-121309523D02*
X132454819Y-121499999D01*
X132454819Y-121499999D02*
X132502438Y-121595237D01*
X132502438Y-121595237D02*
X132550057Y-121642856D01*
X132550057Y-121642856D02*
X132692914Y-121738094D01*
X132692914Y-121738094D02*
X132883390Y-121785713D01*
X132883390Y-121785713D02*
X133264342Y-121785713D01*
X133264342Y-121785713D02*
X133359580Y-121738094D01*
X133359580Y-121738094D02*
X133407200Y-121690475D01*
X133407200Y-121690475D02*
X133454819Y-121595237D01*
X133454819Y-121595237D02*
X133454819Y-121404761D01*
X133454819Y-121404761D02*
X133407200Y-121309523D01*
X133407200Y-121309523D02*
X133359580Y-121261904D01*
X133359580Y-121261904D02*
X133264342Y-121214285D01*
X133264342Y-121214285D02*
X133026247Y-121214285D01*
X133026247Y-121214285D02*
X132931009Y-121261904D01*
X132931009Y-121261904D02*
X132883390Y-121309523D01*
X132883390Y-121309523D02*
X132835771Y-121404761D01*
X132835771Y-121404761D02*
X132835771Y-121595237D01*
X132835771Y-121595237D02*
X132883390Y-121690475D01*
X132883390Y-121690475D02*
X132931009Y-121738094D01*
X132931009Y-121738094D02*
X133026247Y-121785713D01*
X104238095Y-101754819D02*
X104238095Y-100754819D01*
X104238095Y-101231009D02*
X104809523Y-101231009D01*
X104809523Y-101754819D02*
X104809523Y-100754819D01*
X105809523Y-101754819D02*
X105238095Y-101754819D01*
X105523809Y-101754819D02*
X105523809Y-100754819D01*
X105523809Y-100754819D02*
X105428571Y-100897676D01*
X105428571Y-100897676D02*
X105333333Y-100992914D01*
X105333333Y-100992914D02*
X105238095Y-101040533D01*
D11*
%TO.C,JP2*%
X88765000Y-112300000D02*
X88765000Y-113940000D01*
X88765000Y-113940000D02*
X90265000Y-113940000D01*
X88765000Y-116260000D02*
X88765000Y-117900000D01*
X88765000Y-117900000D02*
X90265000Y-117900000D01*
X88765000Y-120220000D02*
X88765000Y-121860000D01*
X88765000Y-121860000D02*
X90265000Y-121860000D01*
X88765000Y-124180000D02*
X88765000Y-125820000D01*
X88765000Y-125820000D02*
X90265000Y-125820000D01*
X88765000Y-128140000D02*
X88765000Y-129780000D01*
X88765000Y-129780000D02*
X90265000Y-129780000D01*
X88765000Y-132100000D02*
X88765000Y-133740000D01*
X88765000Y-133740000D02*
X90265000Y-133740000D01*
X88765000Y-136060000D02*
X88765000Y-137700000D01*
X88765000Y-137700000D02*
X90265000Y-137700000D01*
X90265000Y-112110000D02*
X96465000Y-112110000D01*
X90265000Y-112300000D02*
X88765000Y-112300000D01*
X90265000Y-116260000D02*
X88765000Y-116260000D01*
X90265000Y-120220000D02*
X88765000Y-120220000D01*
X90265000Y-124180000D02*
X88765000Y-124180000D01*
X90265000Y-128140000D02*
X88765000Y-128140000D01*
X90265000Y-132100000D02*
X88765000Y-132100000D01*
X90265000Y-136060000D02*
X88765000Y-136060000D01*
X90265000Y-137890000D02*
X90265000Y-112110000D01*
X96465000Y-111060000D02*
X99885000Y-111060000D01*
X96465000Y-112110000D02*
X96465000Y-111060000D01*
X96465000Y-137890000D02*
X90265000Y-137890000D01*
X96465000Y-138940000D02*
X96465000Y-137890000D01*
X99885000Y-111060000D02*
X99885000Y-138940000D01*
X99885000Y-138940000D02*
X96465000Y-138940000D01*
X105385000Y-111510000D02*
X103775000Y-111510000D01*
X105385000Y-113120000D02*
X105385000Y-111510000D01*
%TO.C,JP4*%
X144615000Y-136880000D02*
X144615000Y-138490000D01*
X144615000Y-138490000D02*
X146225000Y-138490000D01*
X150115000Y-111060000D02*
X153535000Y-111060000D01*
X150115000Y-138940000D02*
X150115000Y-111060000D01*
X153535000Y-111060000D02*
X153535000Y-112110000D01*
X153535000Y-112110000D02*
X159735000Y-112110000D01*
X153535000Y-137890000D02*
X153535000Y-138940000D01*
X153535000Y-138940000D02*
X150115000Y-138940000D01*
X159735000Y-112110000D02*
X159735000Y-137890000D01*
X159735000Y-113940000D02*
X161235000Y-113940000D01*
X159735000Y-117900000D02*
X161235000Y-117900000D01*
X159735000Y-121860000D02*
X161235000Y-121860000D01*
X159735000Y-125820000D02*
X161235000Y-125820000D01*
X159735000Y-129780000D02*
X161235000Y-129780000D01*
X159735000Y-133740000D02*
X161235000Y-133740000D01*
X159735000Y-137700000D02*
X161235000Y-137700000D01*
X159735000Y-137890000D02*
X153535000Y-137890000D01*
X161235000Y-112300000D02*
X159735000Y-112300000D01*
X161235000Y-113940000D02*
X161235000Y-112300000D01*
X161235000Y-116260000D02*
X159735000Y-116260000D01*
X161235000Y-117900000D02*
X161235000Y-116260000D01*
X161235000Y-120220000D02*
X159735000Y-120220000D01*
X161235000Y-121860000D02*
X161235000Y-120220000D01*
X161235000Y-124180000D02*
X159735000Y-124180000D01*
X161235000Y-125820000D02*
X161235000Y-124180000D01*
X161235000Y-128140000D02*
X159735000Y-128140000D01*
X161235000Y-129780000D02*
X161235000Y-128140000D01*
X161235000Y-132100000D02*
X159735000Y-132100000D01*
X161235000Y-133740000D02*
X161235000Y-132100000D01*
X161235000Y-136060000D02*
X159735000Y-136060000D01*
X161235000Y-137700000D02*
X161235000Y-136060000D01*
%TO.C,JP1*%
X111060000Y-96465000D02*
X112110000Y-96465000D01*
X111060000Y-99885000D02*
X111060000Y-96465000D01*
X112110000Y-90265000D02*
X137890000Y-90265000D01*
X112110000Y-96465000D02*
X112110000Y-90265000D01*
X112300000Y-88765000D02*
X112300000Y-90265000D01*
X113940000Y-88765000D02*
X112300000Y-88765000D01*
X113940000Y-90265000D02*
X113940000Y-88765000D01*
X116260000Y-88765000D02*
X116260000Y-90265000D01*
X117900000Y-88765000D02*
X116260000Y-88765000D01*
X117900000Y-90265000D02*
X117900000Y-88765000D01*
X120220000Y-88765000D02*
X120220000Y-90265000D01*
X121860000Y-88765000D02*
X120220000Y-88765000D01*
X121860000Y-90265000D02*
X121860000Y-88765000D01*
X124180000Y-88765000D02*
X124180000Y-90265000D01*
X125820000Y-88765000D02*
X124180000Y-88765000D01*
X125820000Y-90265000D02*
X125820000Y-88765000D01*
X128140000Y-88765000D02*
X128140000Y-90265000D01*
X129780000Y-88765000D02*
X128140000Y-88765000D01*
X129780000Y-90265000D02*
X129780000Y-88765000D01*
X132100000Y-88765000D02*
X132100000Y-90265000D01*
X133740000Y-88765000D02*
X132100000Y-88765000D01*
X133740000Y-90265000D02*
X133740000Y-88765000D01*
X136060000Y-88765000D02*
X136060000Y-90265000D01*
X136880000Y-105385000D02*
X138490000Y-105385000D01*
X137700000Y-88765000D02*
X136060000Y-88765000D01*
X137700000Y-90265000D02*
X137700000Y-88765000D01*
X137890000Y-90265000D02*
X137890000Y-96465000D01*
X137890000Y-96465000D02*
X138940000Y-96465000D01*
X138490000Y-105385000D02*
X138490000Y-103775000D01*
X138940000Y-96465000D02*
X138940000Y-99885000D01*
X138940000Y-99885000D02*
X111060000Y-99885000D01*
%TO.C,JP3*%
X111060000Y-150115000D02*
X138940000Y-150115000D01*
X111060000Y-153535000D02*
X111060000Y-150115000D01*
X111510000Y-144615000D02*
X111510000Y-146225000D01*
X112110000Y-153535000D02*
X111060000Y-153535000D01*
X112110000Y-159735000D02*
X112110000Y-153535000D01*
X112300000Y-159735000D02*
X112300000Y-161235000D01*
X112300000Y-161235000D02*
X113940000Y-161235000D01*
X113120000Y-144615000D02*
X111510000Y-144615000D01*
X113940000Y-161235000D02*
X113940000Y-159735000D01*
X116260000Y-159735000D02*
X116260000Y-161235000D01*
X116260000Y-161235000D02*
X117900000Y-161235000D01*
X117900000Y-161235000D02*
X117900000Y-159735000D01*
X120220000Y-159735000D02*
X120220000Y-161235000D01*
X120220000Y-161235000D02*
X121860000Y-161235000D01*
X121860000Y-161235000D02*
X121860000Y-159735000D01*
X124180000Y-159735000D02*
X124180000Y-161235000D01*
X124180000Y-161235000D02*
X125820000Y-161235000D01*
X125820000Y-161235000D02*
X125820000Y-159735000D01*
X128140000Y-159735000D02*
X128140000Y-161235000D01*
X128140000Y-161235000D02*
X129780000Y-161235000D01*
X129780000Y-161235000D02*
X129780000Y-159735000D01*
X132100000Y-159735000D02*
X132100000Y-161235000D01*
X132100000Y-161235000D02*
X133740000Y-161235000D01*
X133740000Y-161235000D02*
X133740000Y-159735000D01*
X136060000Y-159735000D02*
X136060000Y-161235000D01*
X136060000Y-161235000D02*
X137700000Y-161235000D01*
X137700000Y-161235000D02*
X137700000Y-159735000D01*
X137890000Y-153535000D02*
X137890000Y-159735000D01*
X137890000Y-159735000D02*
X112110000Y-159735000D01*
X138940000Y-150115000D02*
X138940000Y-153535000D01*
X138940000Y-153535000D02*
X137890000Y-153535000D01*
%TO.C,R5*%
X128620000Y-119346359D02*
X128620000Y-119653641D01*
X129380000Y-119346359D02*
X129380000Y-119653641D01*
%TO.C,JRasp1*%
X123670000Y-112245000D02*
X125000000Y-112245000D01*
X123670000Y-113575000D02*
X123670000Y-112245000D01*
X123670000Y-114845000D02*
X123670000Y-137765000D01*
X123670000Y-114845000D02*
X126330000Y-114845000D01*
X123670000Y-137765000D02*
X126330000Y-137765000D01*
X126330000Y-114845000D02*
X126330000Y-137765000D01*
%TO.C,R6*%
X130620000Y-121346359D02*
X130620000Y-121653641D01*
X131380000Y-121346359D02*
X131380000Y-121653641D01*
%TD*%
M02*
