%TF.GenerationSoftware,KiCad,Pcbnew,9.0.0*%
%TF.CreationDate,2025-03-24T11:20:55+01:00*%
%TF.ProjectId,PCB_Distrib,5043425f-4469-4737-9472-69622e6b6963,rev?*%
%TF.SameCoordinates,Original*%
%TF.FileFunction,Copper,L1,Top*%
%TF.FilePolarity,Positive*%
%FSLAX46Y46*%
G04 Gerber Fmt 4.6, Leading zero omitted, Abs format (unit mm)*
G04 Created by KiCad (PCBNEW 9.0.0) date 2025-03-24 11:20:55*
%MOMM*%
%LPD*%
G01*
G04 APERTURE LIST*
G04 Aperture macros list*
%AMRoundRect*
0 Rectangle with rounded corners*
0 $1 Rounding radius*
0 $2 $3 $4 $5 $6 $7 $8 $9 X,Y pos of 4 corners*
0 Add a 4 corners polygon primitive as box body*
4,1,4,$2,$3,$4,$5,$6,$7,$8,$9,$2,$3,0*
0 Add four circle primitives for the rounded corners*
1,1,$1+$1,$2,$3*
1,1,$1+$1,$4,$5*
1,1,$1+$1,$6,$7*
1,1,$1+$1,$8,$9*
0 Add four rect primitives between the rounded corners*
20,1,$1+$1,$2,$3,$4,$5,0*
20,1,$1+$1,$4,$5,$6,$7,0*
20,1,$1+$1,$6,$7,$8,$9,0*
20,1,$1+$1,$8,$9,$2,$3,0*%
G04 Aperture macros list end*
%TA.AperFunction,ComponentPad*%
%ADD10RoundRect,0.250001X-1.099999X1.099999X-1.099999X-1.099999X1.099999X-1.099999X1.099999X1.099999X0*%
%TD*%
%TA.AperFunction,ComponentPad*%
%ADD11C,2.700000*%
%TD*%
%TA.AperFunction,ComponentPad*%
%ADD12RoundRect,0.250001X1.099999X-1.099999X1.099999X1.099999X-1.099999X1.099999X-1.099999X-1.099999X0*%
%TD*%
%TA.AperFunction,ComponentPad*%
%ADD13RoundRect,0.250001X1.099999X1.099999X-1.099999X1.099999X-1.099999X-1.099999X1.099999X-1.099999X0*%
%TD*%
%TA.AperFunction,ComponentPad*%
%ADD14RoundRect,0.250001X-1.099999X-1.099999X1.099999X-1.099999X1.099999X1.099999X-1.099999X1.099999X0*%
%TD*%
%TA.AperFunction,SMDPad,CuDef*%
%ADD15RoundRect,0.135000X-0.185000X0.135000X-0.185000X-0.135000X0.185000X-0.135000X0.185000X0.135000X0*%
%TD*%
%TA.AperFunction,ComponentPad*%
%ADD16R,1.700000X1.700000*%
%TD*%
%TA.AperFunction,ComponentPad*%
%ADD17O,1.700000X1.700000*%
%TD*%
%TA.AperFunction,ViaPad*%
%ADD18C,0.600000*%
%TD*%
%TA.AperFunction,Conductor*%
%ADD19C,0.200000*%
%TD*%
G04 APERTURE END LIST*
D10*
%TO.P,JP2,1,Pin_1*%
%TO.N,SDA*%
X103775000Y-113120000D03*
D11*
%TO.P,JP2,2,Pin_2*%
%TO.N,SCL*%
X103775000Y-117080000D03*
%TO.P,JP2,3,Pin_3*%
%TO.N,GND*%
X103775000Y-121040000D03*
%TO.P,JP2,4,Pin_4*%
%TO.N,+3.3V*%
X103775000Y-125000000D03*
%TO.P,JP2,5,Pin_5*%
%TO.N,+5V*%
X103775000Y-128960000D03*
%TO.P,JP2,6,Pin_6*%
%TO.N,LED.DIN*%
X103775000Y-132920000D03*
%TO.P,JP2,7,Pin_7*%
%TO.N,GPIO04*%
X103775000Y-136880000D03*
%TD*%
D12*
%TO.P,JP4,1,Pin_1*%
%TO.N,SDA*%
X146225000Y-136880000D03*
D11*
%TO.P,JP4,2,Pin_2*%
%TO.N,SCL*%
X146225000Y-132920000D03*
%TO.P,JP4,3,Pin_3*%
%TO.N,GND*%
X146225000Y-128960000D03*
%TO.P,JP4,4,Pin_4*%
%TO.N,+3.3V*%
X146225000Y-125000000D03*
%TO.P,JP4,5,Pin_5*%
%TO.N,+5V*%
X146225000Y-121040000D03*
%TO.P,JP4,6,Pin_6*%
%TO.N,LED.DIN*%
X146225000Y-117080000D03*
%TO.P,JP4,7,Pin_7*%
%TO.N,GPIO22*%
X146225000Y-113120000D03*
%TD*%
D13*
%TO.P,JP1,1,Pin_1*%
%TO.N,SDA*%
X136880000Y-103775000D03*
D11*
%TO.P,JP1,2,Pin_2*%
%TO.N,SCL*%
X132920000Y-103775000D03*
%TO.P,JP1,3,Pin_3*%
%TO.N,GND*%
X128960000Y-103775000D03*
%TO.P,JP1,4,Pin_4*%
%TO.N,+3.3V*%
X125000000Y-103775000D03*
%TO.P,JP1,5,Pin_5*%
%TO.N,+5V*%
X121040000Y-103775000D03*
%TO.P,JP1,6,Pin_6*%
%TO.N,LED.DIN*%
X117080000Y-103775000D03*
%TO.P,JP1,7,Pin_7*%
%TO.N,GPIO17*%
X113120000Y-103775000D03*
%TD*%
D14*
%TO.P,JP3,1,Pin_1*%
%TO.N,SDA*%
X113120000Y-146225000D03*
D11*
%TO.P,JP3,2,Pin_2*%
%TO.N,SCL*%
X117080000Y-146225000D03*
%TO.P,JP3,3,Pin_3*%
%TO.N,GND*%
X121040000Y-146225000D03*
%TO.P,JP3,4,Pin_4*%
%TO.N,+3.3V*%
X125000000Y-146225000D03*
%TO.P,JP3,5,Pin_5*%
%TO.N,+5V*%
X128960000Y-146225000D03*
%TO.P,JP3,6,Pin_6*%
%TO.N,LED.DIN*%
X132920000Y-146225000D03*
%TO.P,JP3,7,Pin_7*%
%TO.N,GPIO27*%
X136880000Y-146225000D03*
%TD*%
D15*
%TO.P,R5,1*%
%TO.N,+3.3V*%
X129000000Y-118990000D03*
%TO.P,R5,2*%
%TO.N,SDA*%
X129000000Y-120010000D03*
%TD*%
D16*
%TO.P,JRasp1,1,Pin_1*%
%TO.N,+5V*%
X125000000Y-113575000D03*
D17*
%TO.P,JRasp1,2,Pin_2*%
%TO.N,+3.3V*%
X125000000Y-116115000D03*
%TO.P,JRasp1,3,Pin_3*%
%TO.N,GND*%
X125000000Y-118655000D03*
%TO.P,JRasp1,4,Pin_4*%
%TO.N,SDA*%
X125000000Y-121195000D03*
%TO.P,JRasp1,5,Pin_5*%
%TO.N,SCL*%
X125000000Y-123735000D03*
%TO.P,JRasp1,6,Pin_6*%
%TO.N,LED.DIN*%
X125000000Y-126275000D03*
%TO.P,JRasp1,7,Pin_7*%
%TO.N,GPIO17*%
X125000000Y-128815000D03*
%TO.P,JRasp1,8,Pin_8*%
%TO.N,GPIO04*%
X125000000Y-131355000D03*
%TO.P,JRasp1,9,Pin_9*%
%TO.N,GPIO27*%
X125000000Y-133895000D03*
%TO.P,JRasp1,10,Pin_10*%
%TO.N,GPIO22*%
X125000000Y-136435000D03*
%TD*%
D15*
%TO.P,R6,1*%
%TO.N,+3.3V*%
X131000000Y-120990000D03*
%TO.P,R6,2*%
%TO.N,SCL*%
X131000000Y-122010000D03*
%TD*%
D18*
%TO.N,SDA*%
X134500000Y-115500000D03*
X129500000Y-120500000D03*
X123556765Y-121443235D03*
X114500000Y-143500000D03*
X142600000Y-124000000D03*
%TO.N,SCL*%
X118500000Y-143000000D03*
X144000000Y-133500000D03*
X128000000Y-125500000D03*
%TO.N,+5V*%
X143500000Y-121000000D03*
X106500000Y-128500000D03*
X120000000Y-114000000D03*
X127900000Y-114500000D03*
%TO.N,GND*%
X130500000Y-107500000D03*
X122500000Y-117500000D03*
X144000000Y-130500000D03*
X107500000Y-121000000D03*
X123000000Y-144000000D03*
%TO.N,LED.DIN*%
X107000000Y-132000000D03*
X132000000Y-144500000D03*
X121000000Y-116000000D03*
X132500000Y-134500000D03*
X130000000Y-141900000D03*
X144000000Y-117500000D03*
X142400000Y-118000000D03*
X133825735Y-127325735D03*
X123000000Y-126000000D03*
%TO.N,GPIO27*%
X135500000Y-142500000D03*
X131000000Y-142500000D03*
%TO.N,GPIO17*%
X113000000Y-106500000D03*
X117000000Y-118000000D03*
%TD*%
D19*
%TO.N,SDA*%
X124805000Y-121195000D02*
X116730000Y-113120000D01*
X114500000Y-144845000D02*
X113120000Y-146225000D01*
X146225000Y-136880000D02*
X142600000Y-133255000D01*
X114500000Y-143500000D02*
X114500000Y-144845000D01*
X136880000Y-113120000D02*
X136880000Y-103775000D01*
X134500000Y-115500000D02*
X136880000Y-113120000D01*
X129000000Y-120010000D02*
X129010000Y-120010000D01*
X142600000Y-133255000D02*
X142600000Y-124000000D01*
X123805000Y-121195000D02*
X123556765Y-121443235D01*
X125000000Y-121195000D02*
X126185000Y-120010000D01*
X116730000Y-113120000D02*
X103775000Y-113120000D01*
X125000000Y-121195000D02*
X124805000Y-121195000D01*
X125000000Y-121195000D02*
X123805000Y-121195000D01*
X129010000Y-120010000D02*
X129500000Y-120500000D01*
X126185000Y-120010000D02*
X129000000Y-120010000D01*
%TO.N,+3.3V*%
X125000000Y-146225000D02*
X125000000Y-145000000D01*
X125000000Y-116115000D02*
X127885000Y-116115000D01*
X129000000Y-118990000D02*
X131000000Y-120990000D01*
X128500000Y-115500000D02*
X128500000Y-107275000D01*
X128500000Y-107275000D02*
X125000000Y-103775000D01*
X125000000Y-116115000D02*
X127875000Y-118990000D01*
X127885000Y-116115000D02*
X128500000Y-115500000D01*
X127875000Y-118990000D02*
X129000000Y-118990000D01*
%TO.N,SCL*%
X125000000Y-123735000D02*
X126235000Y-123735000D01*
X118345000Y-117080000D02*
X103775000Y-117080000D01*
X126725000Y-122010000D02*
X125000000Y-123735000D01*
X125000000Y-123735000D02*
X118345000Y-117080000D01*
X131000000Y-122010000D02*
X132920000Y-120090000D01*
X131000000Y-122010000D02*
X126725000Y-122010000D01*
X144580000Y-132920000D02*
X146225000Y-132920000D01*
X132920000Y-120090000D02*
X132920000Y-103775000D01*
X126235000Y-123735000D02*
X128000000Y-125500000D01*
X144000000Y-133500000D02*
X144580000Y-132920000D01*
X117080000Y-144420000D02*
X117080000Y-146225000D01*
X118500000Y-143000000D02*
X117080000Y-144420000D01*
%TO.N,+5V*%
X142000000Y-123040000D02*
X142000000Y-133185000D01*
X106500000Y-128500000D02*
X104235000Y-128500000D01*
X125000000Y-113575000D02*
X124575000Y-114000000D01*
X104235000Y-128500000D02*
X103775000Y-128960000D01*
X124575000Y-114000000D02*
X120000000Y-114000000D01*
X125000000Y-113575000D02*
X125000000Y-107735000D01*
X125000000Y-113575000D02*
X126975000Y-113575000D01*
X144000000Y-121040000D02*
X146225000Y-121040000D01*
X126975000Y-113575000D02*
X127900000Y-114500000D01*
X143500000Y-121000000D02*
X143540000Y-121040000D01*
X144000000Y-121040000D02*
X142000000Y-123040000D01*
X125000000Y-107735000D02*
X121040000Y-103775000D01*
X142000000Y-133185000D02*
X128960000Y-146225000D01*
X143540000Y-121040000D02*
X144000000Y-121040000D01*
%TO.N,GPIO22*%
X143000000Y-119000000D02*
X143000000Y-116345000D01*
X125000000Y-136435000D02*
X125565000Y-136435000D01*
X125565000Y-136435000D02*
X143000000Y-119000000D01*
X143000000Y-116345000D02*
X146225000Y-113120000D01*
%TO.N,GPIO04*%
X119475000Y-136880000D02*
X103775000Y-136880000D01*
X125000000Y-131355000D02*
X119475000Y-136880000D01*
%TO.N,GND*%
X107460000Y-121040000D02*
X107500000Y-121000000D01*
X121040000Y-146225000D02*
X123000000Y-144265000D01*
X144685000Y-130500000D02*
X144000000Y-130500000D01*
X130500000Y-105315000D02*
X130500000Y-107500000D01*
X128960000Y-103775000D02*
X130500000Y-105315000D01*
X123000000Y-144265000D02*
X123000000Y-144000000D01*
X123845000Y-117500000D02*
X122500000Y-117500000D01*
X125000000Y-118655000D02*
X123845000Y-117500000D01*
X103775000Y-121040000D02*
X107460000Y-121040000D01*
X146225000Y-128960000D02*
X144685000Y-130500000D01*
%TO.N,LED.DIN*%
X125000000Y-126275000D02*
X134125000Y-126275000D01*
X132500000Y-134500000D02*
X132500000Y-139400000D01*
X123275000Y-126275000D02*
X125000000Y-126275000D01*
X145805000Y-117500000D02*
X146225000Y-117080000D01*
X132920000Y-145420000D02*
X132920000Y-146225000D01*
X134125000Y-126275000D02*
X142400000Y-118000000D01*
X106080000Y-132920000D02*
X103775000Y-132920000D01*
X132000000Y-144500000D02*
X132920000Y-145420000D01*
X134125000Y-126275000D02*
X134125000Y-127026470D01*
X117080000Y-103775000D02*
X117080000Y-112080000D01*
X117080000Y-112080000D02*
X121000000Y-116000000D01*
X134125000Y-127026470D02*
X133825735Y-127325735D01*
X144000000Y-117500000D02*
X145805000Y-117500000D01*
X123000000Y-126000000D02*
X123275000Y-126275000D01*
X107000000Y-132000000D02*
X106080000Y-132920000D01*
X132500000Y-139400000D02*
X130000000Y-141900000D01*
%TO.N,GPIO27*%
X123849000Y-136911760D02*
X129437240Y-142500000D01*
X135500000Y-142500000D02*
X136880000Y-143880000D01*
X123849000Y-135046000D02*
X123849000Y-136911760D01*
X136880000Y-143880000D02*
X136880000Y-146225000D01*
X125000000Y-133895000D02*
X123849000Y-135046000D01*
X129437240Y-142500000D02*
X131000000Y-142500000D01*
%TO.N,GPIO17*%
X113000000Y-103895000D02*
X113120000Y-103775000D01*
X113120000Y-105120000D02*
X113120000Y-103775000D01*
X113000000Y-106500000D02*
X113000000Y-103895000D01*
X117000000Y-122017081D02*
X117000000Y-118000000D01*
X125000000Y-128815000D02*
X123797919Y-128815000D01*
X123797919Y-128815000D02*
X117000000Y-122017081D01*
%TD*%
%TA.AperFunction,Conductor*%
%TO.N,+3.3V*%
G36*
X123663178Y-114620185D02*
G01*
X123700637Y-114660418D01*
X123700888Y-114660231D01*
X123702635Y-114662565D01*
X123704973Y-114665076D01*
X123706207Y-114667336D01*
X123792452Y-114782544D01*
X123792455Y-114782547D01*
X123907664Y-114868793D01*
X123907671Y-114868797D01*
X123935507Y-114879179D01*
X124039598Y-114918002D01*
X124095531Y-114959873D01*
X124119949Y-115025337D01*
X124105098Y-115093610D01*
X124083947Y-115121865D01*
X123970271Y-115235541D01*
X123845379Y-115407442D01*
X123748904Y-115596782D01*
X123683242Y-115798870D01*
X123683242Y-115798873D01*
X123672769Y-115865000D01*
X124566988Y-115865000D01*
X124534075Y-115922007D01*
X124500000Y-116049174D01*
X124500000Y-116180826D01*
X124534075Y-116307993D01*
X124566988Y-116365000D01*
X123672769Y-116365000D01*
X123683242Y-116431126D01*
X123683242Y-116431129D01*
X123748904Y-116633217D01*
X123792718Y-116719205D01*
X123805614Y-116787874D01*
X123779338Y-116852614D01*
X123722232Y-116892872D01*
X123682233Y-116899500D01*
X123079766Y-116899500D01*
X123012727Y-116879815D01*
X123010875Y-116878602D01*
X122879185Y-116790609D01*
X122879172Y-116790602D01*
X122733501Y-116730264D01*
X122733489Y-116730261D01*
X122578845Y-116699500D01*
X122578842Y-116699500D01*
X122421158Y-116699500D01*
X122421155Y-116699500D01*
X122266510Y-116730261D01*
X122266498Y-116730264D01*
X122120827Y-116790602D01*
X122120814Y-116790609D01*
X121989711Y-116878210D01*
X121989707Y-116878213D01*
X121878213Y-116989707D01*
X121790214Y-117121406D01*
X121736601Y-117166210D01*
X121667276Y-117174917D01*
X121604249Y-117144762D01*
X121599431Y-117140195D01*
X121359804Y-116900568D01*
X121326319Y-116839245D01*
X121331303Y-116769553D01*
X121373175Y-116713620D01*
X121378594Y-116709785D01*
X121457806Y-116656857D01*
X121510289Y-116621789D01*
X121621789Y-116510289D01*
X121709394Y-116379179D01*
X121769737Y-116233497D01*
X121800500Y-116078842D01*
X121800500Y-115921158D01*
X121800500Y-115921155D01*
X121800499Y-115921153D01*
X121789226Y-115864480D01*
X121769737Y-115766503D01*
X121736282Y-115685735D01*
X121709397Y-115620827D01*
X121709390Y-115620814D01*
X121621789Y-115489711D01*
X121621786Y-115489707D01*
X121510292Y-115378213D01*
X121510288Y-115378210D01*
X121379185Y-115290609D01*
X121379172Y-115290602D01*
X121233501Y-115230264D01*
X121233491Y-115230261D01*
X121078149Y-115199361D01*
X121016238Y-115166976D01*
X121014660Y-115165425D01*
X120661416Y-114812181D01*
X120627931Y-114750858D01*
X120632915Y-114681166D01*
X120674787Y-114625233D01*
X120740251Y-114600816D01*
X120749097Y-114600500D01*
X123596139Y-114600500D01*
X123663178Y-114620185D01*
G37*
%TD.AperFunction*%
%TA.AperFunction,Conductor*%
G36*
X145002702Y-100500617D02*
G01*
X145386771Y-100517386D01*
X145397506Y-100518326D01*
X145775971Y-100568152D01*
X145786597Y-100570025D01*
X146159284Y-100652648D01*
X146169710Y-100655442D01*
X146533765Y-100770227D01*
X146543911Y-100773920D01*
X146896578Y-100920000D01*
X146906369Y-100924566D01*
X147244942Y-101100816D01*
X147254310Y-101106224D01*
X147576244Y-101311318D01*
X147585105Y-101317523D01*
X147887930Y-101549889D01*
X147896217Y-101556843D01*
X148177635Y-101814715D01*
X148185284Y-101822364D01*
X148443156Y-102103782D01*
X148450110Y-102112069D01*
X148682476Y-102414894D01*
X148688681Y-102423755D01*
X148893775Y-102745689D01*
X148899183Y-102755057D01*
X149075430Y-103093623D01*
X149080002Y-103103427D01*
X149226075Y-103456078D01*
X149229775Y-103466244D01*
X149344554Y-103830278D01*
X149347354Y-103840727D01*
X149429971Y-104213389D01*
X149431849Y-104224042D01*
X149481671Y-104602473D01*
X149482614Y-104613249D01*
X149499382Y-104997297D01*
X149499500Y-105002706D01*
X149499500Y-144997293D01*
X149499382Y-145002702D01*
X149482614Y-145386750D01*
X149481671Y-145397526D01*
X149431849Y-145775957D01*
X149429971Y-145786610D01*
X149347354Y-146159272D01*
X149344554Y-146169721D01*
X149229775Y-146533755D01*
X149226075Y-146543921D01*
X149080002Y-146896572D01*
X149075430Y-146906376D01*
X148899183Y-147244942D01*
X148893775Y-147254310D01*
X148688681Y-147576244D01*
X148682476Y-147585105D01*
X148450110Y-147887930D01*
X148443156Y-147896217D01*
X148185284Y-148177635D01*
X148177635Y-148185284D01*
X147896217Y-148443156D01*
X147887930Y-148450110D01*
X147585105Y-148682476D01*
X147576244Y-148688681D01*
X147254310Y-148893775D01*
X147244942Y-148899183D01*
X146906376Y-149075430D01*
X146896572Y-149080002D01*
X146543921Y-149226075D01*
X146533755Y-149229775D01*
X146169721Y-149344554D01*
X146159272Y-149347354D01*
X145786610Y-149429971D01*
X145775957Y-149431849D01*
X145397526Y-149481671D01*
X145386750Y-149482614D01*
X145002703Y-149499382D01*
X144997294Y-149499500D01*
X105002706Y-149499500D01*
X104997297Y-149499382D01*
X104613249Y-149482614D01*
X104602473Y-149481671D01*
X104224042Y-149431849D01*
X104213389Y-149429971D01*
X103840727Y-149347354D01*
X103830278Y-149344554D01*
X103466244Y-149229775D01*
X103456078Y-149226075D01*
X103103427Y-149080002D01*
X103093623Y-149075430D01*
X102755057Y-148899183D01*
X102745689Y-148893775D01*
X102423755Y-148688681D01*
X102414894Y-148682476D01*
X102112069Y-148450110D01*
X102103782Y-148443156D01*
X101822364Y-148185284D01*
X101814715Y-148177635D01*
X101556843Y-147896217D01*
X101549889Y-147887930D01*
X101317523Y-147585105D01*
X101311318Y-147576244D01*
X101106224Y-147254310D01*
X101100816Y-147244942D01*
X100924566Y-146906369D01*
X100919997Y-146896572D01*
X100773920Y-146543911D01*
X100770224Y-146533755D01*
X100655442Y-146169710D01*
X100652648Y-146159284D01*
X100570025Y-145786597D01*
X100568152Y-145775971D01*
X100518326Y-145397506D01*
X100517386Y-145386771D01*
X100500618Y-145002702D01*
X100500500Y-144997293D01*
X100500500Y-144874038D01*
X103399500Y-144874038D01*
X103399500Y-145125962D01*
X103421410Y-145264297D01*
X103438910Y-145374785D01*
X103516760Y-145614383D01*
X103631132Y-145838848D01*
X103779201Y-146042649D01*
X103779205Y-146042654D01*
X103957345Y-146220794D01*
X103957350Y-146220798D01*
X104130018Y-146346248D01*
X104161155Y-146368870D01*
X104304184Y-146441747D01*
X104385616Y-146483239D01*
X104385618Y-146483239D01*
X104385621Y-146483241D01*
X104625215Y-146561090D01*
X104874038Y-146600500D01*
X104874039Y-146600500D01*
X105125961Y-146600500D01*
X105125962Y-146600500D01*
X105374785Y-146561090D01*
X105614379Y-146483241D01*
X105838845Y-146368870D01*
X106042656Y-146220793D01*
X106220793Y-146042656D01*
X106368870Y-145838845D01*
X106483241Y-145614379D01*
X106561090Y-145374785D01*
X106600500Y-145125962D01*
X106600500Y-145074984D01*
X111269500Y-145074984D01*
X111269500Y-147375015D01*
X111280000Y-147477795D01*
X111280001Y-147477796D01*
X111335186Y-147644335D01*
X111335187Y-147644337D01*
X111427286Y-147793651D01*
X111427289Y-147793655D01*
X111551344Y-147917710D01*
X111551348Y-147917713D01*
X111700662Y-148009812D01*
X111700664Y-148009813D01*
X111700666Y-148009814D01*
X111867203Y-148064999D01*
X111969992Y-148075500D01*
X111969997Y-148075500D01*
X114270003Y-148075500D01*
X114270008Y-148075500D01*
X114372797Y-148064999D01*
X114539334Y-148009814D01*
X114688655Y-147917711D01*
X114812711Y-147793655D01*
X114904814Y-147644334D01*
X114959999Y-147477797D01*
X114970500Y-147375008D01*
X114970500Y-146103711D01*
X115229500Y-146103711D01*
X115229500Y-146346288D01*
X115261161Y-146586785D01*
X115323947Y-146821104D01*
X115398539Y-147001185D01*
X115416776Y-147045212D01*
X115538064Y-147255289D01*
X115538066Y-147255292D01*
X115538067Y-147255293D01*
X115685733Y-147447736D01*
X115685739Y-147447743D01*
X115857256Y-147619260D01*
X115857263Y-147619266D01*
X115959788Y-147697936D01*
X116049711Y-147766936D01*
X116259788Y-147888224D01*
X116483900Y-147981054D01*
X116718211Y-148043838D01*
X116878940Y-148064998D01*
X116958711Y-148075500D01*
X116958712Y-148075500D01*
X117201289Y-148075500D01*
X117281052Y-148064999D01*
X117441789Y-148043838D01*
X117676100Y-147981054D01*
X117900212Y-147888224D01*
X118110289Y-147766936D01*
X118302738Y-147619265D01*
X118474265Y-147447738D01*
X118621936Y-147255289D01*
X118743224Y-147045212D01*
X118836054Y-146821100D01*
X118898838Y-146586789D01*
X118930500Y-146346288D01*
X118930500Y-146103712D01*
X118930500Y-146103711D01*
X119189500Y-146103711D01*
X119189500Y-146346288D01*
X119221161Y-146586785D01*
X119283947Y-146821104D01*
X119358539Y-147001185D01*
X119376776Y-147045212D01*
X119498064Y-147255289D01*
X119498066Y-147255292D01*
X119498067Y-147255293D01*
X119645733Y-147447736D01*
X119645739Y-147447743D01*
X119817256Y-147619260D01*
X119817263Y-147619266D01*
X119919788Y-147697936D01*
X120009711Y-147766936D01*
X120219788Y-147888224D01*
X120443900Y-147981054D01*
X120678211Y-148043838D01*
X120838940Y-148064998D01*
X120918711Y-148075500D01*
X120918712Y-148075500D01*
X121161289Y-148075500D01*
X121241052Y-148064999D01*
X121401789Y-148043838D01*
X121636100Y-147981054D01*
X121860212Y-147888224D01*
X122070289Y-147766936D01*
X122262738Y-147619265D01*
X122262743Y-147619260D01*
X122319701Y-147562303D01*
X122434260Y-147447743D01*
X122434265Y-147447738D01*
X122581936Y-147255289D01*
X122703224Y-147045212D01*
X122796054Y-146821100D01*
X122858838Y-146586789D01*
X122890500Y-146346288D01*
X122890500Y-146103751D01*
X123150000Y-146103751D01*
X123150000Y-146346248D01*
X123150001Y-146346264D01*
X123181653Y-146586687D01*
X123244421Y-146820939D01*
X123337220Y-147044978D01*
X123337227Y-147044992D01*
X123458481Y-147255010D01*
X123527061Y-147344384D01*
X124245884Y-146625560D01*
X124246740Y-146627626D01*
X124339762Y-146766844D01*
X124458156Y-146885238D01*
X124597374Y-146978260D01*
X124599437Y-146979114D01*
X123880614Y-147697936D01*
X123880614Y-147697937D01*
X123969989Y-147766517D01*
X123969996Y-147766522D01*
X124180007Y-147887772D01*
X124180021Y-147887779D01*
X124404060Y-147980578D01*
X124638312Y-148043346D01*
X124878735Y-148074998D01*
X124878752Y-148075000D01*
X125121248Y-148075000D01*
X125121264Y-148074998D01*
X125361687Y-148043346D01*
X125595939Y-147980578D01*
X125819978Y-147887779D01*
X125819992Y-147887772D01*
X126030016Y-147766515D01*
X126119384Y-147697939D01*
X126119384Y-147697936D01*
X125400562Y-146979114D01*
X125402626Y-146978260D01*
X125541844Y-146885238D01*
X125660238Y-146766844D01*
X125753260Y-146627626D01*
X125754114Y-146625562D01*
X126472936Y-147344384D01*
X126472939Y-147344384D01*
X126541515Y-147255016D01*
X126662772Y-147044992D01*
X126662779Y-147044978D01*
X126755578Y-146820939D01*
X126818346Y-146586687D01*
X126849998Y-146346264D01*
X126850000Y-146346248D01*
X126850000Y-146103751D01*
X126849998Y-146103735D01*
X126818346Y-145863312D01*
X126755578Y-145629060D01*
X126662779Y-145405021D01*
X126662772Y-145405007D01*
X126541522Y-145194996D01*
X126541517Y-145194989D01*
X126472937Y-145105614D01*
X126472936Y-145105614D01*
X125754114Y-145824436D01*
X125753260Y-145822374D01*
X125660238Y-145683156D01*
X125541844Y-145564762D01*
X125402626Y-145471740D01*
X125400560Y-145470884D01*
X126119384Y-144752061D01*
X126030010Y-144683481D01*
X125819992Y-144562227D01*
X125819978Y-144562220D01*
X125595939Y-144469421D01*
X125361687Y-144406653D01*
X125121264Y-144375001D01*
X125121248Y-144375000D01*
X124878752Y-144375000D01*
X124878735Y-144375001D01*
X124638312Y-144406653D01*
X124404060Y-144469421D01*
X124180021Y-144562220D01*
X124180006Y-144562227D01*
X123969990Y-144683480D01*
X123880614Y-144752060D01*
X123880614Y-144752061D01*
X124599438Y-145470885D01*
X124597374Y-145471740D01*
X124458156Y-145564762D01*
X124339762Y-145683156D01*
X124246740Y-145822374D01*
X124245885Y-145824438D01*
X123527061Y-145105614D01*
X123527060Y-145105614D01*
X123458480Y-145194990D01*
X123337227Y-145405006D01*
X123337220Y-145405021D01*
X123244421Y-145629060D01*
X123181653Y-145863312D01*
X123150001Y-146103735D01*
X123150000Y-146103751D01*
X122890500Y-146103751D01*
X122890500Y-146103712D01*
X122858838Y-145863211D01*
X122796054Y-145628900D01*
X122736751Y-145485732D01*
X122729283Y-145416266D01*
X122760558Y-145353787D01*
X122763602Y-145350631D01*
X123447885Y-144666349D01*
X123459428Y-144656876D01*
X123460656Y-144655216D01*
X123462137Y-144654653D01*
X123466669Y-144650934D01*
X123510289Y-144621789D01*
X123621789Y-144510289D01*
X123709394Y-144379179D01*
X123769737Y-144233497D01*
X123800500Y-144078842D01*
X123800500Y-143921158D01*
X123800500Y-143921155D01*
X123800499Y-143921153D01*
X123780429Y-143820254D01*
X123769737Y-143766503D01*
X123741079Y-143697316D01*
X123709397Y-143620827D01*
X123709390Y-143620814D01*
X123621789Y-143489711D01*
X123621786Y-143489707D01*
X123510292Y-143378213D01*
X123510288Y-143378210D01*
X123379185Y-143290609D01*
X123379172Y-143290602D01*
X123233501Y-143230264D01*
X123233489Y-143230261D01*
X123078845Y-143199500D01*
X123078842Y-143199500D01*
X122921158Y-143199500D01*
X122921155Y-143199500D01*
X122766510Y-143230261D01*
X122766498Y-143230264D01*
X122620827Y-143290602D01*
X122620814Y-143290609D01*
X122489711Y-143378210D01*
X122489707Y-143378213D01*
X122378213Y-143489707D01*
X122378210Y-143489711D01*
X122290609Y-143620814D01*
X122290602Y-143620827D01*
X122230264Y-143766498D01*
X122230261Y-143766510D01*
X122199500Y-143921153D01*
X122199500Y-143921158D01*
X122199500Y-144078842D01*
X122199501Y-144078846D01*
X122209369Y-144128459D01*
X122203140Y-144198051D01*
X122175432Y-144240330D01*
X121914397Y-144501366D01*
X121853074Y-144534851D01*
X121783383Y-144529867D01*
X121779263Y-144528246D01*
X121636104Y-144468947D01*
X121518944Y-144437554D01*
X121401789Y-144406162D01*
X121401788Y-144406161D01*
X121401785Y-144406161D01*
X121161289Y-144374500D01*
X121161288Y-144374500D01*
X120918712Y-144374500D01*
X120918711Y-144374500D01*
X120678214Y-144406161D01*
X120443895Y-144468947D01*
X120219794Y-144561773D01*
X120219785Y-144561777D01*
X120009706Y-144683067D01*
X119817263Y-144830733D01*
X119817256Y-144830739D01*
X119645739Y-145002256D01*
X119645733Y-145002263D01*
X119498067Y-145194706D01*
X119498064Y-145194710D01*
X119498064Y-145194711D01*
X119493684Y-145202298D01*
X119376777Y-145404785D01*
X119376773Y-145404794D01*
X119283947Y-145628895D01*
X119221161Y-145863214D01*
X119189500Y-146103711D01*
X118930500Y-146103711D01*
X118898838Y-145863211D01*
X118836054Y-145628900D01*
X118743224Y-145404788D01*
X118621936Y-145194711D01*
X118530073Y-145074992D01*
X118474266Y-145002263D01*
X118474260Y-145002256D01*
X118302743Y-144830739D01*
X118302736Y-144830733D01*
X118110296Y-144683069D01*
X118110294Y-144683067D01*
X118110289Y-144683064D01*
X117968677Y-144601304D01*
X117920462Y-144550736D01*
X117907240Y-144482129D01*
X117933208Y-144417265D01*
X117942987Y-144406246D01*
X118514662Y-143834572D01*
X118575983Y-143801089D01*
X118578150Y-143800638D01*
X118636085Y-143789113D01*
X118733497Y-143769737D01*
X118879179Y-143709394D01*
X119010289Y-143621789D01*
X119121789Y-143510289D01*
X119209394Y-143379179D01*
X119269737Y-143233497D01*
X119300500Y-143078842D01*
X119300500Y-142921158D01*
X119300500Y-142921155D01*
X119300499Y-142921153D01*
X119274531Y-142790606D01*
X119269737Y-142766503D01*
X119256062Y-142733489D01*
X119209397Y-142620827D01*
X119209390Y-142620814D01*
X119121789Y-142489711D01*
X119121786Y-142489707D01*
X119010292Y-142378213D01*
X119010288Y-142378210D01*
X118879185Y-142290609D01*
X118879172Y-142290602D01*
X118733501Y-142230264D01*
X118733489Y-142230261D01*
X118578845Y-142199500D01*
X118578842Y-142199500D01*
X118421158Y-142199500D01*
X118421155Y-142199500D01*
X118266510Y-142230261D01*
X118266498Y-142230264D01*
X118120827Y-142290602D01*
X118120814Y-142290609D01*
X117989711Y-142378210D01*
X117989707Y-142378213D01*
X117878213Y-142489707D01*
X117878210Y-142489711D01*
X117790609Y-142620814D01*
X117790602Y-142620827D01*
X117730264Y-142766498D01*
X117730261Y-142766508D01*
X117699361Y-142921850D01*
X117666976Y-142983761D01*
X117665425Y-142985339D01*
X116599481Y-144051282D01*
X116599479Y-144051285D01*
X116583568Y-144078844D01*
X116564550Y-144111785D01*
X116520423Y-144188215D01*
X116479499Y-144340943D01*
X116479499Y-144340945D01*
X116479499Y-144387913D01*
X116459814Y-144454952D01*
X116407010Y-144500707D01*
X116402953Y-144502474D01*
X116259787Y-144561776D01*
X116259780Y-144561779D01*
X116049706Y-144683067D01*
X115857263Y-144830733D01*
X115857256Y-144830739D01*
X115685739Y-145002256D01*
X115685733Y-145002263D01*
X115538067Y-145194706D01*
X115538064Y-145194710D01*
X115538064Y-145194711D01*
X115533684Y-145202298D01*
X115416777Y-145404785D01*
X115416773Y-145404794D01*
X115323947Y-145628895D01*
X115261161Y-145863214D01*
X115229500Y-146103711D01*
X114970500Y-146103711D01*
X114970500Y-145264297D01*
X114987113Y-145202298D01*
X115054521Y-145085541D01*
X115059577Y-145076784D01*
X115100501Y-144924057D01*
X115100501Y-144765942D01*
X115100501Y-144758347D01*
X115100500Y-144758329D01*
X115100500Y-144079765D01*
X115120185Y-144012726D01*
X115121398Y-144010874D01*
X115181347Y-143921155D01*
X115209394Y-143879179D01*
X115269737Y-143733497D01*
X115300500Y-143578842D01*
X115300500Y-143421158D01*
X115300500Y-143421155D01*
X115300499Y-143421153D01*
X115274531Y-143290606D01*
X115269737Y-143266503D01*
X115256062Y-143233489D01*
X115209397Y-143120827D01*
X115209390Y-143120814D01*
X115121789Y-142989711D01*
X115121786Y-142989707D01*
X115010292Y-142878213D01*
X115010288Y-142878210D01*
X114879185Y-142790609D01*
X114879172Y-142790602D01*
X114733501Y-142730264D01*
X114733489Y-142730261D01*
X114578845Y-142699500D01*
X114578842Y-142699500D01*
X114421158Y-142699500D01*
X114421155Y-142699500D01*
X114266510Y-142730261D01*
X114266498Y-142730264D01*
X114120827Y-142790602D01*
X114120814Y-142790609D01*
X113989711Y-142878210D01*
X113989707Y-142878213D01*
X113878213Y-142989707D01*
X113878210Y-142989711D01*
X113790609Y-143120814D01*
X113790602Y-143120827D01*
X113730264Y-143266498D01*
X113730261Y-143266510D01*
X113699500Y-143421153D01*
X113699500Y-143578846D01*
X113730261Y-143733489D01*
X113730264Y-143733501D01*
X113790602Y-143879172D01*
X113790609Y-143879185D01*
X113878602Y-144010874D01*
X113884252Y-144028920D01*
X113894477Y-144044830D01*
X113898928Y-144075789D01*
X113899480Y-144077551D01*
X113899500Y-144079765D01*
X113899500Y-144250500D01*
X113879815Y-144317539D01*
X113827011Y-144363294D01*
X113775500Y-144374500D01*
X111969984Y-144374500D01*
X111867204Y-144385000D01*
X111867203Y-144385001D01*
X111700664Y-144440186D01*
X111700662Y-144440187D01*
X111551348Y-144532286D01*
X111551344Y-144532289D01*
X111427289Y-144656344D01*
X111427286Y-144656348D01*
X111335187Y-144805662D01*
X111335186Y-144805664D01*
X111280001Y-144972203D01*
X111280000Y-144972204D01*
X111269500Y-145074984D01*
X106600500Y-145074984D01*
X106600500Y-144874038D01*
X106561090Y-144625215D01*
X106483241Y-144385621D01*
X106483239Y-144385618D01*
X106483239Y-144385616D01*
X106414393Y-144250500D01*
X106368870Y-144161155D01*
X106289045Y-144051285D01*
X106220798Y-143957350D01*
X106220794Y-143957345D01*
X106042654Y-143779205D01*
X106042649Y-143779201D01*
X105838848Y-143631132D01*
X105838847Y-143631131D01*
X105838845Y-143631130D01*
X105736224Y-143578842D01*
X105614383Y-143516760D01*
X105374785Y-143438910D01*
X105262685Y-143421155D01*
X105125962Y-143399500D01*
X104874038Y-143399500D01*
X104749626Y-143419205D01*
X104625214Y-143438910D01*
X104385616Y-143516760D01*
X104161151Y-143631132D01*
X103957350Y-143779201D01*
X103957345Y-143779205D01*
X103779205Y-143957345D01*
X103779201Y-143957350D01*
X103631132Y-144161151D01*
X103516760Y-144385616D01*
X103438910Y-144625214D01*
X103418819Y-144752061D01*
X103399500Y-144874038D01*
X100500500Y-144874038D01*
X100500500Y-132798711D01*
X101924500Y-132798711D01*
X101924500Y-133041288D01*
X101956161Y-133281785D01*
X102018947Y-133516104D01*
X102107654Y-133730261D01*
X102111776Y-133740212D01*
X102233064Y-133950289D01*
X102233066Y-133950292D01*
X102233067Y-133950293D01*
X102380733Y-134142736D01*
X102380739Y-134142743D01*
X102552256Y-134314260D01*
X102552262Y-134314265D01*
X102744711Y-134461936D01*
X102954788Y-134583224D01*
X103178900Y-134676054D01*
X103413211Y-134738838D01*
X103593586Y-134762584D01*
X103653711Y-134770500D01*
X103653712Y-134770500D01*
X103896289Y-134770500D01*
X103944388Y-134764167D01*
X104136789Y-134738838D01*
X104371100Y-134676054D01*
X104595212Y-134583224D01*
X104805289Y-134461936D01*
X104997738Y-134314265D01*
X105169265Y-134142738D01*
X105316936Y-133950289D01*
X105438224Y-133740212D01*
X105497524Y-133597047D01*
X105541364Y-133542644D01*
X105607658Y-133520579D01*
X105612085Y-133520500D01*
X105993331Y-133520500D01*
X105993347Y-133520501D01*
X106000943Y-133520501D01*
X106159054Y-133520501D01*
X106159057Y-133520501D01*
X106311785Y-133479577D01*
X106361904Y-133450639D01*
X106448716Y-133400520D01*
X106560520Y-133288716D01*
X106560520Y-133288714D01*
X106570728Y-133278507D01*
X106570729Y-133278504D01*
X107014662Y-132834572D01*
X107075983Y-132801089D01*
X107078150Y-132800638D01*
X107136085Y-132789113D01*
X107233497Y-132769737D01*
X107379179Y-132709394D01*
X107510289Y-132621789D01*
X107621789Y-132510289D01*
X107709394Y-132379179D01*
X107769737Y-132233497D01*
X107800500Y-132078842D01*
X107800500Y-131921158D01*
X107800500Y-131921155D01*
X107800499Y-131921153D01*
X107784261Y-131839522D01*
X107769737Y-131766503D01*
X107730280Y-131671244D01*
X107709397Y-131620827D01*
X107709390Y-131620814D01*
X107621789Y-131489711D01*
X107621786Y-131489707D01*
X107510292Y-131378213D01*
X107510288Y-131378210D01*
X107379185Y-131290609D01*
X107379172Y-131290602D01*
X107233501Y-131230264D01*
X107233489Y-131230261D01*
X107078845Y-131199500D01*
X107078842Y-131199500D01*
X106921158Y-131199500D01*
X106921155Y-131199500D01*
X106766510Y-131230261D01*
X106766498Y-131230264D01*
X106620827Y-131290602D01*
X106620814Y-131290609D01*
X106489711Y-131378210D01*
X106489707Y-131378213D01*
X106378213Y-131489707D01*
X106378210Y-131489711D01*
X106290609Y-131620814D01*
X106290602Y-131620827D01*
X106230264Y-131766498D01*
X106230261Y-131766508D01*
X106199361Y-131921850D01*
X106166976Y-131983761D01*
X106165425Y-131985339D01*
X105867584Y-132283181D01*
X105840656Y-132297884D01*
X105814838Y-132314477D01*
X105808637Y-132315368D01*
X105806261Y-132316666D01*
X105779903Y-132319500D01*
X105612085Y-132319500D01*
X105545046Y-132299815D01*
X105499291Y-132247011D01*
X105497524Y-132242952D01*
X105438229Y-132099799D01*
X105438226Y-132099793D01*
X105438224Y-132099788D01*
X105316936Y-131889711D01*
X105222392Y-131766498D01*
X105169266Y-131697263D01*
X105169260Y-131697256D01*
X104997743Y-131525739D01*
X104997736Y-131525733D01*
X104805293Y-131378067D01*
X104805292Y-131378066D01*
X104805289Y-131378064D01*
X104595212Y-131256776D01*
X104595205Y-131256773D01*
X104371104Y-131163947D01*
X104136785Y-131101161D01*
X103896289Y-131069500D01*
X103896288Y-131069500D01*
X103653712Y-131069500D01*
X103653711Y-131069500D01*
X103413214Y-131101161D01*
X103178895Y-131163947D01*
X102954794Y-131256773D01*
X102954785Y-131256777D01*
X102744706Y-131378067D01*
X102552263Y-131525733D01*
X102552256Y-131525739D01*
X102380739Y-131697256D01*
X102380733Y-131697263D01*
X102233067Y-131889706D01*
X102111777Y-132099785D01*
X102111773Y-132099794D01*
X102018947Y-132323895D01*
X101956161Y-132558214D01*
X101924500Y-132798711D01*
X100500500Y-132798711D01*
X100500500Y-128838711D01*
X101924500Y-128838711D01*
X101924500Y-129081288D01*
X101956161Y-129321785D01*
X102018947Y-129556104D01*
X102091086Y-129730263D01*
X102111776Y-129780212D01*
X102233064Y-129990289D01*
X102233066Y-129990292D01*
X102233067Y-129990293D01*
X102380733Y-130182736D01*
X102380739Y-130182743D01*
X102552256Y-130354260D01*
X102552262Y-130354265D01*
X102744711Y-130501936D01*
X102954788Y-130623224D01*
X103178900Y-130716054D01*
X103413211Y-130778838D01*
X103593586Y-130802584D01*
X103653711Y-130810500D01*
X103653712Y-130810500D01*
X103896289Y-130810500D01*
X103944388Y-130804167D01*
X104136789Y-130778838D01*
X104371100Y-130716054D01*
X104595212Y-130623224D01*
X104805289Y-130501936D01*
X104997738Y-130354265D01*
X105169265Y-130182738D01*
X105316936Y-129990289D01*
X105438224Y-129780212D01*
X105531054Y-129556100D01*
X105593838Y-129321789D01*
X105608777Y-129208314D01*
X105609087Y-129207613D01*
X105608978Y-129206853D01*
X105623197Y-129175716D01*
X105637043Y-129144418D01*
X105637684Y-129143995D01*
X105638003Y-129143297D01*
X105666795Y-129124793D01*
X105695368Y-129105947D01*
X105696350Y-129105799D01*
X105696781Y-129105523D01*
X105731716Y-129100500D01*
X105920234Y-129100500D01*
X105987273Y-129120185D01*
X105989125Y-129121398D01*
X106120814Y-129209390D01*
X106120827Y-129209397D01*
X106266498Y-129269735D01*
X106266503Y-129269737D01*
X106396122Y-129295520D01*
X106421153Y-129300499D01*
X106421156Y-129300500D01*
X106421158Y-129300500D01*
X106578844Y-129300500D01*
X106578845Y-129300499D01*
X106733497Y-129269737D01*
X106879179Y-129209394D01*
X107010289Y-129121789D01*
X107121789Y-129010289D01*
X107209394Y-128879179D01*
X107269737Y-128733497D01*
X107300500Y-128578842D01*
X107300500Y-128421158D01*
X107300500Y-128421155D01*
X107300499Y-128421153D01*
X107269737Y-128266503D01*
X107217253Y-128139794D01*
X107209397Y-128120827D01*
X107209390Y-128120814D01*
X107121789Y-127989711D01*
X107121786Y-127989707D01*
X107010292Y-127878213D01*
X107010288Y-127878210D01*
X106879185Y-127790609D01*
X106879172Y-127790602D01*
X106733501Y-127730264D01*
X106733489Y-127730261D01*
X106578845Y-127699500D01*
X106578842Y-127699500D01*
X106421158Y-127699500D01*
X106421155Y-127699500D01*
X106266510Y-127730261D01*
X106266498Y-127730264D01*
X106120827Y-127790602D01*
X106120814Y-127790609D01*
X105989125Y-127878602D01*
X105922447Y-127899480D01*
X105920234Y-127899500D01*
X105354904Y-127899500D01*
X105287865Y-127879815D01*
X105256528Y-127850986D01*
X105169266Y-127737263D01*
X105169260Y-127737256D01*
X104997743Y-127565739D01*
X104997736Y-127565733D01*
X104805293Y-127418067D01*
X104805292Y-127418066D01*
X104805289Y-127418064D01*
X104595212Y-127296776D01*
X104595205Y-127296773D01*
X104371104Y-127203947D01*
X104136785Y-127141161D01*
X103896289Y-127109500D01*
X103896288Y-127109500D01*
X103653712Y-127109500D01*
X103653711Y-127109500D01*
X103413214Y-127141161D01*
X103178895Y-127203947D01*
X102954794Y-127296773D01*
X102954785Y-127296777D01*
X102744706Y-127418067D01*
X102552263Y-127565733D01*
X102552256Y-127565739D01*
X102380739Y-127737256D01*
X102380733Y-127737263D01*
X102233067Y-127929706D01*
X102233064Y-127929710D01*
X102233064Y-127929711D01*
X102228153Y-127938217D01*
X102111777Y-128139785D01*
X102111773Y-128139794D01*
X102018947Y-128363895D01*
X101956161Y-128598214D01*
X101924500Y-128838711D01*
X100500500Y-128838711D01*
X100500500Y-124878751D01*
X101925000Y-124878751D01*
X101925000Y-125121248D01*
X101925001Y-125121264D01*
X101956653Y-125361687D01*
X102019421Y-125595939D01*
X102112220Y-125819978D01*
X102112227Y-125819992D01*
X102233481Y-126030010D01*
X102302061Y-126119384D01*
X103020884Y-125400560D01*
X103021740Y-125402626D01*
X103114762Y-125541844D01*
X103233156Y-125660238D01*
X103372374Y-125753260D01*
X103374437Y-125754114D01*
X102655614Y-126472936D01*
X102655614Y-126472937D01*
X102744989Y-126541517D01*
X102744996Y-126541522D01*
X102955007Y-126662772D01*
X102955021Y-126662779D01*
X103179060Y-126755578D01*
X103413312Y-126818346D01*
X103653735Y-126849998D01*
X103653752Y-126850000D01*
X103896248Y-126850000D01*
X103896264Y-126849998D01*
X104136687Y-126818346D01*
X104370939Y-126755578D01*
X104594978Y-126662779D01*
X104594992Y-126662772D01*
X104805016Y-126541515D01*
X104894384Y-126472939D01*
X104894384Y-126472936D01*
X104175562Y-125754114D01*
X104177626Y-125753260D01*
X104316844Y-125660238D01*
X104435238Y-125541844D01*
X104528260Y-125402626D01*
X104529114Y-125400562D01*
X105247936Y-126119384D01*
X105247939Y-126119384D01*
X105316515Y-126030016D01*
X105437772Y-125819992D01*
X105437779Y-125819978D01*
X105530578Y-125595939D01*
X105593346Y-125361687D01*
X105624998Y-125121264D01*
X105625000Y-125121248D01*
X105625000Y-124878751D01*
X105624998Y-124878735D01*
X105593346Y-124638312D01*
X105530578Y-124404060D01*
X105437779Y-124180021D01*
X105437772Y-124180007D01*
X105316522Y-123969996D01*
X105316517Y-123969989D01*
X105247937Y-123880614D01*
X105247936Y-123880614D01*
X104529114Y-124599436D01*
X104528260Y-124597374D01*
X104435238Y-124458156D01*
X104316844Y-124339762D01*
X104177626Y-124246740D01*
X104175560Y-124245884D01*
X104894384Y-123527061D01*
X104805010Y-123458481D01*
X104594992Y-123337227D01*
X104594978Y-123337220D01*
X104370939Y-123244421D01*
X104136687Y-123181653D01*
X103896264Y-123150001D01*
X103896248Y-123150000D01*
X103653752Y-123150000D01*
X103653735Y-123150001D01*
X103413312Y-123181653D01*
X103179060Y-123244421D01*
X102955021Y-123337220D01*
X102955006Y-123337227D01*
X102744990Y-123458480D01*
X102655614Y-123527060D01*
X102655614Y-123527061D01*
X103374438Y-124245885D01*
X103372374Y-124246740D01*
X103233156Y-124339762D01*
X103114762Y-124458156D01*
X103021740Y-124597374D01*
X103020885Y-124599438D01*
X102302061Y-123880614D01*
X102302060Y-123880614D01*
X102233480Y-123969990D01*
X102112227Y-124180006D01*
X102112220Y-124180021D01*
X102019421Y-124404060D01*
X101956653Y-124638312D01*
X101925001Y-124878735D01*
X101925000Y-124878751D01*
X100500500Y-124878751D01*
X100500500Y-120918711D01*
X101924500Y-120918711D01*
X101924500Y-121161288D01*
X101956161Y-121401785D01*
X102018947Y-121636104D01*
X102111771Y-121860200D01*
X102111776Y-121860212D01*
X102233064Y-122070289D01*
X102233066Y-122070292D01*
X102233067Y-122070293D01*
X102380733Y-122262736D01*
X102380739Y-122262743D01*
X102552256Y-122434260D01*
X102552263Y-122434266D01*
X102644011Y-122504666D01*
X102744711Y-122581936D01*
X102954788Y-122703224D01*
X103178900Y-122796054D01*
X103413211Y-122858838D01*
X103593586Y-122882584D01*
X103653711Y-122890500D01*
X103653712Y-122890500D01*
X103896289Y-122890500D01*
X103944388Y-122884167D01*
X104136789Y-122858838D01*
X104371100Y-122796054D01*
X104595212Y-122703224D01*
X104805289Y-122581936D01*
X104997738Y-122434265D01*
X105169265Y-122262738D01*
X105316936Y-122070289D01*
X105438224Y-121860212D01*
X105497524Y-121717047D01*
X105541364Y-121662644D01*
X105607658Y-121640579D01*
X105612085Y-121640500D01*
X106980099Y-121640500D01*
X107047138Y-121660185D01*
X107048990Y-121661398D01*
X107120821Y-121709394D01*
X107120823Y-121709395D01*
X107120827Y-121709397D01*
X107202779Y-121743342D01*
X107266503Y-121769737D01*
X107421153Y-121800499D01*
X107421156Y-121800500D01*
X107421158Y-121800500D01*
X107578844Y-121800500D01*
X107578845Y-121800499D01*
X107733497Y-121769737D01*
X107846166Y-121723067D01*
X107879172Y-121709397D01*
X107879172Y-121709396D01*
X107879179Y-121709394D01*
X108010289Y-121621789D01*
X108121789Y-121510289D01*
X108209394Y-121379179D01*
X108269737Y-121233497D01*
X108300500Y-121078842D01*
X108300500Y-120921158D01*
X108300500Y-120921155D01*
X108300499Y-120921153D01*
X108288216Y-120859402D01*
X108269737Y-120766503D01*
X108256066Y-120733497D01*
X108209397Y-120620827D01*
X108209390Y-120620814D01*
X108121789Y-120489711D01*
X108121786Y-120489707D01*
X108010292Y-120378213D01*
X108010288Y-120378210D01*
X107879185Y-120290609D01*
X107879172Y-120290602D01*
X107733501Y-120230264D01*
X107733489Y-120230261D01*
X107578845Y-120199500D01*
X107578842Y-120199500D01*
X107421158Y-120199500D01*
X107421155Y-120199500D01*
X107266510Y-120230261D01*
X107266498Y-120230264D01*
X107120827Y-120290602D01*
X107120814Y-120290609D01*
X106989711Y-120378210D01*
X106989707Y-120378213D01*
X106964740Y-120403181D01*
X106903417Y-120436666D01*
X106877059Y-120439500D01*
X105612085Y-120439500D01*
X105545046Y-120419815D01*
X105499291Y-120367011D01*
X105497524Y-120362952D01*
X105438229Y-120219799D01*
X105438226Y-120219793D01*
X105438224Y-120219788D01*
X105316936Y-120009711D01*
X105169265Y-119817262D01*
X105169260Y-119817256D01*
X104997743Y-119645739D01*
X104997736Y-119645733D01*
X104805293Y-119498067D01*
X104805292Y-119498066D01*
X104805289Y-119498064D01*
X104595212Y-119376776D01*
X104575756Y-119368717D01*
X104371104Y-119283947D01*
X104176427Y-119231783D01*
X104136789Y-119221162D01*
X104136788Y-119221161D01*
X104136785Y-119221161D01*
X103896289Y-119189500D01*
X103896288Y-119189500D01*
X103653712Y-119189500D01*
X103653711Y-119189500D01*
X103413214Y-119221161D01*
X103178895Y-119283947D01*
X102954794Y-119376773D01*
X102954785Y-119376777D01*
X102780175Y-119477589D01*
X102757411Y-119490732D01*
X102744706Y-119498067D01*
X102552263Y-119645733D01*
X102552256Y-119645739D01*
X102380739Y-119817256D01*
X102380733Y-119817263D01*
X102233067Y-120009706D01*
X102111777Y-120219785D01*
X102111773Y-120219794D01*
X102018947Y-120443895D01*
X101956161Y-120678214D01*
X101924500Y-120918711D01*
X100500500Y-120918711D01*
X100500500Y-111969984D01*
X101924500Y-111969984D01*
X101924500Y-114270015D01*
X101935000Y-114372795D01*
X101935001Y-114372796D01*
X101990186Y-114539335D01*
X101990187Y-114539337D01*
X102082286Y-114688651D01*
X102082289Y-114688655D01*
X102206344Y-114812710D01*
X102206348Y-114812713D01*
X102355662Y-114904812D01*
X102355664Y-114904813D01*
X102355666Y-114904814D01*
X102522203Y-114959999D01*
X102624992Y-114970500D01*
X102624997Y-114970500D01*
X104925003Y-114970500D01*
X104925008Y-114970500D01*
X105027797Y-114959999D01*
X105194334Y-114904814D01*
X105343655Y-114812711D01*
X105467711Y-114688655D01*
X105559814Y-114539334D01*
X105614999Y-114372797D01*
X105625500Y-114270008D01*
X105625500Y-113844500D01*
X105645185Y-113777461D01*
X105697989Y-113731706D01*
X105749500Y-113720500D01*
X116429903Y-113720500D01*
X116496942Y-113740185D01*
X116517584Y-113756819D01*
X123270528Y-120509764D01*
X123282424Y-120531551D01*
X123297828Y-120551020D01*
X123298877Y-120561682D01*
X123304013Y-120571087D01*
X123302242Y-120595847D01*
X123304675Y-120620553D01*
X123299793Y-120630091D01*
X123299029Y-120640779D01*
X123284152Y-120660651D01*
X123272842Y-120682750D01*
X123262056Y-120690167D01*
X123257157Y-120696712D01*
X123245163Y-120704649D01*
X123237975Y-120708827D01*
X123177586Y-120733841D01*
X123061469Y-120811427D01*
X123058097Y-120813388D01*
X123027787Y-120820835D01*
X122997994Y-120830164D01*
X122994133Y-120829104D01*
X122990246Y-120830060D01*
X122960718Y-120819938D01*
X122930613Y-120811679D01*
X122926017Y-120808042D01*
X122924152Y-120807403D01*
X122922382Y-120805166D01*
X122908100Y-120793865D01*
X118832590Y-116718355D01*
X118832588Y-116718352D01*
X118713717Y-116599481D01*
X118713716Y-116599480D01*
X118626904Y-116549360D01*
X118626904Y-116549359D01*
X118626900Y-116549358D01*
X118576785Y-116520423D01*
X118424057Y-116479499D01*
X118265943Y-116479499D01*
X118258347Y-116479499D01*
X118258331Y-116479500D01*
X105612085Y-116479500D01*
X105545046Y-116459815D01*
X105499291Y-116407011D01*
X105497524Y-116402952D01*
X105438229Y-116259799D01*
X105438226Y-116259793D01*
X105438224Y-116259788D01*
X105316936Y-116049711D01*
X105256018Y-115970321D01*
X105169266Y-115857263D01*
X105169260Y-115857256D01*
X104997743Y-115685739D01*
X104997736Y-115685733D01*
X104805293Y-115538067D01*
X104805292Y-115538066D01*
X104805289Y-115538064D01*
X104595212Y-115416776D01*
X104572678Y-115407442D01*
X104371104Y-115323947D01*
X104168791Y-115269737D01*
X104136789Y-115261162D01*
X104136788Y-115261161D01*
X104136785Y-115261161D01*
X103896289Y-115229500D01*
X103896288Y-115229500D01*
X103653712Y-115229500D01*
X103653711Y-115229500D01*
X103413214Y-115261161D01*
X103178895Y-115323947D01*
X102954794Y-115416773D01*
X102954785Y-115416777D01*
X102744706Y-115538067D01*
X102552263Y-115685733D01*
X102552256Y-115685739D01*
X102380739Y-115857256D01*
X102380733Y-115857263D01*
X102233067Y-116049706D01*
X102233064Y-116049710D01*
X102233064Y-116049711D01*
X102227368Y-116059577D01*
X102111777Y-116259785D01*
X102111773Y-116259794D01*
X102018947Y-116483895D01*
X101956161Y-116718214D01*
X101924500Y-116958711D01*
X101924500Y-117201288D01*
X101956161Y-117441785D01*
X102018947Y-117676104D01*
X102064821Y-117786853D01*
X102111776Y-117900212D01*
X102233064Y-118110289D01*
X102233066Y-118110292D01*
X102233067Y-118110293D01*
X102380733Y-118302736D01*
X102380739Y-118302743D01*
X102552256Y-118474260D01*
X102552262Y-118474265D01*
X102744711Y-118621936D01*
X102954788Y-118743224D01*
X103178900Y-118836054D01*
X103413211Y-118898838D01*
X103593586Y-118922584D01*
X103653711Y-118930500D01*
X103653712Y-118930500D01*
X103896289Y-118930500D01*
X103944388Y-118924167D01*
X104136789Y-118898838D01*
X104371100Y-118836054D01*
X104595212Y-118743224D01*
X104805289Y-118621936D01*
X104997738Y-118474265D01*
X105169265Y-118302738D01*
X105316936Y-118110289D01*
X105438224Y-117900212D01*
X105497524Y-117757047D01*
X105541364Y-117702644D01*
X105607658Y-117680579D01*
X105612085Y-117680500D01*
X116096275Y-117680500D01*
X116163314Y-117700185D01*
X116209069Y-117752989D01*
X116219013Y-117822147D01*
X116217892Y-117828691D01*
X116199500Y-117921153D01*
X116199500Y-118078846D01*
X116230261Y-118233489D01*
X116230264Y-118233501D01*
X116290602Y-118379172D01*
X116290609Y-118379185D01*
X116378602Y-118510874D01*
X116399480Y-118577551D01*
X116399500Y-118579765D01*
X116399500Y-121930411D01*
X116399499Y-121930429D01*
X116399499Y-122096135D01*
X116399498Y-122096135D01*
X116440423Y-122248866D01*
X116465070Y-122291556D01*
X116465072Y-122291558D01*
X116519479Y-122385795D01*
X116519481Y-122385798D01*
X116638349Y-122504666D01*
X116638355Y-122504671D01*
X123313058Y-129179374D01*
X123313068Y-129179385D01*
X123317398Y-129183715D01*
X123317399Y-129183716D01*
X123429203Y-129295520D01*
X123494836Y-129333412D01*
X123516014Y-129345639D01*
X123516016Y-129345641D01*
X123566132Y-129374576D01*
X123566134Y-129374577D01*
X123718861Y-129415500D01*
X123718862Y-129415500D01*
X123718869Y-129415500D01*
X123726921Y-129416561D01*
X123726585Y-129419112D01*
X123781320Y-129435185D01*
X123824765Y-129483205D01*
X123844947Y-129522814D01*
X123844948Y-129522815D01*
X123969890Y-129694786D01*
X124120213Y-129845109D01*
X124292182Y-129970050D01*
X124300946Y-129974516D01*
X124351742Y-130022491D01*
X124368536Y-130090312D01*
X124345998Y-130156447D01*
X124300946Y-130195484D01*
X124292182Y-130199949D01*
X124120213Y-130324890D01*
X123969890Y-130475213D01*
X123844951Y-130647179D01*
X123748444Y-130836585D01*
X123682753Y-131038760D01*
X123649500Y-131248713D01*
X123649500Y-131461286D01*
X123682754Y-131671244D01*
X123682754Y-131671247D01*
X123696491Y-131713523D01*
X123698486Y-131783364D01*
X123666241Y-131839522D01*
X119262584Y-136243181D01*
X119201261Y-136276666D01*
X119174903Y-136279500D01*
X105612085Y-136279500D01*
X105545046Y-136259815D01*
X105499291Y-136207011D01*
X105497524Y-136202952D01*
X105438229Y-136059799D01*
X105438226Y-136059793D01*
X105438224Y-136059788D01*
X105316936Y-135849711D01*
X105225073Y-135729992D01*
X105169266Y-135657263D01*
X105169260Y-135657256D01*
X104997743Y-135485739D01*
X104997736Y-135485733D01*
X104805293Y-135338067D01*
X104805292Y-135338066D01*
X104805289Y-135338064D01*
X104595212Y-135216776D01*
X104595205Y-135216773D01*
X104371104Y-135123947D01*
X104136785Y-135061161D01*
X103896289Y-135029500D01*
X103896288Y-135029500D01*
X103653712Y-135029500D01*
X103653711Y-135029500D01*
X103413214Y-135061161D01*
X103178895Y-135123947D01*
X102954794Y-135216773D01*
X102954785Y-135216777D01*
X102744706Y-135338067D01*
X102552263Y-135485733D01*
X102552256Y-135485739D01*
X102380739Y-135657256D01*
X102380733Y-135657263D01*
X102233067Y-135849706D01*
X102111777Y-136059785D01*
X102111773Y-136059794D01*
X102018947Y-136283895D01*
X101956161Y-136518214D01*
X101924500Y-136758711D01*
X101924500Y-137001288D01*
X101956161Y-137241785D01*
X102018947Y-137476104D01*
X102106120Y-137686557D01*
X102111776Y-137700212D01*
X102233064Y-137910289D01*
X102233066Y-137910292D01*
X102233067Y-137910293D01*
X102380733Y-138102736D01*
X102380739Y-138102743D01*
X102552256Y-138274260D01*
X102552263Y-138274266D01*
X102665321Y-138361018D01*
X102744711Y-138421936D01*
X102954788Y-138543224D01*
X103178900Y-138636054D01*
X103413211Y-138698838D01*
X103573940Y-138719998D01*
X103653711Y-138730500D01*
X103653712Y-138730500D01*
X103896289Y-138730500D01*
X103976052Y-138719999D01*
X104136789Y-138698838D01*
X104371100Y-138636054D01*
X104595212Y-138543224D01*
X104805289Y-138421936D01*
X104997738Y-138274265D01*
X105169265Y-138102738D01*
X105316936Y-137910289D01*
X105438224Y-137700212D01*
X105497524Y-137557047D01*
X105541364Y-137502644D01*
X105607658Y-137480579D01*
X105612085Y-137480500D01*
X119388331Y-137480500D01*
X119388347Y-137480501D01*
X119395943Y-137480501D01*
X119554054Y-137480501D01*
X119554057Y-137480501D01*
X119706785Y-137439577D01*
X119756904Y-137410639D01*
X119843716Y-137360520D01*
X119955520Y-137248716D01*
X119955520Y-137248714D01*
X119965728Y-137238507D01*
X119965730Y-137238504D01*
X123437819Y-133766415D01*
X123499142Y-133732930D01*
X123568834Y-133737914D01*
X123624767Y-133779786D01*
X123649184Y-133845250D01*
X123649500Y-133854096D01*
X123649500Y-134001287D01*
X123651845Y-134016092D01*
X123682754Y-134211244D01*
X123682754Y-134211247D01*
X123696491Y-134253523D01*
X123698486Y-134323364D01*
X123666241Y-134379522D01*
X123480286Y-134565478D01*
X123368481Y-134677282D01*
X123368479Y-134677284D01*
X123345668Y-134716795D01*
X123336026Y-134733497D01*
X123289423Y-134814215D01*
X123248499Y-134966943D01*
X123248499Y-134966945D01*
X123248499Y-135135046D01*
X123248500Y-135135059D01*
X123248500Y-136825090D01*
X123248499Y-136825108D01*
X123248499Y-136990814D01*
X123248498Y-136990814D01*
X123289423Y-137143545D01*
X123318358Y-137193660D01*
X123318359Y-137193664D01*
X123318360Y-137193664D01*
X123346144Y-137241789D01*
X123368479Y-137280474D01*
X123368481Y-137280477D01*
X123487349Y-137399345D01*
X123487354Y-137399349D01*
X129068524Y-142980520D01*
X129205455Y-143059577D01*
X129358183Y-143100501D01*
X129358186Y-143100501D01*
X129523894Y-143100501D01*
X129523910Y-143100500D01*
X130420234Y-143100500D01*
X130487273Y-143120185D01*
X130489125Y-143121398D01*
X130620814Y-143209390D01*
X130620827Y-143209397D01*
X130758683Y-143266498D01*
X130766503Y-143269737D01*
X130788803Y-143274172D01*
X130850713Y-143306557D01*
X130885288Y-143367272D01*
X130881549Y-143437042D01*
X130852293Y-143483471D01*
X129834397Y-144501366D01*
X129773074Y-144534851D01*
X129703382Y-144529867D01*
X129699263Y-144528246D01*
X129556104Y-144468947D01*
X129438944Y-144437554D01*
X129321789Y-144406162D01*
X129321788Y-144406161D01*
X129321785Y-144406161D01*
X129081289Y-144374500D01*
X129081288Y-144374500D01*
X128838712Y-144374500D01*
X128838711Y-144374500D01*
X128598214Y-144406161D01*
X128363895Y-144468947D01*
X128139794Y-144561773D01*
X128139785Y-144561777D01*
X127929706Y-144683067D01*
X127737263Y-144830733D01*
X127737256Y-144830739D01*
X127565739Y-145002256D01*
X127565733Y-145002263D01*
X127418067Y-145194706D01*
X127418064Y-145194710D01*
X127418064Y-145194711D01*
X127413684Y-145202298D01*
X127296777Y-145404785D01*
X127296773Y-145404794D01*
X127203947Y-145628895D01*
X127141161Y-145863214D01*
X127109500Y-146103711D01*
X127109500Y-146346288D01*
X127141161Y-146586785D01*
X127203947Y-146821104D01*
X127278539Y-147001185D01*
X127296776Y-147045212D01*
X127418064Y-147255289D01*
X127418066Y-147255292D01*
X127418067Y-147255293D01*
X127565733Y-147447736D01*
X127565739Y-147447743D01*
X127737256Y-147619260D01*
X127737263Y-147619266D01*
X127839788Y-147697936D01*
X127929711Y-147766936D01*
X128139788Y-147888224D01*
X128363900Y-147981054D01*
X128598211Y-148043838D01*
X128758940Y-148064998D01*
X128838711Y-148075500D01*
X128838712Y-148075500D01*
X129081289Y-148075500D01*
X129161052Y-148064999D01*
X129321789Y-148043838D01*
X129556100Y-147981054D01*
X129780212Y-147888224D01*
X129990289Y-147766936D01*
X130182738Y-147619265D01*
X130354265Y-147447738D01*
X130501936Y-147255289D01*
X130623224Y-147045212D01*
X130716054Y-146821100D01*
X130778838Y-146586789D01*
X130810500Y-146346288D01*
X130810500Y-146103712D01*
X130778838Y-145863211D01*
X130716054Y-145628900D01*
X130656751Y-145485732D01*
X130649283Y-145416266D01*
X130680558Y-145353787D01*
X130683604Y-145350629D01*
X131129473Y-144904760D01*
X131146669Y-144895370D01*
X131160926Y-144881923D01*
X131176705Y-144878969D01*
X131190794Y-144871277D01*
X131210341Y-144872674D01*
X131229603Y-144869070D01*
X131244472Y-144875115D01*
X131260486Y-144876261D01*
X131276174Y-144888005D01*
X131294327Y-144895386D01*
X131312709Y-144915356D01*
X131316419Y-144918133D01*
X131318545Y-144921061D01*
X131319442Y-144922336D01*
X131378211Y-145010289D01*
X131388859Y-145020937D01*
X131395015Y-145029681D01*
X131402961Y-145053046D01*
X131414788Y-145074705D01*
X131414013Y-145085541D01*
X131417512Y-145095830D01*
X131411564Y-145119782D01*
X131409804Y-145144397D01*
X131401914Y-145158643D01*
X131400674Y-145163640D01*
X131397478Y-145166653D01*
X131392002Y-145176544D01*
X131378070Y-145194702D01*
X131378059Y-145194718D01*
X131256777Y-145404784D01*
X131256773Y-145404794D01*
X131163947Y-145628895D01*
X131101161Y-145863214D01*
X131069500Y-146103711D01*
X131069500Y-146346288D01*
X131101161Y-146586785D01*
X131163947Y-146821104D01*
X131238539Y-147001185D01*
X131256776Y-147045212D01*
X131378064Y-147255289D01*
X131378066Y-147255292D01*
X131378067Y-147255293D01*
X131525733Y-147447736D01*
X131525739Y-147447743D01*
X131697256Y-147619260D01*
X131697263Y-147619266D01*
X131799788Y-147697936D01*
X131889711Y-147766936D01*
X132099788Y-147888224D01*
X132323900Y-147981054D01*
X132558211Y-148043838D01*
X132718940Y-148064998D01*
X132798711Y-148075500D01*
X132798712Y-148075500D01*
X133041289Y-148075500D01*
X133121052Y-148064999D01*
X133281789Y-148043838D01*
X133516100Y-147981054D01*
X133740212Y-147888224D01*
X133950289Y-147766936D01*
X134142738Y-147619265D01*
X134314265Y-147447738D01*
X134461936Y-147255289D01*
X134583224Y-147045212D01*
X134676054Y-146821100D01*
X134738838Y-146586789D01*
X134770500Y-146346288D01*
X134770500Y-146103712D01*
X134738838Y-145863211D01*
X134676054Y-145628900D01*
X134583224Y-145404788D01*
X134461936Y-145194711D01*
X134370073Y-145074992D01*
X134314266Y-145002263D01*
X134314260Y-145002256D01*
X134142743Y-144830739D01*
X134142736Y-144830733D01*
X133950293Y-144683067D01*
X133950292Y-144683066D01*
X133950289Y-144683064D01*
X133740212Y-144561776D01*
X133713559Y-144550736D01*
X133516104Y-144468947D01*
X133398944Y-144437554D01*
X133281789Y-144406162D01*
X133281788Y-144406161D01*
X133281785Y-144406161D01*
X133041289Y-144374500D01*
X133041288Y-144374500D01*
X132892983Y-144374500D01*
X132825944Y-144354815D01*
X132780189Y-144302011D01*
X132771365Y-144274690D01*
X132769737Y-144266503D01*
X132754651Y-144230082D01*
X132709397Y-144120827D01*
X132709390Y-144120814D01*
X132621789Y-143989711D01*
X132621786Y-143989707D01*
X132510292Y-143878213D01*
X132510288Y-143878210D01*
X132423552Y-143820254D01*
X132378747Y-143766641D01*
X132370040Y-143697316D01*
X132400195Y-143634289D01*
X132404743Y-143629490D01*
X133613080Y-142421153D01*
X134699500Y-142421153D01*
X134699500Y-142578846D01*
X134730261Y-142733489D01*
X134730264Y-142733501D01*
X134790602Y-142879172D01*
X134790609Y-142879185D01*
X134878210Y-143010288D01*
X134878213Y-143010292D01*
X134989707Y-143121786D01*
X134989711Y-143121789D01*
X135120814Y-143209390D01*
X135120827Y-143209397D01*
X135258683Y-143266498D01*
X135266503Y-143269737D01*
X135331147Y-143282595D01*
X135421849Y-143300638D01*
X135483760Y-143333023D01*
X135485339Y-143334574D01*
X136243181Y-144092416D01*
X136257884Y-144119343D01*
X136274477Y-144145162D01*
X136275368Y-144151362D01*
X136276666Y-144153739D01*
X136279500Y-144180097D01*
X136279500Y-144387913D01*
X136259815Y-144454952D01*
X136207011Y-144500707D01*
X136202953Y-144502474D01*
X136059792Y-144561773D01*
X136059780Y-144561779D01*
X135849706Y-144683067D01*
X135657263Y-144830733D01*
X135657256Y-144830739D01*
X135485739Y-145002256D01*
X135485733Y-145002263D01*
X135338067Y-145194706D01*
X135338064Y-145194710D01*
X135338064Y-145194711D01*
X135333684Y-145202298D01*
X135216777Y-145404785D01*
X135216773Y-145404794D01*
X135123947Y-145628895D01*
X135061161Y-145863214D01*
X135029500Y-146103711D01*
X135029500Y-146346288D01*
X135061161Y-146586785D01*
X135123947Y-146821104D01*
X135198539Y-147001185D01*
X135216776Y-147045212D01*
X135338064Y-147255289D01*
X135338066Y-147255292D01*
X135338067Y-147255293D01*
X135485733Y-147447736D01*
X135485739Y-147447743D01*
X135657256Y-147619260D01*
X135657263Y-147619266D01*
X135759788Y-147697936D01*
X135849711Y-147766936D01*
X136059788Y-147888224D01*
X136283900Y-147981054D01*
X136518211Y-148043838D01*
X136678940Y-148064998D01*
X136758711Y-148075500D01*
X136758712Y-148075500D01*
X137001289Y-148075500D01*
X137081052Y-148064999D01*
X137241789Y-148043838D01*
X137476100Y-147981054D01*
X137700212Y-147888224D01*
X137910289Y-147766936D01*
X138102738Y-147619265D01*
X138274265Y-147447738D01*
X138421936Y-147255289D01*
X138543224Y-147045212D01*
X138636054Y-146821100D01*
X138698838Y-146586789D01*
X138730500Y-146346288D01*
X138730500Y-146103712D01*
X138698838Y-145863211D01*
X138636054Y-145628900D01*
X138543224Y-145404788D01*
X138421936Y-145194711D01*
X138330073Y-145074992D01*
X138274266Y-145002263D01*
X138274260Y-145002256D01*
X138146042Y-144874038D01*
X143399500Y-144874038D01*
X143399500Y-145125962D01*
X143421410Y-145264297D01*
X143438910Y-145374785D01*
X143516760Y-145614383D01*
X143631132Y-145838848D01*
X143779201Y-146042649D01*
X143779205Y-146042654D01*
X143957345Y-146220794D01*
X143957350Y-146220798D01*
X144130018Y-146346248D01*
X144161155Y-146368870D01*
X144304184Y-146441747D01*
X144385616Y-146483239D01*
X144385618Y-146483239D01*
X144385621Y-146483241D01*
X144625215Y-146561090D01*
X144874038Y-146600500D01*
X144874039Y-146600500D01*
X145125961Y-146600500D01*
X145125962Y-146600500D01*
X145374785Y-146561090D01*
X145614379Y-146483241D01*
X145838845Y-146368870D01*
X146042656Y-146220793D01*
X146220793Y-146042656D01*
X146368870Y-145838845D01*
X146483241Y-145614379D01*
X146561090Y-145374785D01*
X146600500Y-145125962D01*
X146600500Y-144874038D01*
X146561090Y-144625215D01*
X146483241Y-144385621D01*
X146483239Y-144385618D01*
X146483239Y-144385616D01*
X146414393Y-144250500D01*
X146368870Y-144161155D01*
X146289045Y-144051285D01*
X146220798Y-143957350D01*
X146220794Y-143957345D01*
X146042654Y-143779205D01*
X146042649Y-143779201D01*
X145838848Y-143631132D01*
X145838847Y-143631131D01*
X145838845Y-143631130D01*
X145736224Y-143578842D01*
X145614383Y-143516760D01*
X145374785Y-143438910D01*
X145262685Y-143421155D01*
X145125962Y-143399500D01*
X144874038Y-143399500D01*
X144749626Y-143419205D01*
X144625214Y-143438910D01*
X144385616Y-143516760D01*
X144161151Y-143631132D01*
X143957350Y-143779201D01*
X143957345Y-143779205D01*
X143779205Y-143957345D01*
X143779201Y-143957350D01*
X143631132Y-144161151D01*
X143516760Y-144385616D01*
X143438910Y-144625214D01*
X143418819Y-144752061D01*
X143399500Y-144874038D01*
X138146042Y-144874038D01*
X138102743Y-144830739D01*
X138102736Y-144830733D01*
X137910293Y-144683067D01*
X137910292Y-144683066D01*
X137910289Y-144683064D01*
X137768677Y-144601304D01*
X137700219Y-144561779D01*
X137700207Y-144561773D01*
X137557047Y-144502474D01*
X137502643Y-144458633D01*
X137480579Y-144392338D01*
X137480500Y-144387913D01*
X137480500Y-143969060D01*
X137480501Y-143969047D01*
X137480501Y-143800944D01*
X137477731Y-143790606D01*
X137439577Y-143648216D01*
X137429714Y-143631132D01*
X137360524Y-143511290D01*
X137360518Y-143511282D01*
X136334573Y-142485337D01*
X136301088Y-142424014D01*
X136300637Y-142421847D01*
X136274531Y-142290606D01*
X136269737Y-142266503D01*
X136269735Y-142266498D01*
X136209397Y-142120827D01*
X136209390Y-142120814D01*
X136121789Y-141989711D01*
X136121786Y-141989707D01*
X136010292Y-141878213D01*
X136010288Y-141878210D01*
X135879185Y-141790609D01*
X135879172Y-141790602D01*
X135733501Y-141730264D01*
X135733489Y-141730261D01*
X135578845Y-141699500D01*
X135578842Y-141699500D01*
X135421158Y-141699500D01*
X135421155Y-141699500D01*
X135266510Y-141730261D01*
X135266498Y-141730264D01*
X135120827Y-141790602D01*
X135120814Y-141790609D01*
X134989711Y-141878210D01*
X134989707Y-141878213D01*
X134878213Y-141989707D01*
X134878210Y-141989711D01*
X134790609Y-142120814D01*
X134790602Y-142120827D01*
X134730264Y-142266498D01*
X134730261Y-142266510D01*
X134699500Y-142421153D01*
X133613080Y-142421153D01*
X142177322Y-133856912D01*
X142238641Y-133823430D01*
X142308333Y-133828414D01*
X142352680Y-133856915D01*
X144338181Y-135842416D01*
X144371666Y-135903739D01*
X144374500Y-135930097D01*
X144374500Y-138030015D01*
X144385000Y-138132795D01*
X144385001Y-138132796D01*
X144440186Y-138299335D01*
X144440187Y-138299337D01*
X144532286Y-138448651D01*
X144532289Y-138448655D01*
X144656344Y-138572710D01*
X144656348Y-138572713D01*
X144805662Y-138664812D01*
X144805664Y-138664813D01*
X144805666Y-138664814D01*
X144972203Y-138719999D01*
X145074992Y-138730500D01*
X145074997Y-138730500D01*
X147375003Y-138730500D01*
X147375008Y-138730500D01*
X147477797Y-138719999D01*
X147644334Y-138664814D01*
X147793655Y-138572711D01*
X147917711Y-138448655D01*
X148009814Y-138299334D01*
X148064999Y-138132797D01*
X148075500Y-138030008D01*
X148075500Y-135729992D01*
X148064999Y-135627203D01*
X148009814Y-135460666D01*
X147940653Y-135348540D01*
X147917713Y-135311348D01*
X147917710Y-135311344D01*
X147793655Y-135187289D01*
X147793651Y-135187286D01*
X147644337Y-135095187D01*
X147644335Y-135095186D01*
X147561065Y-135067593D01*
X147477797Y-135040001D01*
X147477795Y-135040000D01*
X147375015Y-135029500D01*
X147375008Y-135029500D01*
X145275097Y-135029500D01*
X145208058Y-135009815D01*
X145187416Y-134993181D01*
X144500331Y-134306096D01*
X144495808Y-134297813D01*
X144488286Y-134292109D01*
X144479330Y-134267637D01*
X144466846Y-134244773D01*
X144467519Y-134235359D01*
X144464275Y-134226494D01*
X144469971Y-134201067D01*
X144471830Y-134175081D01*
X144477892Y-134165710D01*
X144479550Y-134158315D01*
X144493539Y-134141530D01*
X144500876Y-134130192D01*
X144507490Y-134123658D01*
X144510289Y-134121789D01*
X144582830Y-134049247D01*
X144583074Y-134049007D01*
X144613446Y-134032666D01*
X144643851Y-134016064D01*
X144644251Y-134016092D01*
X144644604Y-134015903D01*
X144679059Y-134018581D01*
X144713543Y-134021048D01*
X144713868Y-134021288D01*
X144714263Y-134021319D01*
X144728050Y-134031774D01*
X144768586Y-134061744D01*
X144830733Y-134142736D01*
X144830739Y-134142743D01*
X145002256Y-134314260D01*
X145002262Y-134314265D01*
X145194711Y-134461936D01*
X145404788Y-134583224D01*
X145628900Y-134676054D01*
X145863211Y-134738838D01*
X146043586Y-134762584D01*
X146103711Y-134770500D01*
X146103712Y-134770500D01*
X146346289Y-134770500D01*
X146394388Y-134764167D01*
X146586789Y-134738838D01*
X146821100Y-134676054D01*
X147045212Y-134583224D01*
X147255289Y-134461936D01*
X147447738Y-134314265D01*
X147619265Y-134142738D01*
X147766936Y-133950289D01*
X147888224Y-133740212D01*
X147981054Y-133516100D01*
X148043838Y-133281789D01*
X148075500Y-133041288D01*
X148075500Y-132798712D01*
X148071685Y-132769737D01*
X148062439Y-132699500D01*
X148043838Y-132558211D01*
X147981054Y-132323900D01*
X147979231Y-132319500D01*
X147959597Y-132272098D01*
X147888224Y-132099788D01*
X147766936Y-131889711D01*
X147672392Y-131766498D01*
X147619266Y-131697263D01*
X147619260Y-131697256D01*
X147447743Y-131525739D01*
X147447736Y-131525733D01*
X147255293Y-131378067D01*
X147255292Y-131378066D01*
X147255289Y-131378064D01*
X147045212Y-131256776D01*
X147045205Y-131256773D01*
X146821104Y-131163947D01*
X146586785Y-131101161D01*
X146346289Y-131069500D01*
X146346288Y-131069500D01*
X146103712Y-131069500D01*
X146103711Y-131069500D01*
X145863214Y-131101161D01*
X145628895Y-131163947D01*
X145404794Y-131256773D01*
X145404785Y-131256777D01*
X145194706Y-131378067D01*
X145002263Y-131525733D01*
X145002256Y-131525739D01*
X144830739Y-131697256D01*
X144830733Y-131697263D01*
X144683067Y-131889706D01*
X144561777Y-132099785D01*
X144561772Y-132099794D01*
X144490402Y-132272098D01*
X144470247Y-132297108D01*
X144451285Y-132323054D01*
X144448056Y-132324645D01*
X144446561Y-132326501D01*
X144420504Y-132340322D01*
X144414319Y-132342709D01*
X144348215Y-132360423D01*
X144315729Y-132379179D01*
X144307388Y-132383994D01*
X144307379Y-132383998D01*
X144211290Y-132439475D01*
X144211282Y-132439481D01*
X144099480Y-132551283D01*
X144099480Y-132551284D01*
X144099478Y-132551286D01*
X144034995Y-132615768D01*
X143985337Y-132665427D01*
X143924014Y-132698911D01*
X143921848Y-132699362D01*
X143766508Y-132730261D01*
X143766498Y-132730264D01*
X143620827Y-132790602D01*
X143620814Y-132790609D01*
X143489711Y-132878210D01*
X143489707Y-132878213D01*
X143412181Y-132955740D01*
X143350858Y-132989225D01*
X143281166Y-132984241D01*
X143225233Y-132942369D01*
X143200816Y-132876905D01*
X143200500Y-132868059D01*
X143200500Y-131131941D01*
X143220185Y-131064902D01*
X143272989Y-131019147D01*
X143342147Y-131009203D01*
X143405703Y-131038228D01*
X143412181Y-131044260D01*
X143489707Y-131121786D01*
X143489711Y-131121789D01*
X143620814Y-131209390D01*
X143620827Y-131209397D01*
X143766498Y-131269735D01*
X143766503Y-131269737D01*
X143921153Y-131300499D01*
X143921156Y-131300500D01*
X143921158Y-131300500D01*
X144078844Y-131300500D01*
X144078845Y-131300499D01*
X144233497Y-131269737D01*
X144379179Y-131209394D01*
X144379185Y-131209390D01*
X144510875Y-131121398D01*
X144528921Y-131115747D01*
X144544831Y-131105523D01*
X144575792Y-131101071D01*
X144577553Y-131100520D01*
X144579766Y-131100500D01*
X144598331Y-131100500D01*
X144598347Y-131100501D01*
X144605943Y-131100501D01*
X144764054Y-131100501D01*
X144764057Y-131100501D01*
X144916785Y-131059577D01*
X144966904Y-131030639D01*
X145053716Y-130980520D01*
X145165520Y-130868716D01*
X145165520Y-130868714D01*
X145175728Y-130858507D01*
X145175730Y-130858504D01*
X145350603Y-130683630D01*
X145411924Y-130650147D01*
X145481616Y-130655131D01*
X145485690Y-130656734D01*
X145628900Y-130716054D01*
X145863211Y-130778838D01*
X146043586Y-130802584D01*
X146103711Y-130810500D01*
X146103712Y-130810500D01*
X146346289Y-130810500D01*
X146394388Y-130804167D01*
X146586789Y-130778838D01*
X146821100Y-130716054D01*
X147045212Y-130623224D01*
X147255289Y-130501936D01*
X147447738Y-130354265D01*
X147619265Y-130182738D01*
X147766936Y-129990289D01*
X147888224Y-129780212D01*
X147981054Y-129556100D01*
X148043838Y-129321789D01*
X148075500Y-129081288D01*
X148075500Y-128838712D01*
X148043838Y-128598211D01*
X147981054Y-128363900D01*
X147888224Y-128139788D01*
X147766936Y-127929711D01*
X147619265Y-127737262D01*
X147619260Y-127737256D01*
X147447743Y-127565739D01*
X147447736Y-127565733D01*
X147255293Y-127418067D01*
X147255292Y-127418066D01*
X147255289Y-127418064D01*
X147045212Y-127296776D01*
X147045205Y-127296773D01*
X146821104Y-127203947D01*
X146586785Y-127141161D01*
X146346289Y-127109500D01*
X146346288Y-127109500D01*
X146103712Y-127109500D01*
X146103711Y-127109500D01*
X145863214Y-127141161D01*
X145628895Y-127203947D01*
X145404794Y-127296773D01*
X145404785Y-127296777D01*
X145194706Y-127418067D01*
X145002263Y-127565733D01*
X145002256Y-127565739D01*
X144830739Y-127737256D01*
X144830733Y-127737263D01*
X144683067Y-127929706D01*
X144683064Y-127929710D01*
X144683064Y-127929711D01*
X144678153Y-127938217D01*
X144561777Y-128139785D01*
X144561773Y-128139794D01*
X144468947Y-128363895D01*
X144406161Y-128598214D01*
X144374500Y-128838711D01*
X144374500Y-129081288D01*
X144402703Y-129295520D01*
X144406162Y-129321789D01*
X144460027Y-129522816D01*
X144468947Y-129556103D01*
X144490229Y-129607484D01*
X144497697Y-129676953D01*
X144466421Y-129739432D01*
X144406331Y-129775084D01*
X144336506Y-129772589D01*
X144328215Y-129769496D01*
X144233501Y-129730264D01*
X144233489Y-129730261D01*
X144078845Y-129699500D01*
X144078842Y-129699500D01*
X143921158Y-129699500D01*
X143921155Y-129699500D01*
X143766510Y-129730261D01*
X143766498Y-129730264D01*
X143620827Y-129790602D01*
X143620814Y-129790609D01*
X143489711Y-129878210D01*
X143489707Y-129878213D01*
X143412181Y-129955740D01*
X143350858Y-129989225D01*
X143281166Y-129984241D01*
X143225233Y-129942369D01*
X143200816Y-129876905D01*
X143200500Y-129868059D01*
X143200500Y-124878751D01*
X144375000Y-124878751D01*
X144375000Y-125121248D01*
X144375001Y-125121264D01*
X144406653Y-125361687D01*
X144469421Y-125595939D01*
X144562220Y-125819978D01*
X144562227Y-125819992D01*
X144683481Y-126030010D01*
X144752061Y-126119384D01*
X145470884Y-125400560D01*
X145471740Y-125402626D01*
X145564762Y-125541844D01*
X145683156Y-125660238D01*
X145822374Y-125753260D01*
X145824437Y-125754114D01*
X145105614Y-126472936D01*
X145105614Y-126472937D01*
X145194989Y-126541517D01*
X145194996Y-126541522D01*
X145405007Y-126662772D01*
X145405021Y-126662779D01*
X145629060Y-126755578D01*
X145863312Y-126818346D01*
X146103735Y-126849998D01*
X146103752Y-126850000D01*
X146346248Y-126850000D01*
X146346264Y-126849998D01*
X146586687Y-126818346D01*
X146820939Y-126755578D01*
X147044978Y-126662779D01*
X147044992Y-126662772D01*
X147255016Y-126541515D01*
X147344384Y-126472939D01*
X147344384Y-126472936D01*
X146625562Y-125754114D01*
X146627626Y-125753260D01*
X146766844Y-125660238D01*
X146885238Y-125541844D01*
X146978260Y-125402626D01*
X146979114Y-125400562D01*
X147697936Y-126119384D01*
X147697939Y-126119384D01*
X147766515Y-126030016D01*
X147887772Y-125819992D01*
X147887779Y-125819978D01*
X147980578Y-125595939D01*
X148043346Y-125361687D01*
X148074998Y-125121264D01*
X148075000Y-125121248D01*
X148075000Y-124878751D01*
X148074998Y-124878735D01*
X148043346Y-124638312D01*
X147980578Y-124404060D01*
X147887779Y-124180021D01*
X147887772Y-124180007D01*
X147766522Y-123969996D01*
X147766517Y-123969989D01*
X147697937Y-123880614D01*
X147697936Y-123880614D01*
X146979114Y-124599436D01*
X146978260Y-124597374D01*
X146885238Y-124458156D01*
X146766844Y-124339762D01*
X146627626Y-124246740D01*
X146625560Y-124245884D01*
X147344384Y-123527061D01*
X147255010Y-123458481D01*
X147044992Y-123337227D01*
X147044978Y-123337220D01*
X146820939Y-123244421D01*
X146586687Y-123181653D01*
X146346264Y-123150001D01*
X146346248Y-123150000D01*
X146103752Y-123150000D01*
X146103735Y-123150001D01*
X145863312Y-123181653D01*
X145629060Y-123244421D01*
X145405021Y-123337220D01*
X145405006Y-123337227D01*
X145194990Y-123458480D01*
X145105614Y-123527060D01*
X145105614Y-123527061D01*
X145824438Y-124245885D01*
X145822374Y-124246740D01*
X145683156Y-124339762D01*
X145564762Y-124458156D01*
X145471740Y-124597374D01*
X145470885Y-124599438D01*
X144752061Y-123880614D01*
X144752060Y-123880614D01*
X144683480Y-123969990D01*
X144562227Y-124180006D01*
X144562220Y-124180021D01*
X144469421Y-124404060D01*
X144406653Y-124638312D01*
X144375001Y-124878735D01*
X144375000Y-124878751D01*
X143200500Y-124878751D01*
X143200500Y-124579765D01*
X143220185Y-124512726D01*
X143221398Y-124510874D01*
X143309390Y-124379185D01*
X143309390Y-124379184D01*
X143309394Y-124379179D01*
X143369737Y-124233497D01*
X143400500Y-124078842D01*
X143400500Y-123921158D01*
X143400500Y-123921155D01*
X143400499Y-123921153D01*
X143392435Y-123880614D01*
X143369737Y-123766503D01*
X143369735Y-123766498D01*
X143310076Y-123622466D01*
X143309395Y-123620824D01*
X143309394Y-123620821D01*
X143309392Y-123620818D01*
X143309390Y-123620814D01*
X143221789Y-123489711D01*
X143221786Y-123489707D01*
X143110292Y-123378213D01*
X143110288Y-123378210D01*
X142979185Y-123290609D01*
X142979172Y-123290602D01*
X142881541Y-123250163D01*
X142827137Y-123206323D01*
X142805072Y-123140028D01*
X142822351Y-123072329D01*
X142841308Y-123047925D01*
X144212416Y-121676819D01*
X144239343Y-121662115D01*
X144265162Y-121645523D01*
X144271362Y-121644631D01*
X144273739Y-121643334D01*
X144300097Y-121640500D01*
X144387915Y-121640500D01*
X144454954Y-121660185D01*
X144500709Y-121712989D01*
X144502476Y-121717048D01*
X144561770Y-121860200D01*
X144561773Y-121860205D01*
X144561776Y-121860212D01*
X144683064Y-122070289D01*
X144683066Y-122070292D01*
X144683067Y-122070293D01*
X144830733Y-122262736D01*
X144830739Y-122262743D01*
X145002256Y-122434260D01*
X145002263Y-122434266D01*
X145094011Y-122504666D01*
X145194711Y-122581936D01*
X145404788Y-122703224D01*
X145628900Y-122796054D01*
X145863211Y-122858838D01*
X146043586Y-122882584D01*
X146103711Y-122890500D01*
X146103712Y-122890500D01*
X146346289Y-122890500D01*
X146394388Y-122884167D01*
X146586789Y-122858838D01*
X146821100Y-122796054D01*
X147045212Y-122703224D01*
X147255289Y-122581936D01*
X147447738Y-122434265D01*
X147619265Y-122262738D01*
X147766936Y-122070289D01*
X147888224Y-121860212D01*
X147981054Y-121636100D01*
X148043838Y-121401789D01*
X148075500Y-121161288D01*
X148075500Y-120918712D01*
X148070295Y-120879179D01*
X148059064Y-120793865D01*
X148043838Y-120678211D01*
X147981054Y-120443900D01*
X147979231Y-120439500D01*
X147951229Y-120371895D01*
X147888224Y-120219788D01*
X147766936Y-120009711D01*
X147619265Y-119817262D01*
X147619260Y-119817256D01*
X147447743Y-119645739D01*
X147447736Y-119645733D01*
X147255293Y-119498067D01*
X147255292Y-119498066D01*
X147255289Y-119498064D01*
X147045212Y-119376776D01*
X147025756Y-119368717D01*
X146821104Y-119283947D01*
X146626427Y-119231783D01*
X146586789Y-119221162D01*
X146586788Y-119221161D01*
X146586785Y-119221161D01*
X146346289Y-119189500D01*
X146346288Y-119189500D01*
X146103712Y-119189500D01*
X146103711Y-119189500D01*
X145863214Y-119221161D01*
X145628895Y-119283947D01*
X145404794Y-119376773D01*
X145404785Y-119376777D01*
X145230175Y-119477589D01*
X145207411Y-119490732D01*
X145194706Y-119498067D01*
X145002263Y-119645733D01*
X145002256Y-119645739D01*
X144830739Y-119817256D01*
X144830733Y-119817263D01*
X144683067Y-120009706D01*
X144561777Y-120219785D01*
X144561770Y-120219799D01*
X144502476Y-120362952D01*
X144458636Y-120417356D01*
X144392342Y-120439421D01*
X144387915Y-120439500D01*
X144122941Y-120439500D01*
X144055902Y-120419815D01*
X144035260Y-120403181D01*
X144010292Y-120378213D01*
X144010288Y-120378210D01*
X143879185Y-120290609D01*
X143879172Y-120290602D01*
X143733501Y-120230264D01*
X143733489Y-120230261D01*
X143578845Y-120199500D01*
X143578842Y-120199500D01*
X143421158Y-120199500D01*
X143421155Y-120199500D01*
X143266510Y-120230261D01*
X143266498Y-120230264D01*
X143120827Y-120290602D01*
X143120814Y-120290609D01*
X142989711Y-120378210D01*
X142989707Y-120378213D01*
X142878213Y-120489707D01*
X142878210Y-120489711D01*
X142790609Y-120620814D01*
X142790602Y-120620827D01*
X142730264Y-120766498D01*
X142730261Y-120766510D01*
X142699500Y-120921153D01*
X142699500Y-121078846D01*
X142730261Y-121233489D01*
X142730263Y-121233496D01*
X142765044Y-121317468D01*
X142772512Y-121386937D01*
X142741236Y-121449416D01*
X142738163Y-121452600D01*
X141631286Y-122559478D01*
X141519481Y-122671282D01*
X141519479Y-122671285D01*
X141482984Y-122734498D01*
X141482983Y-122734500D01*
X141440423Y-122808214D01*
X141440423Y-122808215D01*
X141399499Y-122960943D01*
X141399499Y-122960945D01*
X141399499Y-123129046D01*
X141399500Y-123129059D01*
X141399500Y-132884903D01*
X141379815Y-132951942D01*
X141363181Y-132972584D01*
X131983471Y-142352293D01*
X131922148Y-142385778D01*
X131852456Y-142380794D01*
X131796523Y-142338922D01*
X131774173Y-142288804D01*
X131769737Y-142266503D01*
X131769735Y-142266498D01*
X131709397Y-142120827D01*
X131709390Y-142120814D01*
X131621789Y-141989711D01*
X131621786Y-141989707D01*
X131510292Y-141878213D01*
X131510288Y-141878210D01*
X131379185Y-141790609D01*
X131379176Y-141790604D01*
X131253256Y-141738447D01*
X131198853Y-141694606D01*
X131176788Y-141628312D01*
X131194067Y-141560613D01*
X131213021Y-141536213D01*
X132868713Y-139880521D01*
X132868716Y-139880520D01*
X132980520Y-139768716D01*
X133030639Y-139681904D01*
X133059577Y-139631785D01*
X133100501Y-139479057D01*
X133100501Y-139320943D01*
X133100501Y-139313348D01*
X133100500Y-139313330D01*
X133100500Y-135079765D01*
X133120185Y-135012726D01*
X133121398Y-135010874D01*
X133150751Y-134966945D01*
X133209394Y-134879179D01*
X133269737Y-134733497D01*
X133300500Y-134578842D01*
X133300500Y-134421158D01*
X133300500Y-134421155D01*
X133300499Y-134421153D01*
X133281047Y-134323364D01*
X133269737Y-134266503D01*
X133253165Y-134226494D01*
X133209397Y-134120827D01*
X133209390Y-134120814D01*
X133121789Y-133989711D01*
X133121786Y-133989707D01*
X133010292Y-133878213D01*
X133010288Y-133878210D01*
X132879185Y-133790609D01*
X132879172Y-133790602D01*
X132733501Y-133730264D01*
X132733489Y-133730261D01*
X132578845Y-133699500D01*
X132578842Y-133699500D01*
X132421158Y-133699500D01*
X132421155Y-133699500D01*
X132266510Y-133730261D01*
X132266498Y-133730264D01*
X132120827Y-133790602D01*
X132120814Y-133790609D01*
X131989711Y-133878210D01*
X131989707Y-133878213D01*
X131878213Y-133989707D01*
X131878210Y-133989711D01*
X131790609Y-134120814D01*
X131790602Y-134120827D01*
X131730264Y-134266498D01*
X131730261Y-134266510D01*
X131699500Y-134421153D01*
X131699500Y-134578846D01*
X131730261Y-134733489D01*
X131730264Y-134733501D01*
X131790602Y-134879172D01*
X131790609Y-134879185D01*
X131878602Y-135010874D01*
X131899480Y-135077551D01*
X131899500Y-135079765D01*
X131899500Y-139099903D01*
X131879815Y-139166942D01*
X131863181Y-139187584D01*
X129985339Y-141065425D01*
X129924016Y-141098910D01*
X129921850Y-141099361D01*
X129766508Y-141130261D01*
X129766498Y-141130264D01*
X129620827Y-141190602D01*
X129620814Y-141190609D01*
X129489711Y-141278210D01*
X129489707Y-141278213D01*
X129378213Y-141389707D01*
X129374347Y-141394419D01*
X129372266Y-141392711D01*
X129327498Y-141430044D01*
X129258163Y-141438676D01*
X129195169Y-141408452D01*
X129190451Y-141403975D01*
X125609033Y-137822557D01*
X125575548Y-137761234D01*
X125580532Y-137691542D01*
X125622404Y-137635609D01*
X125640420Y-137624391D01*
X125649780Y-137619621D01*
X125707816Y-137590051D01*
X125759255Y-137552678D01*
X125879786Y-137465109D01*
X125879788Y-137465106D01*
X125879792Y-137465104D01*
X126030104Y-137314792D01*
X126030106Y-137314788D01*
X126030109Y-137314786D01*
X126155048Y-137142820D01*
X126155047Y-137142820D01*
X126155051Y-137142816D01*
X126251557Y-136953412D01*
X126317246Y-136751243D01*
X126350500Y-136541287D01*
X126350500Y-136541268D01*
X126350545Y-136540707D01*
X126350624Y-136540497D01*
X126351262Y-136536475D01*
X126352106Y-136536608D01*
X126375427Y-136475418D01*
X126386475Y-136462759D01*
X143358506Y-119490727D01*
X143358511Y-119490724D01*
X143368714Y-119480520D01*
X143368716Y-119480520D01*
X143480520Y-119368716D01*
X143559577Y-119231784D01*
X143600500Y-119079057D01*
X143600500Y-118386555D01*
X143620185Y-118319516D01*
X143672989Y-118273761D01*
X143742147Y-118263817D01*
X143760411Y-118268840D01*
X143760676Y-118267969D01*
X143766492Y-118269732D01*
X143766503Y-118269737D01*
X143900913Y-118296473D01*
X143921153Y-118300499D01*
X143921156Y-118300500D01*
X143921158Y-118300500D01*
X144078844Y-118300500D01*
X144078845Y-118300499D01*
X144233497Y-118269737D01*
X144346732Y-118222834D01*
X144379172Y-118209397D01*
X144379172Y-118209396D01*
X144379179Y-118209394D01*
X144379185Y-118209390D01*
X144510875Y-118121398D01*
X144528921Y-118115747D01*
X144544831Y-118105523D01*
X144575792Y-118101071D01*
X144577553Y-118100520D01*
X144579766Y-118100500D01*
X144614402Y-118100500D01*
X144681441Y-118120185D01*
X144712778Y-118149014D01*
X144830733Y-118302736D01*
X144830739Y-118302743D01*
X145002256Y-118474260D01*
X145002262Y-118474265D01*
X145194711Y-118621936D01*
X145404788Y-118743224D01*
X145628900Y-118836054D01*
X145863211Y-118898838D01*
X146043586Y-118922584D01*
X146103711Y-118930500D01*
X146103712Y-118930500D01*
X146346289Y-118930500D01*
X146394388Y-118924167D01*
X146586789Y-118898838D01*
X146821100Y-118836054D01*
X147045212Y-118743224D01*
X147255289Y-118621936D01*
X147447738Y-118474265D01*
X147619265Y-118302738D01*
X147766936Y-118110289D01*
X147888224Y-117900212D01*
X147981054Y-117676100D01*
X148043838Y-117441789D01*
X148075500Y-117201288D01*
X148075500Y-116958712D01*
X148043838Y-116718211D01*
X147981054Y-116483900D01*
X147979231Y-116479500D01*
X147959194Y-116431126D01*
X147888224Y-116259788D01*
X147766936Y-116049711D01*
X147706018Y-115970321D01*
X147619266Y-115857263D01*
X147619260Y-115857256D01*
X147447743Y-115685739D01*
X147447736Y-115685733D01*
X147255293Y-115538067D01*
X147255292Y-115538066D01*
X147255289Y-115538064D01*
X147045212Y-115416776D01*
X147022678Y-115407442D01*
X146821104Y-115323947D01*
X146618791Y-115269737D01*
X146586789Y-115261162D01*
X146586788Y-115261161D01*
X146586785Y-115261161D01*
X146346289Y-115229500D01*
X146346288Y-115229500D01*
X146103712Y-115229500D01*
X146103711Y-115229500D01*
X145863214Y-115261161D01*
X145628895Y-115323947D01*
X145404794Y-115416773D01*
X145404785Y-115416777D01*
X145194706Y-115538067D01*
X145002263Y-115685733D01*
X145002256Y-115685739D01*
X144830739Y-115857256D01*
X144830733Y-115857263D01*
X144683067Y-116049706D01*
X144683064Y-116049710D01*
X144683064Y-116049711D01*
X144677368Y-116059577D01*
X144561777Y-116259785D01*
X144561773Y-116259794D01*
X144468947Y-116483895D01*
X144422602Y-116656857D01*
X144386237Y-116716517D01*
X144323389Y-116747046D01*
X144255378Y-116739325D01*
X144233505Y-116730265D01*
X144233489Y-116730261D01*
X144078845Y-116699500D01*
X144078842Y-116699500D01*
X143921158Y-116699500D01*
X143921153Y-116699500D01*
X143789770Y-116725634D01*
X143720179Y-116719407D01*
X143665001Y-116676544D01*
X143641757Y-116610654D01*
X143657825Y-116542657D01*
X143677894Y-116516340D01*
X145350603Y-114843630D01*
X145411924Y-114810147D01*
X145481616Y-114815131D01*
X145485690Y-114816734D01*
X145628900Y-114876054D01*
X145863211Y-114938838D01*
X146022991Y-114959873D01*
X146103711Y-114970500D01*
X146103712Y-114970500D01*
X146346289Y-114970500D01*
X146426052Y-114959999D01*
X146586789Y-114938838D01*
X146821100Y-114876054D01*
X147045212Y-114783224D01*
X147255289Y-114661936D01*
X147447738Y-114514265D01*
X147619265Y-114342738D01*
X147766936Y-114150289D01*
X147888224Y-113940212D01*
X147981054Y-113716100D01*
X148043838Y-113481789D01*
X148075500Y-113241288D01*
X148075500Y-112998712D01*
X148072312Y-112974500D01*
X148060785Y-112886942D01*
X148043838Y-112758211D01*
X147981054Y-112523900D01*
X147979231Y-112519500D01*
X147949912Y-112448716D01*
X147888224Y-112299788D01*
X147766936Y-112089711D01*
X147675073Y-111969992D01*
X147619266Y-111897263D01*
X147619260Y-111897256D01*
X147447743Y-111725739D01*
X147447736Y-111725733D01*
X147255293Y-111578067D01*
X147255292Y-111578066D01*
X147255289Y-111578064D01*
X147045212Y-111456776D01*
X147045205Y-111456773D01*
X146821104Y-111363947D01*
X146586785Y-111301161D01*
X146346289Y-111269500D01*
X146346288Y-111269500D01*
X146103712Y-111269500D01*
X146103711Y-111269500D01*
X145863214Y-111301161D01*
X145628895Y-111363947D01*
X145404794Y-111456773D01*
X145404785Y-111456777D01*
X145194706Y-111578067D01*
X145002263Y-111725733D01*
X145002256Y-111725739D01*
X144830739Y-111897256D01*
X144830733Y-111897263D01*
X144683067Y-112089706D01*
X144561777Y-112299785D01*
X144561773Y-112299794D01*
X144468947Y-112523895D01*
X144406161Y-112758214D01*
X144374500Y-112998711D01*
X144374500Y-113241288D01*
X144402654Y-113455147D01*
X144406162Y-113481789D01*
X144437554Y-113598944D01*
X144468947Y-113716104D01*
X144528246Y-113859263D01*
X144535715Y-113928732D01*
X144504440Y-113991212D01*
X144501366Y-113994397D01*
X142631286Y-115864478D01*
X142519481Y-115976282D01*
X142519475Y-115976290D01*
X142471391Y-116059576D01*
X142471391Y-116059577D01*
X142440423Y-116113215D01*
X142399499Y-116265943D01*
X142399499Y-116265945D01*
X142399499Y-116434046D01*
X142399500Y-116434059D01*
X142399500Y-117082152D01*
X142379815Y-117149191D01*
X142327011Y-117194946D01*
X142299692Y-117203769D01*
X142166508Y-117230261D01*
X142166498Y-117230264D01*
X142020827Y-117290602D01*
X142020814Y-117290609D01*
X141889711Y-117378210D01*
X141889707Y-117378213D01*
X141778213Y-117489707D01*
X141778210Y-117489711D01*
X141690609Y-117620814D01*
X141690602Y-117620827D01*
X141630264Y-117766498D01*
X141630261Y-117766508D01*
X141599361Y-117921850D01*
X141566976Y-117983761D01*
X141565425Y-117985339D01*
X133912584Y-125638181D01*
X133851261Y-125671666D01*
X133824903Y-125674500D01*
X128924500Y-125674500D01*
X128857461Y-125654815D01*
X128811706Y-125602011D01*
X128800500Y-125550500D01*
X128800500Y-125421155D01*
X128800499Y-125421153D01*
X128774531Y-125290606D01*
X128769737Y-125266503D01*
X128760785Y-125244890D01*
X128709397Y-125120827D01*
X128709390Y-125120814D01*
X128621789Y-124989711D01*
X128621786Y-124989707D01*
X128510292Y-124878213D01*
X128510288Y-124878210D01*
X128379185Y-124790609D01*
X128379172Y-124790602D01*
X128233501Y-124730264D01*
X128233491Y-124730261D01*
X128078149Y-124699361D01*
X128016238Y-124666976D01*
X128014660Y-124665425D01*
X126725228Y-123375993D01*
X126715521Y-123366286D01*
X126715520Y-123366284D01*
X126603716Y-123254480D01*
X126559114Y-123228729D01*
X126549722Y-123220403D01*
X126537563Y-123201004D01*
X126521764Y-123184435D01*
X126519360Y-123171962D01*
X126512615Y-123161201D01*
X126512874Y-123138307D01*
X126508542Y-123115828D01*
X126513262Y-123104037D01*
X126513406Y-123091336D01*
X126526001Y-123072216D01*
X126534510Y-123050963D01*
X126544289Y-123039944D01*
X126937416Y-122646819D01*
X126998739Y-122613334D01*
X127025097Y-122610500D01*
X130330404Y-122610500D01*
X130397443Y-122630185D01*
X130418085Y-122646819D01*
X130422396Y-122651130D01*
X130422400Y-122651133D01*
X130422402Y-122651135D01*
X130560607Y-122732869D01*
X130566221Y-122734500D01*
X130714791Y-122777664D01*
X130714794Y-122777664D01*
X130714796Y-122777665D01*
X130750819Y-122780500D01*
X131249180Y-122780499D01*
X131285204Y-122777665D01*
X131439393Y-122732869D01*
X131577598Y-122651135D01*
X131691135Y-122537598D01*
X131772869Y-122399393D01*
X131805851Y-122285865D01*
X131817664Y-122245208D01*
X131817665Y-122245202D01*
X131820499Y-122209188D01*
X131820500Y-122209181D01*
X131820499Y-122090095D01*
X131840183Y-122023057D01*
X131856813Y-122002420D01*
X133288713Y-120570521D01*
X133288716Y-120570520D01*
X133400520Y-120458716D01*
X133450639Y-120371904D01*
X133479577Y-120321785D01*
X133520501Y-120169057D01*
X133520501Y-120010943D01*
X133520501Y-120003348D01*
X133520500Y-120003330D01*
X133520500Y-115850475D01*
X133540185Y-115783436D01*
X133592989Y-115737681D01*
X133662147Y-115727737D01*
X133725703Y-115756762D01*
X133759061Y-115803023D01*
X133790602Y-115879172D01*
X133790609Y-115879185D01*
X133878210Y-116010288D01*
X133878213Y-116010292D01*
X133989707Y-116121786D01*
X133989711Y-116121789D01*
X134120814Y-116209390D01*
X134120827Y-116209397D01*
X134242498Y-116259794D01*
X134266503Y-116269737D01*
X134421153Y-116300499D01*
X134421156Y-116300500D01*
X134421158Y-116300500D01*
X134578844Y-116300500D01*
X134578845Y-116300499D01*
X134733497Y-116269737D01*
X134879179Y-116209394D01*
X135010289Y-116121789D01*
X135121789Y-116010289D01*
X135209394Y-115879179D01*
X135215483Y-115864480D01*
X135238880Y-115807993D01*
X135269737Y-115733497D01*
X135293308Y-115615000D01*
X135300638Y-115578150D01*
X135333023Y-115516239D01*
X135334519Y-115514715D01*
X137238506Y-113610727D01*
X137238511Y-113610724D01*
X137248714Y-113600520D01*
X137248716Y-113600520D01*
X137360520Y-113488716D01*
X137426463Y-113374499D01*
X137439577Y-113351785D01*
X137480500Y-113199058D01*
X137480500Y-113040943D01*
X137480500Y-113040942D01*
X137480500Y-105749500D01*
X137500185Y-105682461D01*
X137552989Y-105636706D01*
X137604500Y-105625500D01*
X138030003Y-105625500D01*
X138030008Y-105625500D01*
X138132797Y-105614999D01*
X138299334Y-105559814D01*
X138448655Y-105467711D01*
X138572711Y-105343655D01*
X138664814Y-105194334D01*
X138719999Y-105027797D01*
X138730500Y-104925008D01*
X138730500Y-104874038D01*
X143399500Y-104874038D01*
X143399500Y-105125962D01*
X143416920Y-105235945D01*
X143438910Y-105374785D01*
X143516760Y-105614383D01*
X143631132Y-105838848D01*
X143779201Y-106042649D01*
X143779205Y-106042654D01*
X143957345Y-106220794D01*
X143957350Y-106220798D01*
X144020268Y-106266510D01*
X144161155Y-106368870D01*
X144304184Y-106441747D01*
X144385616Y-106483239D01*
X144385618Y-106483239D01*
X144385621Y-106483241D01*
X144625215Y-106561090D01*
X144874038Y-106600500D01*
X144874039Y-106600500D01*
X145125961Y-106600500D01*
X145125962Y-106600500D01*
X145374785Y-106561090D01*
X145614379Y-106483241D01*
X145838845Y-106368870D01*
X146042656Y-106220793D01*
X146220793Y-106042656D01*
X146368870Y-105838845D01*
X146483241Y-105614379D01*
X146561090Y-105374785D01*
X146600500Y-105125962D01*
X146600500Y-104874038D01*
X146561090Y-104625215D01*
X146483241Y-104385621D01*
X146483239Y-104385618D01*
X146483239Y-104385616D01*
X146398175Y-104218670D01*
X146368870Y-104161155D01*
X146345183Y-104128553D01*
X146220798Y-103957350D01*
X146220794Y-103957345D01*
X146042654Y-103779205D01*
X146042649Y-103779201D01*
X145838848Y-103631132D01*
X145838847Y-103631131D01*
X145838845Y-103631130D01*
X145768747Y-103595413D01*
X145614383Y-103516760D01*
X145374785Y-103438910D01*
X145313264Y-103429166D01*
X145125962Y-103399500D01*
X144874038Y-103399500D01*
X144787471Y-103413211D01*
X144625214Y-103438910D01*
X144385616Y-103516760D01*
X144161151Y-103631132D01*
X143957350Y-103779201D01*
X143957345Y-103779205D01*
X143779205Y-103957345D01*
X143779201Y-103957350D01*
X143631132Y-104161151D01*
X143516760Y-104385616D01*
X143442798Y-104613249D01*
X143438910Y-104625215D01*
X143399500Y-104874038D01*
X138730500Y-104874038D01*
X138730500Y-102624992D01*
X138719999Y-102522203D01*
X138664814Y-102355666D01*
X138631749Y-102302060D01*
X138572713Y-102206348D01*
X138572710Y-102206344D01*
X138448655Y-102082289D01*
X138448651Y-102082286D01*
X138299337Y-101990187D01*
X138299335Y-101990186D01*
X138198138Y-101956653D01*
X138132797Y-101935001D01*
X138132795Y-101935000D01*
X138030015Y-101924500D01*
X138030008Y-101924500D01*
X135729992Y-101924500D01*
X135729984Y-101924500D01*
X135627204Y-101935000D01*
X135627203Y-101935001D01*
X135460664Y-101990186D01*
X135460662Y-101990187D01*
X135311348Y-102082286D01*
X135311344Y-102082289D01*
X135187289Y-102206344D01*
X135187286Y-102206348D01*
X135095187Y-102355662D01*
X135095186Y-102355664D01*
X135040001Y-102522203D01*
X135040000Y-102522204D01*
X135029500Y-102624984D01*
X135029500Y-104925015D01*
X135040000Y-105027795D01*
X135040001Y-105027797D01*
X135058365Y-105083215D01*
X135095186Y-105194335D01*
X135095187Y-105194337D01*
X135187286Y-105343651D01*
X135187289Y-105343655D01*
X135311344Y-105467710D01*
X135311348Y-105467713D01*
X135460662Y-105559812D01*
X135460664Y-105559813D01*
X135460666Y-105559814D01*
X135627203Y-105614999D01*
X135729992Y-105625500D01*
X136155500Y-105625500D01*
X136222539Y-105645185D01*
X136268294Y-105697989D01*
X136279500Y-105749500D01*
X136279500Y-112819903D01*
X136259815Y-112886942D01*
X136243181Y-112907584D01*
X134485339Y-114665425D01*
X134424016Y-114698910D01*
X134421850Y-114699361D01*
X134266508Y-114730261D01*
X134266498Y-114730264D01*
X134120827Y-114790602D01*
X134120814Y-114790609D01*
X133989711Y-114878210D01*
X133989707Y-114878213D01*
X133878213Y-114989707D01*
X133878210Y-114989711D01*
X133790609Y-115120814D01*
X133790604Y-115120823D01*
X133759061Y-115196977D01*
X133715220Y-115251380D01*
X133648926Y-115273445D01*
X133581227Y-115256166D01*
X133533616Y-115205029D01*
X133520500Y-115149524D01*
X133520500Y-105612085D01*
X133540185Y-105545046D01*
X133592989Y-105499291D01*
X133597048Y-105497524D01*
X133740200Y-105438229D01*
X133740200Y-105438228D01*
X133740212Y-105438224D01*
X133950289Y-105316936D01*
X134142738Y-105169265D01*
X134314265Y-104997738D01*
X134461936Y-104805289D01*
X134583224Y-104595212D01*
X134676054Y-104371100D01*
X134738838Y-104136789D01*
X134770500Y-103896288D01*
X134770500Y-103653712D01*
X134738838Y-103413211D01*
X134676054Y-103178900D01*
X134583224Y-102954788D01*
X134461936Y-102744711D01*
X134370073Y-102624992D01*
X134314266Y-102552263D01*
X134314260Y-102552256D01*
X134142743Y-102380739D01*
X134142736Y-102380733D01*
X133950293Y-102233067D01*
X133950292Y-102233066D01*
X133950289Y-102233064D01*
X133740981Y-102112220D01*
X133740214Y-102111777D01*
X133740205Y-102111773D01*
X133516104Y-102018947D01*
X133281785Y-101956161D01*
X133041289Y-101924500D01*
X133041288Y-101924500D01*
X132798712Y-101924500D01*
X132798711Y-101924500D01*
X132558214Y-101956161D01*
X132323895Y-102018947D01*
X132099794Y-102111773D01*
X132099785Y-102111777D01*
X131889706Y-102233067D01*
X131697263Y-102380733D01*
X131697256Y-102380739D01*
X131525739Y-102552256D01*
X131525733Y-102552263D01*
X131378067Y-102744706D01*
X131378064Y-102744710D01*
X131378064Y-102744711D01*
X131377499Y-102745689D01*
X131256777Y-102954785D01*
X131256773Y-102954794D01*
X131163947Y-103178895D01*
X131101161Y-103413214D01*
X131069500Y-103653711D01*
X131069500Y-103896288D01*
X131101161Y-104136785D01*
X131163947Y-104371104D01*
X131256773Y-104595205D01*
X131256777Y-104595214D01*
X131267190Y-104613249D01*
X131378064Y-104805289D01*
X131378066Y-104805292D01*
X131378067Y-104805293D01*
X131525733Y-104997736D01*
X131525739Y-104997743D01*
X131697256Y-105169260D01*
X131697263Y-105169266D01*
X131784159Y-105235943D01*
X131889711Y-105316936D01*
X132099788Y-105438224D01*
X132099793Y-105438226D01*
X132099799Y-105438229D01*
X132242952Y-105497524D01*
X132297356Y-105541364D01*
X132319421Y-105607658D01*
X132319500Y-105612085D01*
X132319500Y-119789902D01*
X132299815Y-119856941D01*
X132283181Y-119877583D01*
X131782076Y-120378688D01*
X131720753Y-120412173D01*
X131651061Y-120407189D01*
X131606714Y-120378688D01*
X131577294Y-120349268D01*
X131577285Y-120349261D01*
X131439191Y-120267593D01*
X131439188Y-120267592D01*
X131285130Y-120222834D01*
X131250000Y-120220068D01*
X131250000Y-120859402D01*
X131241355Y-120888842D01*
X131234832Y-120918829D01*
X131231077Y-120923844D01*
X131230315Y-120926441D01*
X131213681Y-120947083D01*
X131207083Y-120953681D01*
X131145760Y-120987166D01*
X131119402Y-120990000D01*
X130874000Y-120990000D01*
X130806961Y-120970315D01*
X130761206Y-120917511D01*
X130750000Y-120866000D01*
X130750000Y-120220068D01*
X130749999Y-120220068D01*
X130714869Y-120222834D01*
X130714868Y-120222834D01*
X130560811Y-120267592D01*
X130560808Y-120267593D01*
X130450229Y-120332989D01*
X130382505Y-120350172D01*
X130316242Y-120328012D01*
X130272479Y-120273545D01*
X130271386Y-120270485D01*
X130209397Y-120120827D01*
X130209390Y-120120814D01*
X130121789Y-119989711D01*
X130121786Y-119989707D01*
X130010292Y-119878213D01*
X130010288Y-119878210D01*
X129879185Y-119790609D01*
X129879178Y-119790605D01*
X129872173Y-119787704D01*
X129869482Y-119786589D01*
X129845631Y-119767369D01*
X129820444Y-119749911D01*
X129817888Y-119745012D01*
X129815079Y-119742749D01*
X129802411Y-119719572D01*
X129799778Y-119713231D01*
X129772869Y-119620607D01*
X129734137Y-119555115D01*
X129730790Y-119547052D01*
X129727930Y-119520651D01*
X129721398Y-119494905D01*
X129724132Y-119485591D01*
X129723266Y-119477589D01*
X129731070Y-119461966D01*
X129738582Y-119436386D01*
X129772404Y-119379196D01*
X129772405Y-119379194D01*
X129812844Y-119240000D01*
X129260409Y-119240000D01*
X129250680Y-119239618D01*
X129249186Y-119239500D01*
X128750830Y-119239500D01*
X128750813Y-119239501D01*
X128749692Y-119239589D01*
X128749330Y-119239618D01*
X128739607Y-119240000D01*
X128187156Y-119240000D01*
X128190324Y-119250905D01*
X128190124Y-119320775D01*
X128152181Y-119379445D01*
X128088543Y-119408288D01*
X128071247Y-119409500D01*
X126333614Y-119409500D01*
X126266575Y-119389815D01*
X126220820Y-119337011D01*
X126210876Y-119267853D01*
X126223129Y-119229205D01*
X126227227Y-119221162D01*
X126251557Y-119173412D01*
X126317246Y-118971243D01*
X126350500Y-118761287D01*
X126350500Y-118740000D01*
X128187156Y-118740000D01*
X128750000Y-118740000D01*
X129250000Y-118740000D01*
X129812844Y-118740000D01*
X129772404Y-118600805D01*
X129690738Y-118462714D01*
X129690731Y-118462705D01*
X129577294Y-118349268D01*
X129577285Y-118349261D01*
X129439191Y-118267593D01*
X129439188Y-118267592D01*
X129285130Y-118222834D01*
X129250000Y-118220068D01*
X129250000Y-118740000D01*
X128750000Y-118740000D01*
X128750000Y-118220068D01*
X128749999Y-118220068D01*
X128714869Y-118222834D01*
X128714868Y-118222834D01*
X128560811Y-118267592D01*
X128560808Y-118267593D01*
X128422714Y-118349261D01*
X128422705Y-118349268D01*
X128309268Y-118462705D01*
X128309261Y-118462714D01*
X128227595Y-118600805D01*
X128187156Y-118740000D01*
X126350500Y-118740000D01*
X126350500Y-118548713D01*
X126317246Y-118338757D01*
X126251557Y-118136588D01*
X126155051Y-117947184D01*
X126155049Y-117947181D01*
X126155048Y-117947179D01*
X126030109Y-117775213D01*
X125879786Y-117624890D01*
X125707817Y-117499949D01*
X125698504Y-117495204D01*
X125647707Y-117447230D01*
X125630912Y-117379409D01*
X125653449Y-117313274D01*
X125698507Y-117274232D01*
X125707558Y-117269620D01*
X125879459Y-117144727D01*
X125879464Y-117144723D01*
X126029723Y-116994464D01*
X126029727Y-116994459D01*
X126154620Y-116822557D01*
X126251095Y-116633217D01*
X126316757Y-116431129D01*
X126316757Y-116431126D01*
X126327231Y-116365000D01*
X125433012Y-116365000D01*
X125465925Y-116307993D01*
X125500000Y-116180826D01*
X125500000Y-116049174D01*
X125465925Y-115922007D01*
X125433012Y-115865000D01*
X126327231Y-115865000D01*
X126316757Y-115798873D01*
X126316757Y-115798870D01*
X126251095Y-115596782D01*
X126154620Y-115407442D01*
X126029727Y-115235540D01*
X126029723Y-115235535D01*
X125916053Y-115121865D01*
X125882568Y-115060542D01*
X125887552Y-114990850D01*
X125929424Y-114934917D01*
X125960400Y-114918002D01*
X126064493Y-114879179D01*
X126092326Y-114868798D01*
X126092326Y-114868797D01*
X126092331Y-114868796D01*
X126207546Y-114782546D01*
X126293796Y-114667331D01*
X126344091Y-114532483D01*
X126350500Y-114472873D01*
X126350500Y-114299500D01*
X126353050Y-114290814D01*
X126351762Y-114281853D01*
X126362740Y-114257812D01*
X126370185Y-114232461D01*
X126377025Y-114226533D01*
X126380787Y-114218297D01*
X126403021Y-114204007D01*
X126422989Y-114186706D01*
X126433503Y-114184418D01*
X126439565Y-114180523D01*
X126474500Y-114175500D01*
X126674903Y-114175500D01*
X126741942Y-114195185D01*
X126762584Y-114211819D01*
X127065425Y-114514660D01*
X127098910Y-114575983D01*
X127099361Y-114578149D01*
X127130261Y-114733491D01*
X127130264Y-114733501D01*
X127190602Y-114879172D01*
X127190609Y-114879185D01*
X127278210Y-115010288D01*
X127278213Y-115010292D01*
X127389707Y-115121786D01*
X127389711Y-115121789D01*
X127520814Y-115209390D01*
X127520827Y-115209397D01*
X127645801Y-115261162D01*
X127666503Y-115269737D01*
X127821153Y-115300499D01*
X127821156Y-115300500D01*
X127821158Y-115300500D01*
X127978844Y-115300500D01*
X127978845Y-115300499D01*
X128133497Y-115269737D01*
X128279179Y-115209394D01*
X128410289Y-115121789D01*
X128521789Y-115010289D01*
X128609394Y-114879179D01*
X128669737Y-114733497D01*
X128700500Y-114578842D01*
X128700500Y-114421158D01*
X128700500Y-114421155D01*
X128700499Y-114421153D01*
X128684901Y-114342736D01*
X128669737Y-114266503D01*
X128666137Y-114257812D01*
X128609397Y-114120827D01*
X128609390Y-114120814D01*
X128521789Y-113989711D01*
X128521786Y-113989707D01*
X128410292Y-113878213D01*
X128410288Y-113878210D01*
X128279185Y-113790609D01*
X128279172Y-113790602D01*
X128133501Y-113730264D01*
X128133489Y-113730261D01*
X127978151Y-113699362D01*
X127916240Y-113666977D01*
X127914713Y-113665477D01*
X127462589Y-113213354D01*
X127462588Y-113213352D01*
X127343717Y-113094481D01*
X127343709Y-113094475D01*
X127250986Y-113040942D01*
X127250984Y-113040941D01*
X127206790Y-113015425D01*
X127206789Y-113015424D01*
X127194263Y-113012067D01*
X127054057Y-112974499D01*
X126895943Y-112974499D01*
X126888347Y-112974499D01*
X126888331Y-112974500D01*
X126474499Y-112974500D01*
X126407460Y-112954815D01*
X126361705Y-112902011D01*
X126350499Y-112850500D01*
X126350499Y-112677129D01*
X126350498Y-112677123D01*
X126350497Y-112677116D01*
X126344091Y-112617517D01*
X126309172Y-112523895D01*
X126293797Y-112482671D01*
X126293793Y-112482664D01*
X126207547Y-112367455D01*
X126207544Y-112367452D01*
X126092335Y-112281206D01*
X126092328Y-112281202D01*
X125957482Y-112230908D01*
X125957483Y-112230908D01*
X125897883Y-112224501D01*
X125897881Y-112224500D01*
X125897873Y-112224500D01*
X125897865Y-112224500D01*
X125724500Y-112224500D01*
X125657461Y-112204815D01*
X125611706Y-112152011D01*
X125600500Y-112100500D01*
X125600500Y-107824060D01*
X125600501Y-107824047D01*
X125600501Y-107655944D01*
X125559576Y-107503214D01*
X125559573Y-107503209D01*
X125480524Y-107366290D01*
X125480518Y-107366282D01*
X124483103Y-106368867D01*
X122763631Y-104649396D01*
X122730147Y-104588074D01*
X122735131Y-104518382D01*
X122736716Y-104514352D01*
X122796054Y-104371100D01*
X122858838Y-104136789D01*
X122890500Y-103896288D01*
X122890500Y-103653751D01*
X123150000Y-103653751D01*
X123150000Y-103896248D01*
X123150001Y-103896264D01*
X123181653Y-104136687D01*
X123244421Y-104370939D01*
X123337220Y-104594978D01*
X123337227Y-104594992D01*
X123458481Y-104805010D01*
X123527061Y-104894384D01*
X124245884Y-104175560D01*
X124246740Y-104177626D01*
X124339762Y-104316844D01*
X124458156Y-104435238D01*
X124597374Y-104528260D01*
X124599437Y-104529114D01*
X123880614Y-105247936D01*
X123880614Y-105247937D01*
X123969989Y-105316517D01*
X123969996Y-105316522D01*
X124180007Y-105437772D01*
X124180021Y-105437779D01*
X124404060Y-105530578D01*
X124638312Y-105593346D01*
X124878735Y-105624998D01*
X124878752Y-105625000D01*
X125121248Y-105625000D01*
X125121264Y-105624998D01*
X125361687Y-105593346D01*
X125595939Y-105530578D01*
X125819978Y-105437779D01*
X125819992Y-105437772D01*
X126030016Y-105316515D01*
X126119384Y-105247939D01*
X126119384Y-105247936D01*
X125400562Y-104529114D01*
X125402626Y-104528260D01*
X125541844Y-104435238D01*
X125660238Y-104316844D01*
X125753260Y-104177626D01*
X125754114Y-104175562D01*
X126472936Y-104894384D01*
X126472939Y-104894384D01*
X126541515Y-104805016D01*
X126662772Y-104594992D01*
X126662779Y-104594978D01*
X126755578Y-104370939D01*
X126818346Y-104136687D01*
X126849998Y-103896264D01*
X126850000Y-103896248D01*
X126850000Y-103653743D01*
X126849996Y-103653711D01*
X127109500Y-103653711D01*
X127109500Y-103896288D01*
X127141161Y-104136785D01*
X127203947Y-104371104D01*
X127296773Y-104595205D01*
X127296777Y-104595214D01*
X127307190Y-104613249D01*
X127418064Y-104805289D01*
X127418066Y-104805292D01*
X127418067Y-104805293D01*
X127565733Y-104997736D01*
X127565739Y-104997743D01*
X127737256Y-105169260D01*
X127737263Y-105169266D01*
X127824159Y-105235943D01*
X127929711Y-105316936D01*
X128139788Y-105438224D01*
X128363900Y-105531054D01*
X128598211Y-105593838D01*
X128754269Y-105614383D01*
X128838711Y-105625500D01*
X128838712Y-105625500D01*
X129081289Y-105625500D01*
X129129388Y-105619167D01*
X129321789Y-105593838D01*
X129556100Y-105531054D01*
X129699268Y-105471751D01*
X129719140Y-105469614D01*
X129737870Y-105462629D01*
X129753166Y-105465956D01*
X129768731Y-105464283D01*
X129786608Y-105473231D01*
X129806143Y-105477481D01*
X129828429Y-105494164D01*
X129831211Y-105495557D01*
X129834397Y-105498632D01*
X129863181Y-105527416D01*
X129896666Y-105588739D01*
X129899500Y-105615097D01*
X129899500Y-106920234D01*
X129879815Y-106987273D01*
X129878602Y-106989125D01*
X129790609Y-107120814D01*
X129790602Y-107120827D01*
X129730264Y-107266498D01*
X129730261Y-107266510D01*
X129699500Y-107421153D01*
X129699500Y-107578846D01*
X129730261Y-107733489D01*
X129730264Y-107733501D01*
X129790602Y-107879172D01*
X129790609Y-107879185D01*
X129878210Y-108010288D01*
X129878213Y-108010292D01*
X129989707Y-108121786D01*
X129989711Y-108121789D01*
X130120814Y-108209390D01*
X130120827Y-108209397D01*
X130266498Y-108269735D01*
X130266503Y-108269737D01*
X130421153Y-108300499D01*
X130421156Y-108300500D01*
X130421158Y-108300500D01*
X130578844Y-108300500D01*
X130578845Y-108300499D01*
X130733497Y-108269737D01*
X130879179Y-108209394D01*
X131010289Y-108121789D01*
X131121789Y-108010289D01*
X131209394Y-107879179D01*
X131269737Y-107733497D01*
X131300500Y-107578842D01*
X131300500Y-107421158D01*
X131300500Y-107421155D01*
X131300499Y-107421153D01*
X131269738Y-107266510D01*
X131269737Y-107266503D01*
X131209794Y-107121786D01*
X131209397Y-107120827D01*
X131209390Y-107120814D01*
X131121398Y-106989125D01*
X131100520Y-106922447D01*
X131100500Y-106920234D01*
X131100500Y-105404059D01*
X131100501Y-105404046D01*
X131100501Y-105235945D01*
X131100501Y-105235943D01*
X131059577Y-105083215D01*
X131026865Y-105026557D01*
X131026865Y-105026556D01*
X130980522Y-104946287D01*
X130980521Y-104946286D01*
X130980520Y-104946284D01*
X130868716Y-104834480D01*
X130868715Y-104834479D01*
X130864385Y-104830149D01*
X130864374Y-104830139D01*
X130683632Y-104649397D01*
X130650147Y-104588074D01*
X130655131Y-104518382D01*
X130656716Y-104514352D01*
X130716054Y-104371100D01*
X130778838Y-104136789D01*
X130810500Y-103896288D01*
X130810500Y-103653712D01*
X130778838Y-103413211D01*
X130716054Y-103178900D01*
X130623224Y-102954788D01*
X130501936Y-102744711D01*
X130410073Y-102624992D01*
X130354266Y-102552263D01*
X130354260Y-102552256D01*
X130182743Y-102380739D01*
X130182736Y-102380733D01*
X129990293Y-102233067D01*
X129990292Y-102233066D01*
X129990289Y-102233064D01*
X129780981Y-102112220D01*
X129780214Y-102111777D01*
X129780205Y-102111773D01*
X129556104Y-102018947D01*
X129321785Y-101956161D01*
X129081289Y-101924500D01*
X129081288Y-101924500D01*
X128838712Y-101924500D01*
X128838711Y-101924500D01*
X128598214Y-101956161D01*
X128363895Y-102018947D01*
X128139794Y-102111773D01*
X128139785Y-102111777D01*
X127929706Y-102233067D01*
X127737263Y-102380733D01*
X127737256Y-102380739D01*
X127565739Y-102552256D01*
X127565733Y-102552263D01*
X127418067Y-102744706D01*
X127418064Y-102744710D01*
X127418064Y-102744711D01*
X127417499Y-102745689D01*
X127296777Y-102954785D01*
X127296773Y-102954794D01*
X127203947Y-103178895D01*
X127141161Y-103413214D01*
X127109500Y-103653711D01*
X126849996Y-103653711D01*
X126818346Y-103413312D01*
X126755578Y-103179060D01*
X126662779Y-102955021D01*
X126662772Y-102955007D01*
X126541522Y-102744996D01*
X126541517Y-102744989D01*
X126472937Y-102655614D01*
X126472936Y-102655614D01*
X125754114Y-103374436D01*
X125753260Y-103372374D01*
X125660238Y-103233156D01*
X125541844Y-103114762D01*
X125402626Y-103021740D01*
X125400560Y-103020884D01*
X126119384Y-102302061D01*
X126030010Y-102233481D01*
X125819992Y-102112227D01*
X125819978Y-102112220D01*
X125595939Y-102019421D01*
X125361687Y-101956653D01*
X125121264Y-101925001D01*
X125121248Y-101925000D01*
X124878752Y-101925000D01*
X124878735Y-101925001D01*
X124638312Y-101956653D01*
X124404060Y-102019421D01*
X124180021Y-102112220D01*
X124180006Y-102112227D01*
X123969990Y-102233480D01*
X123880614Y-102302060D01*
X123880614Y-102302061D01*
X124599438Y-103020885D01*
X124597374Y-103021740D01*
X124458156Y-103114762D01*
X124339762Y-103233156D01*
X124246740Y-103372374D01*
X124245885Y-103374438D01*
X123527061Y-102655614D01*
X123527060Y-102655614D01*
X123458480Y-102744990D01*
X123337227Y-102955006D01*
X123337220Y-102955021D01*
X123244421Y-103179060D01*
X123181653Y-103413312D01*
X123150001Y-103653735D01*
X123150000Y-103653751D01*
X122890500Y-103653751D01*
X122890500Y-103653712D01*
X122858838Y-103413211D01*
X122796054Y-103178900D01*
X122703224Y-102954788D01*
X122581936Y-102744711D01*
X122490073Y-102624992D01*
X122434266Y-102552263D01*
X122434260Y-102552256D01*
X122262743Y-102380739D01*
X122262736Y-102380733D01*
X122070293Y-102233067D01*
X122070292Y-102233066D01*
X122070289Y-102233064D01*
X121860981Y-102112220D01*
X121860214Y-102111777D01*
X121860205Y-102111773D01*
X121636104Y-102018947D01*
X121401785Y-101956161D01*
X121161289Y-101924500D01*
X121161288Y-101924500D01*
X120918712Y-101924500D01*
X120918711Y-101924500D01*
X120678214Y-101956161D01*
X120443895Y-102018947D01*
X120219794Y-102111773D01*
X120219785Y-102111777D01*
X120009706Y-102233067D01*
X119817263Y-102380733D01*
X119817256Y-102380739D01*
X119645739Y-102552256D01*
X119645733Y-102552263D01*
X119498067Y-102744706D01*
X119498064Y-102744710D01*
X119498064Y-102744711D01*
X119497499Y-102745689D01*
X119376777Y-102954785D01*
X119376773Y-102954794D01*
X119283947Y-103178895D01*
X119221161Y-103413214D01*
X119189500Y-103653711D01*
X119189500Y-103896288D01*
X119221161Y-104136785D01*
X119283947Y-104371104D01*
X119376773Y-104595205D01*
X119376777Y-104595214D01*
X119387190Y-104613249D01*
X119498064Y-104805289D01*
X119498066Y-104805292D01*
X119498067Y-104805293D01*
X119645733Y-104997736D01*
X119645739Y-104997743D01*
X119817256Y-105169260D01*
X119817263Y-105169266D01*
X119904159Y-105235943D01*
X120009711Y-105316936D01*
X120219788Y-105438224D01*
X120443900Y-105531054D01*
X120678211Y-105593838D01*
X120834269Y-105614383D01*
X120918711Y-105625500D01*
X120918712Y-105625500D01*
X121161289Y-105625500D01*
X121209388Y-105619167D01*
X121401789Y-105593838D01*
X121636100Y-105531054D01*
X121779268Y-105471751D01*
X121848731Y-105464283D01*
X121911211Y-105495557D01*
X121914397Y-105498632D01*
X124363181Y-107947416D01*
X124396666Y-108008739D01*
X124399500Y-108035097D01*
X124399500Y-112100500D01*
X124379815Y-112167539D01*
X124327011Y-112213294D01*
X124275501Y-112224500D01*
X124102130Y-112224500D01*
X124102123Y-112224501D01*
X124042516Y-112230908D01*
X123907671Y-112281202D01*
X123907664Y-112281206D01*
X123792455Y-112367452D01*
X123792452Y-112367455D01*
X123706206Y-112482664D01*
X123706202Y-112482671D01*
X123655908Y-112617517D01*
X123649501Y-112677116D01*
X123649501Y-112677123D01*
X123649500Y-112677135D01*
X123649500Y-113275500D01*
X123629815Y-113342539D01*
X123577011Y-113388294D01*
X123525500Y-113399500D01*
X120579766Y-113399500D01*
X120512727Y-113379815D01*
X120510875Y-113378602D01*
X120379185Y-113290609D01*
X120379172Y-113290602D01*
X120233501Y-113230264D01*
X120233489Y-113230261D01*
X120078845Y-113199500D01*
X120078842Y-113199500D01*
X119921158Y-113199500D01*
X119921155Y-113199500D01*
X119766510Y-113230261D01*
X119766498Y-113230264D01*
X119620827Y-113290602D01*
X119620814Y-113290609D01*
X119489711Y-113378210D01*
X119489707Y-113378213D01*
X119446259Y-113421662D01*
X119384936Y-113455147D01*
X119315244Y-113450163D01*
X119270897Y-113421662D01*
X117716819Y-111867584D01*
X117683334Y-111806261D01*
X117680500Y-111779903D01*
X117680500Y-105612085D01*
X117700185Y-105545046D01*
X117752989Y-105499291D01*
X117757048Y-105497524D01*
X117900200Y-105438229D01*
X117900200Y-105438228D01*
X117900212Y-105438224D01*
X118110289Y-105316936D01*
X118302738Y-105169265D01*
X118474265Y-104997738D01*
X118621936Y-104805289D01*
X118743224Y-104595212D01*
X118836054Y-104371100D01*
X118898838Y-104136789D01*
X118930500Y-103896288D01*
X118930500Y-103653712D01*
X118898838Y-103413211D01*
X118836054Y-103178900D01*
X118743224Y-102954788D01*
X118621936Y-102744711D01*
X118530073Y-102624992D01*
X118474266Y-102552263D01*
X118474260Y-102552256D01*
X118302743Y-102380739D01*
X118302736Y-102380733D01*
X118110293Y-102233067D01*
X118110292Y-102233066D01*
X118110289Y-102233064D01*
X117900981Y-102112220D01*
X117900214Y-102111777D01*
X117900205Y-102111773D01*
X117676104Y-102018947D01*
X117441785Y-101956161D01*
X117201289Y-101924500D01*
X117201288Y-101924500D01*
X116958712Y-101924500D01*
X116958711Y-101924500D01*
X116718214Y-101956161D01*
X116483895Y-102018947D01*
X116259794Y-102111773D01*
X116259785Y-102111777D01*
X116049706Y-102233067D01*
X115857263Y-102380733D01*
X115857256Y-102380739D01*
X115685739Y-102552256D01*
X115685733Y-102552263D01*
X115538067Y-102744706D01*
X115538064Y-102744710D01*
X115538064Y-102744711D01*
X115537499Y-102745689D01*
X115416777Y-102954785D01*
X115416773Y-102954794D01*
X115323947Y-103178895D01*
X115261161Y-103413214D01*
X115229500Y-103653711D01*
X115229500Y-103896288D01*
X115261161Y-104136785D01*
X115323947Y-104371104D01*
X115416773Y-104595205D01*
X115416777Y-104595214D01*
X115427190Y-104613249D01*
X115538064Y-104805289D01*
X115538066Y-104805292D01*
X115538067Y-104805293D01*
X115685733Y-104997736D01*
X115685739Y-104997743D01*
X115857256Y-105169260D01*
X115857263Y-105169266D01*
X115944159Y-105235943D01*
X116049711Y-105316936D01*
X116259788Y-105438224D01*
X116259793Y-105438226D01*
X116259799Y-105438229D01*
X116402952Y-105497524D01*
X116457356Y-105541364D01*
X116479421Y-105607658D01*
X116479500Y-105612085D01*
X116479500Y-111993330D01*
X116479499Y-111993348D01*
X116479499Y-112159054D01*
X116479498Y-112159054D01*
X116520423Y-112311786D01*
X116532959Y-112333497D01*
X116549434Y-112401397D01*
X116526583Y-112467424D01*
X116471663Y-112510616D01*
X116425574Y-112519500D01*
X105749500Y-112519500D01*
X105682461Y-112499815D01*
X105636706Y-112447011D01*
X105625500Y-112395500D01*
X105625500Y-111969997D01*
X105625499Y-111969984D01*
X105614999Y-111867204D01*
X105614999Y-111867203D01*
X105559814Y-111700666D01*
X105484193Y-111578067D01*
X105467713Y-111551348D01*
X105467710Y-111551344D01*
X105343655Y-111427289D01*
X105343651Y-111427286D01*
X105194337Y-111335187D01*
X105194335Y-111335186D01*
X105111065Y-111307593D01*
X105027797Y-111280001D01*
X105027795Y-111280000D01*
X104925015Y-111269500D01*
X104925008Y-111269500D01*
X102624992Y-111269500D01*
X102624984Y-111269500D01*
X102522204Y-111280000D01*
X102522203Y-111280001D01*
X102355664Y-111335186D01*
X102355662Y-111335187D01*
X102206348Y-111427286D01*
X102206344Y-111427289D01*
X102082289Y-111551344D01*
X102082286Y-111551348D01*
X101990187Y-111700662D01*
X101990186Y-111700664D01*
X101935001Y-111867203D01*
X101935000Y-111867204D01*
X101924500Y-111969984D01*
X100500500Y-111969984D01*
X100500500Y-105002706D01*
X100500618Y-104997298D01*
X100505111Y-104894384D01*
X100505999Y-104874038D01*
X103399500Y-104874038D01*
X103399500Y-105125962D01*
X103416920Y-105235945D01*
X103438910Y-105374785D01*
X103516760Y-105614383D01*
X103631132Y-105838848D01*
X103779201Y-106042649D01*
X103779205Y-106042654D01*
X103957345Y-106220794D01*
X103957350Y-106220798D01*
X104020268Y-106266510D01*
X104161155Y-106368870D01*
X104304184Y-106441747D01*
X104385616Y-106483239D01*
X104385618Y-106483239D01*
X104385621Y-106483241D01*
X104625215Y-106561090D01*
X104874038Y-106600500D01*
X104874039Y-106600500D01*
X105125961Y-106600500D01*
X105125962Y-106600500D01*
X105374785Y-106561090D01*
X105614379Y-106483241D01*
X105838845Y-106368870D01*
X106042656Y-106220793D01*
X106220793Y-106042656D01*
X106368870Y-105838845D01*
X106483241Y-105614379D01*
X106561090Y-105374785D01*
X106600500Y-105125962D01*
X106600500Y-104874038D01*
X106561090Y-104625215D01*
X106483241Y-104385621D01*
X106483239Y-104385618D01*
X106483239Y-104385616D01*
X106398175Y-104218670D01*
X106368870Y-104161155D01*
X106345183Y-104128553D01*
X106220798Y-103957350D01*
X106220794Y-103957345D01*
X106042656Y-103779207D01*
X106042648Y-103779201D01*
X106002416Y-103749971D01*
X106002415Y-103749969D01*
X105869926Y-103653711D01*
X111269500Y-103653711D01*
X111269500Y-103896288D01*
X111301161Y-104136785D01*
X111363947Y-104371104D01*
X111456773Y-104595205D01*
X111456777Y-104595214D01*
X111467190Y-104613249D01*
X111578064Y-104805289D01*
X111578066Y-104805292D01*
X111578067Y-104805293D01*
X111725733Y-104997736D01*
X111725739Y-104997743D01*
X111897256Y-105169260D01*
X111897263Y-105169266D01*
X111984159Y-105235943D01*
X112089711Y-105316936D01*
X112299788Y-105438224D01*
X112322952Y-105447818D01*
X112377354Y-105491655D01*
X112399421Y-105557949D01*
X112399500Y-105562379D01*
X112399500Y-105920234D01*
X112379815Y-105987273D01*
X112378602Y-105989125D01*
X112290609Y-106120814D01*
X112290602Y-106120827D01*
X112230264Y-106266498D01*
X112230261Y-106266510D01*
X112199500Y-106421153D01*
X112199500Y-106578846D01*
X112230261Y-106733489D01*
X112230264Y-106733501D01*
X112290602Y-106879172D01*
X112290609Y-106879185D01*
X112378210Y-107010288D01*
X112378213Y-107010292D01*
X112489707Y-107121786D01*
X112489711Y-107121789D01*
X112620814Y-107209390D01*
X112620827Y-107209397D01*
X112758683Y-107266498D01*
X112766503Y-107269737D01*
X112921153Y-107300499D01*
X112921156Y-107300500D01*
X112921158Y-107300500D01*
X113078844Y-107300500D01*
X113078845Y-107300499D01*
X113233497Y-107269737D01*
X113379179Y-107209394D01*
X113510289Y-107121789D01*
X113621789Y-107010289D01*
X113709394Y-106879179D01*
X113769737Y-106733497D01*
X113800500Y-106578842D01*
X113800500Y-106421158D01*
X113800500Y-106421155D01*
X113800499Y-106421153D01*
X113790099Y-106368870D01*
X113769737Y-106266503D01*
X113750804Y-106220794D01*
X113709397Y-106120827D01*
X113709390Y-106120814D01*
X113621398Y-105989125D01*
X113600520Y-105922447D01*
X113600500Y-105920234D01*
X113600500Y-105657177D01*
X113620185Y-105590138D01*
X113672989Y-105544383D01*
X113692405Y-105537403D01*
X113716100Y-105531054D01*
X113940212Y-105438224D01*
X114150289Y-105316936D01*
X114342738Y-105169265D01*
X114514265Y-104997738D01*
X114661936Y-104805289D01*
X114783224Y-104595212D01*
X114876054Y-104371100D01*
X114938838Y-104136789D01*
X114970500Y-103896288D01*
X114970500Y-103653712D01*
X114938838Y-103413211D01*
X114876054Y-103178900D01*
X114783224Y-102954788D01*
X114661936Y-102744711D01*
X114570073Y-102624992D01*
X114514266Y-102552263D01*
X114514260Y-102552256D01*
X114342743Y-102380739D01*
X114342736Y-102380733D01*
X114150293Y-102233067D01*
X114150292Y-102233066D01*
X114150289Y-102233064D01*
X113940981Y-102112220D01*
X113940214Y-102111777D01*
X113940205Y-102111773D01*
X113716104Y-102018947D01*
X113481785Y-101956161D01*
X113241289Y-101924500D01*
X113241288Y-101924500D01*
X112998712Y-101924500D01*
X112998711Y-101924500D01*
X112758214Y-101956161D01*
X112523895Y-102018947D01*
X112299794Y-102111773D01*
X112299785Y-102111777D01*
X112089706Y-102233067D01*
X111897263Y-102380733D01*
X111897256Y-102380739D01*
X111725739Y-102552256D01*
X111725733Y-102552263D01*
X111578067Y-102744706D01*
X111578064Y-102744710D01*
X111578064Y-102744711D01*
X111577499Y-102745689D01*
X111456777Y-102954785D01*
X111456773Y-102954794D01*
X111363947Y-103178895D01*
X111301161Y-103413214D01*
X111269500Y-103653711D01*
X105869926Y-103653711D01*
X105838848Y-103631132D01*
X105838847Y-103631131D01*
X105838845Y-103631130D01*
X105768747Y-103595413D01*
X105614383Y-103516760D01*
X105374785Y-103438910D01*
X105313264Y-103429166D01*
X105125962Y-103399500D01*
X104874038Y-103399500D01*
X104787471Y-103413211D01*
X104625214Y-103438910D01*
X104385616Y-103516760D01*
X104161151Y-103631132D01*
X103957350Y-103779201D01*
X103957345Y-103779205D01*
X103779205Y-103957345D01*
X103779201Y-103957350D01*
X103631132Y-104161151D01*
X103516760Y-104385616D01*
X103442798Y-104613249D01*
X103438910Y-104625215D01*
X103399500Y-104874038D01*
X100505999Y-104874038D01*
X100517386Y-104613226D01*
X100518326Y-104602495D01*
X100568152Y-104224025D01*
X100570025Y-104213405D01*
X100652649Y-103840709D01*
X100655440Y-103830295D01*
X100770230Y-103466227D01*
X100773917Y-103456095D01*
X100920003Y-103103412D01*
X100924561Y-103093638D01*
X101100822Y-102755045D01*
X101106217Y-102745700D01*
X101311325Y-102423744D01*
X101317515Y-102414905D01*
X101549896Y-102112060D01*
X101556834Y-102103791D01*
X101814726Y-101822352D01*
X101822352Y-101814726D01*
X102103791Y-101556834D01*
X102112060Y-101549896D01*
X102414905Y-101317515D01*
X102423744Y-101311325D01*
X102745700Y-101106217D01*
X102755045Y-101100822D01*
X103093638Y-100924561D01*
X103103412Y-100920003D01*
X103456095Y-100773917D01*
X103466227Y-100770230D01*
X103830295Y-100655440D01*
X103840709Y-100652649D01*
X104213405Y-100570025D01*
X104224025Y-100568152D01*
X104602495Y-100518326D01*
X104613226Y-100517386D01*
X104997297Y-100500617D01*
X105002706Y-100500500D01*
X105065892Y-100500500D01*
X144934108Y-100500500D01*
X144997294Y-100500500D01*
X145002702Y-100500617D01*
G37*
%TD.AperFunction*%
%TD*%
M02*
